<svg width="336" height="328" viewBox="0 0 336 328" fill="none" xmlns="http://www.w3.org/2000/svg">
<g filter="url(#filter0_g_46_374)">
<path d="M75.2327 295.146C55.1517 278.102 18.5553 277.542 13.6175 267.716C2.0332 244.663 6.9457 223.061 11.6193 217.842C15.3383 213.689 17.9608 210.378 20.7187 207.644C29.2575 199.182 10.8596 179.677 9.72012 129.639C9.37746 114.591 13.023 106.915 15.2112 101.688C21.2558 87.2494 51.5181 100.805 63.8956 101.663C83.3006 103.01 82.3835 72.7796 83.7542 67.8335C84.387 65.5499 85.6698 63.9774 90.8636 63.1352C105.16 60.8169 116.502 62.8379 119.797 63.1186C138.54 64.7158 159.39 22.196 172.346 11.9488C174.974 9.86979 178.117 10.0083 180.884 10.0001C206.861 9.92253 216.15 69.9721 218.883 73.8282C222.371 78.7491 245.711 73.853 272.943 76.0329C287.993 77.2376 292.1 95.7841 302.264 116.163C306.827 125.31 309.721 131.637 311.108 134.387C314.65 141.407 296.559 142.652 291.852 146.772C284.831 152.919 309.671 159.695 317.97 163.295C321.466 164.812 324.584 167.969 327.061 173.988C331.437 184.623 326.268 199.841 323.246 211.938C321.986 216.984 320.769 219.675 313.395 221.079C306.021 222.483 292.397 222.483 286.196 223.845C279.995 225.208 281.63 227.932 282.744 231.244C285.079 238.178 287.146 247.75 288.541 257.369C289.731 265.571 278.376 268.706 275.082 271.456C267.712 277.607 253.621 274.767 231.657 275.601C226.633 275.792 224.457 276.419 223.061 277.517C221.666 278.615 221.121 280.25 221.658 282.727C224.164 294.293 232.087 300.067 234.324 315.731C234.766 318.826 232.153 319.356 230.22 319.909C215.117 324.234 192.518 322.659 168.085 322.948C157.529 323.073 151.232 317.176 144.618 314.972C138.004 312.767 113.976 311.66 94.2656 307.276C90.1287 305.616 82.9697 302.322 82.9697 302.322C82.9697 302.322 78.3745 297.813 75.2327 295.146Z" fill="#F6C445"/>
<path d="M154.281 20.5233C157.991 15.7554 160.961 11.2711 167.522 5.8503C169.383 4.38566 171.771 3.33215 173.951 2.86896C173.958 2.86724 173.966 2.86553 173.973 2.86382C175.954 2.42927 177.749 2.37826 179.212 2.38434C179.822 2.38762 180.379 2.4023 180.861 2.41168C196.84 2.58437 207.319 17.8778 214.184 35.4242C219.662 49.3129 223.03 65.1049 224.007 70.1967C223.468 69.493 223.043 69.3384 222.978 69.3191C222.891 69.302 223.038 69.3924 223.268 69.4716C223.736 69.6399 224.522 69.8014 225.302 69.9142C226.911 70.1455 228.616 70.2522 230.174 70.334C232.041 70.4256 233.975 70.4467 239.077 70.3049C242.415 70.2211 246.99 70.0343 253.65 69.9891C257.188 69.9723 261.339 70.0025 266.204 70.2326C268.43 70.3389 270.819 70.4856 273.37 70.6997C283.474 70.9838 291.56 80.698 295.41 88.7711C299.722 97.162 303.013 105.822 307.042 113.78C307.645 114.985 308.243 116.189 308.834 117.387C311.323 122.407 313.717 127.537 315.898 131.97C316.749 133.518 317.413 136.442 316.434 138.942C315.493 141.409 313.99 142.636 312.851 143.513C310.49 145.199 308.597 145.87 306.799 146.573C303.247 147.88 300.153 148.719 297.782 149.642C296.61 150.072 295.43 150.717 295.381 150.803C295.286 150.861 295.628 150.703 295.884 149.753C295.999 149.289 295.983 148.741 295.891 148.368C295.804 147.997 295.684 147.796 295.642 147.729C295.542 147.59 295.693 147.813 295.977 148.052C296.254 148.294 296.658 148.593 297.102 148.883C298.936 150.077 301.365 151.21 303.833 152.258C308.854 154.404 314.071 156.057 320.027 158.553C322.084 159.451 323.988 160.775 325.547 162.3C328.537 165.236 330.363 168.673 331.746 172.06C336.608 185.792 331.628 198.343 328.48 211.098C328.302 211.776 328.125 212.452 327.955 213.115C327.312 215.468 326.477 219.21 323.193 222.006C320.001 224.598 316.927 225.118 314.262 225.631C306.051 226.847 298.693 226.567 291.368 227.077C289.846 227.182 288.317 227.319 287.009 227.546C286.953 227.556 286.899 227.565 286.846 227.575C286.193 227.694 285.597 227.856 285.242 227.998C285.07 228.064 284.974 228.123 284.993 228.089C285.007 228.063 285.151 227.885 285.217 227.661C285.289 227.437 285.257 227.287 285.246 227.348C285.234 227.4 285.253 227.609 285.317 227.884C285.444 228.444 285.721 229.238 285.999 230.148C288.463 238.536 289.915 247.129 291.134 256.273C291.165 256.509 291.195 256.745 291.225 256.98C292.073 262.099 288.283 266.379 285.257 268.343C282.194 270.51 278.583 271.931 276.671 273.36C262.333 281.744 249.573 276.875 236.37 278.143C234.842 278.185 233.319 278.24 231.76 278.314C229.052 278.439 225.83 278.772 224.79 279.713C224.469 279.992 224.403 280.121 224.321 280.469C224.247 280.815 224.268 281.425 224.431 282.126C224.798 283.761 225.308 285.374 225.964 287C228.68 293.919 235.835 303.226 237.222 315.317C237.573 316.816 236.926 319.77 235.083 320.993C233.421 322.21 232.007 322.411 231.025 322.721C225.076 324.405 218.92 325.08 212.827 325.471C211.079 325.579 209.321 325.661 207.583 325.72C207.574 325.721 207.566 325.721 207.557 325.721C193.426 326.146 179.696 325.64 168.119 325.835C163.913 325.907 159.935 325.007 156.624 323.739C150.903 321.511 146.955 318.796 143.675 317.8C134.043 315.712 127.759 315.669 123.063 315.084C120.568 314.838 118.253 314.605 115.493 314.283C109.604 313.584 101.926 312.559 93.5033 310.703C93.3901 310.679 93.0663 310.575 92.9585 310.534C89.1399 308.982 85.3816 307.276 81.5065 305.501C81.2741 305.398 80.7023 304.995 80.5184 304.82C79.176 303.505 77.7712 302.159 76.3731 300.855C76.3314 300.816 76.2899 300.778 76.2482 300.739C74.4358 299.045 73.2616 297.451 73.6266 297.038C73.9866 296.615 75.8074 297.584 77.6417 299.3C79.0935 300.652 80.5343 302.032 81.9211 303.39C81.9997 303.465 82.2444 303.638 82.3438 303.682C86.2211 305.458 89.9916 307.167 93.7042 308.675C93.7505 308.693 93.8896 308.737 93.9382 308.747C95.4953 309.094 97.0362 309.409 98.5331 309.697C98.9857 309.3 100.921 309.307 103.164 309.693C108.133 310.876 122.589 311.453 144.642 314.898C147.271 315.716 149.815 317.076 152.482 318.367C150.864 317.438 149.523 316.628 148.309 315.956C146.95 315.201 145.843 314.664 144.854 314.264C144.811 314.246 144.768 314.229 144.725 314.212C142.541 313.414 141.086 313.11 138.497 312.633C132.488 311.649 123.039 310.715 113.17 309.347C110.677 309.002 108.739 308.251 108.834 307.707C108.929 307.162 111.006 307.027 113.485 307.37C113.533 307.376 113.582 307.383 113.63 307.39C123.361 308.74 133.079 309.685 139.47 310.761C141.099 311.035 142.521 311.322 143.635 311.604C144.216 311.75 144.941 311.953 145.55 312.177C145.843 312.284 146.104 312.389 146.305 312.475C146.384 312.509 146.534 312.574 146.71 312.657C146.713 312.659 146.716 312.66 146.719 312.662C146.818 312.708 147.319 312.945 147.811 313.25C147.91 313.311 148.129 313.447 148.365 313.62C148.43 313.655 148.496 313.69 148.561 313.725C149.472 314.217 150.359 314.737 151.295 315.291C154.459 316.883 158.581 320.791 168.065 321.239C169.816 321.265 171.701 321.3 173.748 321.345C185.688 321.055 206.041 324.078 229.909 318.823C231.276 318.456 232.564 318.065 232.983 317.39C232.544 318.036 231.279 318.39 229.884 318.734C229.513 318.831 229.138 318.924 228.759 319.015C224.417 320.041 219.925 320.546 215.403 320.843C213.667 320.956 211.963 321.032 210.207 321.088C207.394 321.177 204.563 321.203 201.729 321.196C199.809 321.192 197.894 321.172 195.971 321.142C195.967 321.142 195.962 321.142 195.958 321.142C193.292 321.102 190.616 321.043 187.916 320.98C186.976 320.956 186.034 320.933 185.111 320.911C181.419 320.822 177.786 320.734 173.598 320.621C173.088 320.603 172.533 320.579 172.121 320.559C171.677 320.538 171.25 320.517 170.844 320.496C170.487 320.478 170.147 320.46 169.821 320.443C169.777 320.44 169.734 320.438 169.69 320.436C169.325 320.417 168.976 320.4 168.64 320.384C168.441 320.375 168.246 320.366 168.054 320.358C167.934 320.352 167.815 320.346 167.698 320.339C167.696 320.339 167.693 320.339 167.69 320.339C167.39 320.321 167.169 320.305 166.85 320.28C166.455 320.247 166.115 320.213 165.707 320.166C165.314 320.12 164.9 320.063 164.487 319.996C164.073 319.93 163.654 319.852 163.232 319.763C162.807 319.674 162.381 319.573 161.948 319.46C161.52 319.347 161.084 319.222 160.648 319.084C160.214 318.946 159.775 318.795 159.337 318.634C158.326 318.261 157.4 317.748 156.773 317.258C156.145 316.768 155.861 316.351 155.978 316.122C156.093 315.89 156.601 315.863 157.367 316.005C158.134 316.146 159.092 316.434 160.043 316.76C160.302 316.849 160.561 316.934 160.823 317.015C160.977 317.063 161.133 317.11 161.288 317.155C161.706 317.276 162.129 317.387 162.553 317.486C162.978 317.586 163.409 317.675 163.84 317.752C164.278 317.83 164.719 317.895 165.168 317.95C165.618 318.004 166.076 318.047 166.549 318.078C167.006 318.109 167.53 318.13 168.008 318.137C168.015 318.137 168.021 318.137 168.028 318.137C168.447 318.14 168.956 318.149 169.381 318.158C169.833 318.168 170.276 318.18 170.706 318.193C171.137 318.206 171.553 318.22 171.949 318.234C171.991 318.236 172.033 318.237 172.076 318.239C172.426 318.251 172.763 318.264 173.084 318.275C173.442 318.288 173.78 318.299 174.101 318.308C174.455 318.319 174.669 318.323 174.932 318.328C178.419 318.358 182.708 318.381 186.791 318.403C187.304 318.405 187.811 318.408 188.315 318.411C190.989 318.423 193.655 318.43 196.307 318.418C198.24 318.41 200.154 318.392 202.081 318.357C204.907 318.307 207.725 318.223 210.523 318.074C212.253 317.982 213.958 317.867 215.66 317.717C220.112 317.321 224.517 316.705 228.602 315.588C228.72 315.556 228.838 315.523 228.955 315.49C230.138 315.194 230.8 314.871 230.497 315.042C230.35 315.133 229.97 315.591 229.869 315.975C229.755 316.359 229.814 316.479 229.797 316.378C229.505 314.254 229.08 312.182 228.503 310.151C227.373 306.079 225.465 302.112 223.287 297.96C221.705 294.911 219.993 291.471 218.901 287.974C218.439 286.515 218.069 285.037 217.798 283.564C217.702 283.061 217.627 282.535 217.589 281.975C217.589 281.966 217.588 281.958 217.588 281.949C217.319 279.83 218.292 276.361 220.504 274.755C220.583 274.691 220.662 274.629 220.741 274.569C225.249 271.666 228.399 272.36 231.525 272.12C231.582 272.12 231.639 272.119 231.696 272.118C234.818 272.081 237.919 272.098 241.023 272.145C244.102 272.191 247.237 272.271 250.302 272.334C253.39 272.394 256.39 272.445 259.482 272.356C263.496 272.223 267.527 271.884 270.642 270.479C271.533 270.074 272.329 269.582 273.025 268.992C276.38 266.517 278.826 265.713 281.136 264.108C282.237 263.375 283.218 262.589 283.935 261.773C283.938 261.77 283.94 261.767 283.943 261.764C285.09 260.433 285.45 259.317 285.235 257.849C285.177 257.464 285.117 257.079 285.057 256.694C284.397 252.506 283.614 248.324 282.685 244.178C281.783 240.176 280.751 236.176 279.462 232.349C279.42 232.227 279.377 232.103 279.332 231.973C279.085 231.259 278.759 230.461 278.476 229.337C278.223 228.276 277.897 226.434 278.888 224.52C281.232 220.936 283.629 221.053 285.455 220.471C286.795 220.185 288.075 220.013 289.317 219.87C293.518 219.407 297.585 219.234 301.541 218.989C302.584 218.926 303.62 218.861 304.654 218.788C307.49 218.586 310.282 218.352 312.79 217.9C314.596 217.571 316.292 217.081 317.371 216.403C318.833 215.561 319.438 213.951 320.113 211.156C320.578 209.257 321.064 207.379 321.541 205.507C322.722 200.873 323.868 196.238 324.557 191.613C325.239 186.992 325.474 182.399 324.509 178.328C324.266 177.312 323.947 176.343 323.545 175.435C322.223 172.406 320.469 169.702 318.32 168.165C317.702 167.718 317.041 167.35 316.333 167.068C314.912 166.493 313.232 165.909 311.643 165.357C309.015 164.448 306.325 163.533 303.669 162.555C302.589 162.158 301.516 161.751 300.44 161.324C298.874 160.703 297.317 160.048 295.77 159.317C293.152 157.969 290.594 157.025 287.721 153.724C286.85 152.623 285.707 150.62 286.038 148.088C286.404 145.591 287.756 144.164 288.756 143.236C289.978 142.158 291.025 141.604 291.984 141.102C294.719 139.752 296.671 139.122 298.957 138.251C301.71 137.259 303.786 136.477 305.23 135.722C305.937 135.359 306.482 134.977 306.634 134.81C306.711 134.732 306.668 134.726 306.538 134.917C306.409 135.098 306.222 135.542 306.196 135.979C306.155 136.541 306.305 136.846 306.279 136.823C306.199 136.67 306.113 136.506 306.034 136.352C303.763 131.867 301.715 127.624 299.571 123.362C298.786 121.795 298.001 120.239 297.211 118.683C295.79 115.884 294.465 113.074 293.183 110.255C291.179 105.856 289.3 101.443 287.333 97.2853C285.369 93.1545 283.281 89.1975 280.823 86.2854C278.352 83.3626 275.777 81.8469 272.502 81.5416C272.464 81.5381 272.425 81.5346 272.387 81.5311C269.782 81.2923 266.997 81.1001 264.403 80.9708C262.536 80.8771 260.685 80.8091 258.861 80.7633C258.126 80.7446 257.376 80.7295 256.646 80.7179C254.116 80.6778 251.656 80.6783 249.267 80.7082C246.872 80.7383 244.547 80.7977 242.264 80.8743C239.975 80.9508 237.733 81.0457 235.45 81.1362C233.078 81.2267 231.117 81.3098 228.467 81.3284C226.747 81.3329 225.032 81.3063 223.118 81.101C221.992 80.9713 220.847 80.8048 219.464 80.3819C218.113 79.9117 216.236 79.3368 214.439 76.9785C213.312 75.2133 213.368 74.8582 213.055 74.1119C212.15 71.51 211.562 69.3327 210.889 67.0648C210.676 66.3382 210.452 65.5694 210.243 64.8645C209.584 62.6269 208.936 60.4827 208.25 58.3165C207.57 56.1687 206.867 54.0467 206.142 51.9855C205.406 49.8919 204.655 47.8716 203.841 45.8279C202.463 42.3641 201.088 39.1123 199.792 36.3565C198.483 33.5708 197.163 31.0551 195.766 28.759C195.504 28.3285 195.241 27.9098 194.973 27.4944C193.8 25.6817 192.596 24.0569 191.307 22.6081C189.734 20.8409 188.083 19.4146 186.422 18.4526C184.768 17.4927 183.163 17.0191 181.555 16.9648C181.34 16.9574 181.124 16.9572 180.904 16.9644C178.282 16.9576 177.089 17.2204 176.913 17.426C176.86 17.4668 176.827 17.5026 176.78 17.5556C175.611 18.5516 174.177 20.1285 172.7 21.9544C170.893 24.1868 169.006 26.7749 167.092 29.456C165.18 32.1381 163.228 34.9345 161.241 37.7224C159.252 40.5147 157.206 43.3337 155.094 46.1004C152.969 48.8817 150.765 51.634 148.401 54.3257C146.042 57.0104 143.425 59.7398 140.627 62.1761C136.109 65.9482 130.713 70.3045 122.166 71.0495C121.169 71.1113 120.147 71.1019 119.124 71.0115C113.954 70.3905 110.323 69.9757 106.007 69.894C101.333 69.7973 96.6754 70.0868 92.1061 70.7969C92.0451 70.8063 91.9854 70.8158 91.9271 70.8252C90.8804 70.9766 89.9349 71.2977 90.019 71.2754C90.0496 71.2593 90.4611 71.0066 90.8099 70.5375C91.1642 70.0724 91.2432 69.6867 91.1805 69.8915C91.2495 69.5804 91.1339 70.1085 91.0879 70.4791C91.0244 70.929 90.9639 71.4355 90.9051 71.9452C90.7829 73.0142 90.6643 74.1257 90.5288 75.2822C90.3892 76.476 90.2379 77.6734 90.0617 78.8953C89.4324 83.1985 88.5653 87.6474 86.8639 92.2168C86.852 92.248 86.84 92.2793 86.828 92.3106C84.7095 97.9624 80.5666 105.068 72.5329 107.935C69.717 108.939 66.9114 109.238 64.3346 109.148C64.0169 109.137 63.6987 109.12 63.3799 109.097C61.1958 108.929 59.4402 108.6 57.7001 108.253C55.7344 107.853 53.8791 107.408 52.1071 106.975C50.32 106.537 48.5978 106.103 46.9003 105.688C45.3417 105.306 43.8072 104.941 42.1543 104.571C42.0035 104.537 41.8527 104.504 41.7022 104.471C39.8962 104.072 37.8732 103.656 36.0365 103.334C31.2658 102.462 26.336 102.201 23.8571 103.103C23.2193 103.324 22.8574 103.56 22.644 103.751C22.4321 103.949 22.288 104.127 22.098 104.571C21.0851 106.97 20.2664 108.92 19.6013 110.972C19.0385 112.695 18.5864 114.437 18.2332 116.234C17.6849 119.018 17.3786 121.927 17.2689 124.907C17.2134 126.41 17.2073 127.931 17.2442 129.467C17.3339 133.175 17.5145 136.762 17.8044 140.459C18.2169 145.715 18.847 150.978 19.6983 156.174C20.543 161.348 21.641 166.592 22.9155 171.693C24.335 177.438 26.0342 182.986 27.7507 189.063C28.5494 192.011 29.3883 194.942 29.828 198.731C30.3065 202.124 29.918 208.578 25.5916 212.561C25.4344 212.713 25.2764 212.867 25.1179 213.025C22.4867 215.655 19.6616 219.08 16.6439 222.342C16.4969 222.424 15.7529 223.638 15.2928 224.835C13.567 229.182 12.8382 234.767 12.9255 240.127C12.9787 243.379 13.322 246.625 13.9395 249.853C14.3379 251.537 14.7984 253.147 15.295 254.662C16.5235 258.403 17.9813 261.671 19.6028 264.708C19.3947 264.345 19.9858 265.058 21.0933 265.612C22.1848 266.203 23.6208 266.795 25.1783 267.346C28.2923 268.445 31.8799 269.426 35.8641 270.505C37.005 270.804 37.9627 271.038 39.1075 271.319C39.3269 271.373 39.5604 271.431 39.7998 271.49C41.3233 271.867 43.0547 272.299 45.5034 272.99C50.3349 274.418 57.9736 276.54 67.3292 281.721C69.686 283.053 70.9022 284.415 70.1291 284.585C69.5852 284.71 68.2214 284.256 66.6586 283.562C69.4367 285.057 72.1505 286.732 74.7313 288.644C75.7625 289.407 76.646 290.246 77.1891 290.94C77.7315 291.633 77.8937 292.112 77.672 292.26C77.4488 292.409 76.8591 292.219 76.0155 291.773C75.1697 291.324 74.1436 290.67 73.1233 289.958C70.4252 288.071 67.5986 286.445 64.7076 285.005C61.8131 283.565 58.8668 282.316 55.8866 281.187C52.9062 280.059 49.9031 279.056 46.8816 278.12C43.8726 277.189 40.8519 276.327 37.8431 275.482C34.8168 274.63 31.8587 273.814 28.9251 272.919C27.1465 272.375 25.4145 271.813 23.7442 271.188C23.1285 270.958 22.5178 270.717 21.9527 270.478C21.461 270.27 21.0036 270.065 20.5394 269.842C18.5137 268.888 16.6573 267.593 16.1178 266.459C14.5694 263.407 13.2527 260.236 12.2017 257.005C10.404 251.481 9.35627 245.711 9.17683 239.928C9.01396 234.169 9.63723 228.247 11.5959 223.101C12.1308 221.729 12.8317 220.364 13.5385 219.561C16.5099 216.24 19.2632 212.744 22.169 209.746C22.2735 209.639 22.3795 209.532 22.4847 209.426C25.4703 206.609 25.7226 202.147 25.2724 199.115C24.8379 195.878 23.9855 193.009 23.1423 190.129C21.786 185.612 20.3671 181.229 19.1029 176.792C18.5667 175.065 18.0542 173.336 17.5765 171.642C16.1716 166.661 14.9359 161.689 13.9219 156.699C15.5126 165.614 17.4581 172.615 19.504 179.238C19.7866 180.151 20.0496 180.982 20.3383 181.892C21.5784 185.822 22.9086 189.656 24.0703 193.911C24.8881 197.916 27.3844 203.877 22.4054 209.346C21.4183 210.326 20.429 211.403 19.4082 212.553C17.3521 214.877 15.3684 217.223 13.3826 219.421C3.595 239.017 11.2681 257.492 15.5462 266.746C16.2204 268.139 18.0148 269.342 19.654 270.208C30.606 275.093 36.3997 275.992 41.0466 277.926C47.8283 280.319 60.9304 285.136 66.9392 288.798C69.1673 290.046 70.622 291.578 70.3016 292.026C69.9792 292.478 68.0754 291.727 65.9235 290.525C59.7948 286.759 45.78 281.752 37.7036 278.941C34.211 277.437 29.6918 276.965 18.388 271.802C16.7364 270.868 14.8058 269.682 13.7562 267.646C9.55641 258.045 0.972414 239.966 11.8903 218.085C13.8728 215.891 15.8552 213.544 17.9647 211.161C18.9821 210.017 19.9816 208.93 20.9954 207.924C24.7922 203.978 23.1241 198.762 22.2588 194.908C21.1864 190.865 19.8842 187.1 18.6563 183.231C18.3755 182.354 18.094 181.468 17.8177 180.585C17.8161 180.579 17.8144 180.574 17.8128 180.568C15.2538 172.321 12.7159 163.313 10.9533 150.733C10.0386 144.139 9.42347 136.93 9.20646 129.65C8.75974 119.7 10.7603 109.466 14.5111 101.395C17.3933 94.3762 25.3071 94.0664 29.8215 94.1603C34.711 94.3363 38.3814 95.0883 40.4977 95.4502C42.3112 95.7809 44.0525 96.1322 45.8838 96.5227C50.488 97.392 55.8293 99.184 64.0054 100.081C68.0838 100.406 73.0107 98.7783 76.063 93.3647C78.0672 89.9901 79.4518 85.337 80.3181 80.1072C80.9503 75.81 80.8602 71.998 81.6267 67.2439C81.9384 65.3549 83.7779 63.004 85.559 62.2448C87.3271 61.3546 88.9313 61.0152 90.4716 60.7177C90.8618 60.6456 91.2469 60.5774 91.6268 60.513C97.6584 59.4947 103.312 59.0567 108.794 59.0225C110.379 59.0139 111.954 59.0394 113.548 59.1014C115.785 59.177 118.195 59.3889 120.107 59.4821C121.144 59.5013 122.199 59.3287 123.251 59.0032C125.331 58.3647 127.55 57.0276 129.749 55.2386C137.861 48.5784 145.332 37.0382 156.131 22.3544C160.065 17.2083 163.557 12.2287 168.999 7.71786C173.226 4.34852 178.304 4.65025 180.868 4.64386C192.31 4.78632 199.27 12.8447 203.489 18.8581C198.041 10.5456 189.489 4.2844 180.867 4.42199C180.1 4.40777 179.211 4.38049 178.245 4.40199C176.698 4.4358 174.916 4.6028 173.102 5.17485C171.556 5.65517 170.028 6.44904 168.77 7.42754C162.343 12.755 159.491 17.0953 155.918 21.677C138.136 46.3344 130.02 55.7348 121.662 57.8037C121.19 57.8863 120.713 57.9284 120.24 57.9226C117.919 57.7885 114.586 57.4862 111.384 57.4303C104.928 57.2817 97.7308 57.7311 90.2243 59.1926C87.7715 59.8241 84.4637 59.9612 81.4793 63.8004C80.7664 64.8365 80.3782 65.9411 80.15 66.8347C78.8291 76.7545 79.1821 85.782 74.5039 93.7003C74.5018 93.7034 74.4997 93.7064 74.4976 93.7095C73.5158 95.2603 72.3056 96.5986 70.8529 97.5484C68.9566 98.8014 66.6312 99.362 64.0618 99.2677C54.1447 98.4259 43.2319 94.5097 32.2469 93.7098C30.7325 93.6029 28.9351 93.5258 26.8128 93.6661C23.0848 93.9134 16.5883 95.0587 14.155 101.246C10.8342 108.617 8.42214 118.6 8.80809 129.659C8.90379 134.178 9.12597 138.852 9.51886 143.692C9.96693 149.17 10.5816 154.888 11.6446 161.324C11.9716 163.295 12.3373 165.313 12.7666 167.447C14.1864 176.49 18.9743 187.812 20.8649 201.438C20.8718 203.354 20.4374 204.925 19.1969 206.109C15.9566 209.305 13.1163 212.875 9.94889 216.346C4.78167 223.425 4.25698 231.378 4.14845 239.429C4.24613 247.434 5.9126 255.509 8.8259 262.957C9.61398 264.975 10.4705 266.906 11.4198 268.82C30.6601 284.545 51.0047 281.806 66.9179 292.766C66.9215 292.768 66.925 292.77 66.9286 292.773C68.9851 294.032 70.2114 295.515 69.8195 295.91C69.4236 296.307 67.6268 295.535 65.6446 294.337C57.9755 289.694 49.0424 286.633 39.7239 283.853C35.0334 282.447 30.2524 281.153 25.2614 279.53C20.3869 277.489 14.7492 277.328 9.63013 269.719C8.6276 267.698 7.72477 265.658 6.89649 263.521C3.96342 255.969 2.25263 247.729 2.14635 239.499C2.32633 231.12 2.52808 223.225 8.45677 215.01C11.5881 211.582 14.405 208.028 17.7864 204.686C18.5914 203.907 18.8825 202.993 18.8575 201.2C16.8634 188.267 12.0385 176.116 10.613 166.938C10.1682 164.671 9.7923 162.526 9.4733 160.522C8.4482 154.056 7.90238 148.635 7.48362 143.39C7.11188 138.669 6.90007 134.115 6.80681 129.705C6.38852 118.416 8.96389 107.843 12.3015 100.47C14.8851 93.827 21.7488 92.1033 25.5377 91.7563C27.8751 91.5126 29.8795 91.5604 31.5304 91.649C43.139 92.337 54.5918 96.4663 64.2018 97.2499C66.0911 97.3073 67.7399 96.9614 69.0865 96.2457C70.2943 95.6091 71.3395 94.6571 72.2561 93.4089C72.2579 93.4063 72.2596 93.4037 72.2613 93.401C76.992 86.4501 76.7614 77.3415 78.2069 66.2962C78.3389 65.7896 78.5131 65.2209 78.7673 64.6067C79.7705 61.8102 82.7979 59.4632 84.7127 58.7252C86.733 57.8442 88.3593 57.5018 89.9001 57.1933C96.5734 55.8965 102.811 55.3801 108.748 55.3573C112.816 55.3162 117.309 55.6829 120.413 55.8934C120.529 55.8919 120.646 55.8865 120.765 55.8771C127.295 55.1622 136.65 45.2501 154.281 20.5233ZM62.3214 281.39C56.5504 278.576 51.6739 276.959 48.0703 275.836C51.117 276.849 54.1618 277.938 57.1868 279.161C58.9083 279.857 60.6232 280.597 62.3214 281.39ZM82.4114 79.7073C82.2895 80.6797 82.1478 81.667 81.9818 82.6568C82.5135 79.943 82.8678 77.2172 83.1558 74.4819C83.4105 72.2903 83.5086 69.9755 83.9602 67.8906C84.2368 66.8157 84.769 65.8187 85.6457 65.1551C84.7582 65.8178 84.2218 66.8184 83.9403 67.8851C83.2044 71.8809 83.0536 75.9694 82.4114 79.7073ZM157.762 23.5178C147.569 37.329 140.758 48.0268 132.613 55.4779C130.268 57.5856 127.79 59.3906 125.144 60.481C124.056 60.9279 122.925 61.2608 121.779 61.4207C128.643 60.6456 134.09 55.2696 138.041 51.3882C149.707 38.8857 155.008 30.3248 160.483 23.5782C162.038 21.5903 163.568 19.6784 165.179 17.7914C166.434 16.1751 167.82 14.4822 169.354 12.9001C170.012 12.2225 170.755 11.5133 171.507 10.8882C173.447 9.2285 176.134 8.62873 178.366 8.52169C179.231 8.46831 180.075 8.46061 180.879 8.44144C183.408 8.38139 185.932 8.88088 188.234 9.83571C191.39 11.1386 194.072 13.1896 196.355 15.4747C198.504 17.6282 200.349 20.0469 201.929 22.4334C202.021 22.572 202.112 22.7113 202.203 22.8512C203.853 25.3891 205.273 27.9885 206.481 30.3839C207.712 32.8303 208.652 34.8983 209.483 36.7338C210.52 39.0261 211.505 41.4028 212.424 43.7803C213.337 46.1416 214.2 48.5507 215.004 50.9218C215.821 53.3399 216.567 55.6754 217.306 58.0947C217.537 58.8486 217.787 59.6807 218.014 60.4443C218.119 60.7967 218.222 61.1392 218.324 61.4847C217.076 56.8171 215.685 51.8686 214.057 46.863C211.663 39.6159 208.902 31.8733 204.271 23.8316C200.002 16.882 193.548 7.03552 180.874 6.64606C178.21 6.6396 173.821 6.42977 170.241 9.28835C165.211 13.439 161.669 18.3885 157.762 23.5178ZM280.857 75.0908C279.118 74.1684 276.507 73.1663 273.192 72.9235C272.408 72.8646 271.586 72.8084 270.727 72.7563C269.767 72.6979 268.762 72.6454 267.706 72.5986C267.731 72.6003 267.757 72.6016 267.782 72.6033C269.633 72.7316 271.384 72.8773 273.182 73.0518C274.034 73.1333 274.86 73.2594 275.726 73.4506C281.085 74.5697 285.378 78.2063 288.246 82.0727C291.188 85.9942 293.233 90.1838 295.164 94.3301C297.081 98.4927 298.832 102.668 300.648 106.731C301.905 109.551 303.182 112.313 304.537 115.029C305.168 116.295 305.797 117.564 306.424 118.835C307.059 120.123 307.698 121.427 308.329 122.72C307.169 120.224 305.951 117.655 304.654 114.971C304.436 114.52 304.219 114.067 304.004 113.61C302.819 111.103 301.639 108.452 300.428 105.634C299.96 104.549 299.409 103.239 298.762 101.703C295.559 96.0405 294.497 84.4363 280.857 75.0908ZM294.224 148.86C294.098 148.949 293.978 149.046 293.904 149.116C293.589 149.392 293.669 149.511 293.748 149.162C293.776 149.014 293.75 148.856 293.739 148.82C293.728 148.779 293.747 148.836 293.825 148.941C293.971 149.148 294.325 149.506 294.732 149.828C295.573 150.501 296.67 151.157 297.798 151.754C299.393 152.597 301.098 153.357 302.805 154.067C303.523 154.365 304.255 154.658 304.981 154.942C306.2 155.418 307.421 155.875 308.647 156.325C305.081 154.968 301.568 153.58 298.408 151.946C296.844 151.131 295.311 150.202 294.396 149.317C294.185 149.114 294.018 148.91 293.951 148.801C293.879 148.692 293.927 148.7 293.957 148.914C293.993 149.12 293.907 149.43 293.867 149.484C293.832 149.546 293.885 149.448 294.062 149.297C294.527 148.876 295.818 148.243 297.094 147.761C297.199 147.721 297.305 147.68 297.413 147.639C296.164 148.014 294.982 148.442 294.224 148.86Z" fill="#F6C445"/>
</g>
<g filter="url(#filter1_g_46_374)">
<path d="M188.94 113.281C189.158 113.388 188.935 113.928 189.034 114.085C189.283 114.49 189.255 114.701 189.227 114.906C189.203 115.025 189.192 115.156 189.267 115.325C189.433 115.886 193.219 118.001 190.828 120.735C190.828 120.735 190.828 120.735 190.828 120.735C190.805 120.762 190.782 120.789 190.758 120.817C190.307 121.334 189.587 121.711 189.056 122.28C188.526 122.85 185.36 126.739 184.862 126.696C184.17 126.606 183.821 124.691 183.499 124.509C183.288 124.392 182.77 124.563 182.455 124.41C181.794 124.089 181.401 123.638 180.739 123.344C180.383 123.186 179.964 123.089 179.385 123.088C179.584 122.328 179.852 121.631 180.138 120.962C179.632 120.83 179.944 119.899 179.79 119.82C179.665 119.755 179.274 120.099 179.206 120.075C179.202 120.073 179.2 120.071 179.197 120.068C179.159 120.008 179.321 119.525 179.341 119.623C179.402 119.807 179.866 121.28 180.775 121.189C181.197 121.143 181.554 120.795 181.676 120.556C181.811 120.31 181.779 120.19 181.895 120.264C181.89 120.313 181.891 120.365 181.898 120.421C181.983 120.559 182.069 120.697 182.155 120.835C182.459 120.983 182.762 121.132 183.064 121.283C183.051 121.58 182.418 121.293 182.271 121.494C182.098 121.733 182.566 122.21 182.456 122.378C182.366 122.514 181.802 122.431 181.713 122.638C181.581 122.938 182.261 123.272 182.289 123.495C182.303 123.574 181.969 124.938 181.93 125.015C181.649 125.543 180.736 125.061 180.407 125.434C179.495 126.474 179.426 128.176 178.858 129.559C178.607 130.175 178.148 130.712 177.598 131.157C176.117 128.752 173.138 129.247 176.898 131.14C175.972 131.365 176.474 132.502 175.807 132.958C175.374 133.248 174.728 133.103 174.222 133.617C173.372 134.506 173.049 136.794 171.028 134.607C170.051 135.92 168.416 135.581 168.796 138.038C168.802 138.087 168.809 138.137 168.818 138.189C168.405 138.549 166.822 137.475 166.341 137.389C165.898 137.407 162.377 137.309 161.577 137.079C160.905 137.02 159.553 136.713 158.685 136.544C158.04 136.447 156.846 137.124 155.995 136.399C155.83 136.257 155.877 135.799 156.434 134.752C155.551 134.269 155.387 133.969 155.065 133.113C155.008 132.959 155.334 132.624 155.275 132.561C155.151 132.431 154.693 132.45 154.447 132.249C154.042 131.918 154.571 131.04 153.506 132.102C153.092 132.026 152.682 131.952 152.274 131.88C152.41 131.599 152.546 131.318 152.682 131.038C152.332 131.124 151.982 131.21 151.633 131.298C153.369 129.972 151.611 129.959 150.96 131.093C150.877 130.341 150.799 129.6 150.719 128.87C152.547 127.199 150.026 127.765 149.185 128.83C149.143 128.787 149.102 128.744 149.061 128.702C149.136 127.865 148.437 127.955 148.335 127.315C148.231 126.682 148.421 126.534 148.924 125.501C148.793 125.494 148.673 125.499 148.572 125.518C147.682 126.814 148.097 126.383 148.289 125.743C148.404 125.431 148.486 125.09 148.555 124.974C148.64 124.845 148.694 125.016 149.312 125.401C149.131 124.34 148.864 124.192 148.873 124.426C148.78 124.775 148.936 125.291 149.067 125.676C149.098 125.772 149.443 125.932 149.512 126.066C149.677 126.372 148.999 126.792 150.163 127.185C149.759 127.263 149.353 127.362 148.943 127.486C149.101 127.735 149.26 127.986 149.424 128.231C149.794 128.331 150.163 128.432 150.532 128.532C149.173 128.549 149.504 129.316 149.131 129.561C149.055 129.611 148.536 129.51 148.351 129.683C148.132 129.883 148.192 130.368 147.973 130.63C148.524 130.857 149.076 131.083 149.628 131.307C149.84 131.888 148.287 131.795 148.11 132.093C148.079 132.143 147.991 133.23 148.011 133.298C148.175 133.83 149.508 133.914 148.936 135.322C148.832 135.577 148.342 135.692 148.271 135.93C148.156 136.329 148.822 137.918 149.697 138.307C148.406 138.554 148.342 140.291 147.786 140.688C147.624 140.8 146.917 140.533 146.567 140.912C146.299 141.201 146.326 142.458 145.892 142.913C145.445 143.384 144.789 143.173 144.582 143.362C144.383 143.54 144.611 144.069 144.329 144.358C144.159 144.53 143.961 144.673 143.749 144.792C143.69 144.534 142.985 144.505 142.779 144.769C142.369 145.276 143.22 146.736 143.325 147.739C143.135 147.831 142.76 147.787 142.636 147.947C141.183 149.835 138.117 152.863 133.948 153.249C133.372 153.31 132.513 153.159 131.738 152.938C130.575 152.484 129.497 152.144 129.798 154.549C129.295 155.138 126.675 153.396 126.229 153.288C125.735 153.189 125.246 153.736 124.86 153.68C123.704 153.51 122.996 152.924 121.586 153.222C121.222 153.3 120.739 153.962 120.546 153.92C120.312 153.867 120.18 153.124 119.885 153.029C119.176 152.806 117.845 152.844 117.22 152.648C117.106 152.61 117.137 151.986 116.988 151.773C116.406 150.938 115.648 150.947 115.63 152.943C114.912 151.753 114.125 152.758 113.485 152.831C112.073 152.924 109.847 152.94 109.513 154.08C109.287 154.78 109.816 155.491 108.874 155.199C108.869 155.198 108.864 155.196 108.859 155.195C108.6 155.173 108.3 155.117 107.975 155.124C107.221 155.112 105.561 154.413 106.638 156.167C105.754 156.348 105.673 157.026 103.948 156.493C104.232 156.796 104.518 157.095 104.807 157.391C104.758 157.476 104.711 157.559 104.664 157.644C104.328 157.446 103.991 157.249 103.653 157.054C103.126 157.625 104.017 159.251 103.733 159.763C103.211 160.604 101.585 162.924 100.782 163.843C100.342 164.318 101.139 164.57 99.3985 164.425C99.4764 164.587 99.5547 164.75 99.6349 164.909C99.975 165.087 100.316 165.263 100.658 165.437C100.483 166.152 99.7143 166.899 99.5791 167.615C99.3204 168.936 100.064 171.044 99.2716 172.32C99.0695 172.641 98.2627 173.012 98.2469 173.351C98.224 173.847 99.4958 174.057 99.4877 174.665C99.465 175.718 97.9446 177.714 98.0824 178.771C98.1204 179.08 98.6012 179.214 98.6575 179.426C98.8994 180.305 98.8934 181.049 99.6798 181.85C98.5093 182.842 96.9244 182.879 95.3478 183.292C94.1575 183.599 91.4241 184.547 90.3797 184.751C89.6451 184.89 88.6677 184.693 87.8609 184.868C87.1035 183.657 87.7866 183.06 88.8801 181.984C88.7338 180.114 88.6491 178.231 88.6388 176.335C89.089 176.17 89.5396 176.008 89.9908 175.851C89.9918 175.851 89.9928 175.851 89.9938 175.851C90.5286 175.159 89.3926 174.81 89.1493 174.404C86.7213 170.496 89.8627 162.924 91.7676 159.03C92.1058 158.173 92.8437 155.049 93.835 154.802C94.0823 154.738 94.7122 155.022 94.8221 154.881C95.215 153.294 95.7512 151.692 96.4728 150.103C98.4505 148.726 99.9722 147.002 101.795 145.402C102.8 144.531 103.918 143.748 105.117 143.182C115.268 138.924 124.082 142.396 130.585 142.947C131.042 143.001 131.536 142.972 131.998 142.917C132.109 142.788 131.895 142.713 132.119 142.846C132.243 142.936 133.002 143.772 132.755 142.901C132.953 143.124 133.151 143.347 133.35 143.569C133.407 143.036 133.084 142.396 133.367 141.954C133.597 141.616 134.429 140.382 134.926 139.878C135.168 139.638 135.545 140.067 135.737 139.801C136.016 139.439 136.058 138.505 137.03 137.308C136.981 137.264 136.948 137.235 136.953 137.23C136.958 137.224 137.119 137.287 137.311 137.266C137.5 137.25 137.706 137.16 137.717 137.034C137.814 136.114 137.271 134.53 137.836 133.028C137.996 132.613 138.818 132.158 138.826 132.007C138.839 131.713 138.165 131.498 138.113 131.287C137.847 130.223 138.969 128.71 139.248 127.604C139.82 125.448 140.26 122.925 142.042 119.99C142.796 118.561 145.532 116.219 148.4 116.28C151.113 116.293 152.389 117.171 153.411 117.756C156.513 119.797 158.773 122.425 159.753 124.2C159.95 124.583 159.308 125.021 159.542 125.275C159.8 125.556 160.32 125.354 160.468 125.453C161.326 126.029 162.917 127.133 163.516 127.861C163.185 127.617 162.886 127.533 162.688 127.546C162.461 127.559 162.215 128.12 162.186 128.11C162.173 128.106 162.219 127.695 162.189 127.647C162.1 127.332 163.241 127.396 164.074 127.164C164.128 127.15 164.183 127.134 164.238 127.117C166.188 126.563 167.668 123.684 169.789 120.978C170.26 120.393 171.558 120.544 171.605 120.443C171.71 120.222 171.103 119.678 171.189 119.148C171.444 117.626 172.94 116.205 173.855 114.709C174.118 114.302 174.418 113.875 174.783 113.433C175.415 112.656 176.626 111.288 178.676 110.673C180.707 110.053 182.636 110.398 183.688 110.804C184.316 111.039 185.04 111.511 185.599 111.982C186.685 112.895 187.246 113.69 187.626 113.668C187.977 113.658 188.7 113.168 188.94 113.281ZM173.202 133.653C172.398 132.528 171.974 134.395 172.892 134.595C173.11 134.636 173.42 133.944 173.202 133.653ZM138.441 149.019C138.717 149.303 138.995 149.586 139.273 149.868C139.322 149.6 139.359 149.336 139.387 149.077C139.138 148.988 138.892 148.896 138.648 148.799C138.581 148.873 138.512 148.946 138.441 149.019Z" fill="#FF5E14"/>
</g>
<g filter="url(#filter2_g_46_374)">
<path d="M209.224 153.86C209.445 153.907 209.357 154.491 209.529 154.657C210.244 155.355 210.31 155.863 210.882 156.571C211.735 157.614 215.147 159.525 212.841 162.303C212.841 162.303 212.841 162.303 212.841 162.303C212.819 162.331 212.795 162.358 212.772 162.385C212.323 162.905 211.596 163.277 211.066 163.846C210.535 164.415 207.368 168.304 206.85 168.243C206.121 168.123 205.742 166.16 205.434 165.988C205.23 165.875 204.716 166.048 204.436 165.929C203.525 165.54 203.331 164.965 201.901 165.426C202.032 164.704 202.154 163.976 202.273 163.248C201.739 163.223 201.703 162.123 201.458 162.002C201.253 161.9 200.843 162.24 200.644 162.124C200.415 161.995 200.42 161.311 199.986 161.107C199.277 160.773 198.405 161.81 197.94 161.7C197.463 161.59 197.268 160.586 196.531 160.685C196.392 160.772 196.257 160.863 196.119 160.952C195.987 161.264 195.85 161.573 195.715 161.883C195.402 161.873 195.661 161.227 195.454 161.089C195.21 160.926 194.762 161.42 194.607 161.329C194.513 161.273 194.531 160.96 194.476 160.775L195.202 161.106C195.163 161.039 195.118 160.99 195.06 160.977C194.743 160.907 194.546 161.638 194.341 161.713C194.248 161.733 192.991 161.74 192.942 161.737C192.483 161.623 192.741 160.625 192.407 160.437C191.472 159.914 190.481 160.649 190.377 160.988C190.349 161.044 190.334 161.07 190.32 161.072L194.107 159.427C195.269 158.382 195.271 157.887 195.26 157.748C193.973 157.372 193.049 156.592 192.694 156.576C192.349 156.548 192.78 156.876 194.751 157.507C194.133 157.466 195.049 158.248 194.669 158.796C194.41 159.177 193.772 159.295 193.502 160.025C193.498 160.037 193.494 160.049 193.489 160.061C193.21 160.915 194.328 162.409 191.504 161.632C191.597 162.855 190.251 163.414 192.534 164.721C192.577 165.06 190.853 165.243 190.531 165.491C190.244 165.715 188.618 167.861 188.345 168.295C188.119 168.694 187.69 169.442 187.631 169.981C187.581 170.57 189.529 172.743 185.826 172.025C185.174 172.787 184.002 173.619 182.397 173.724C180.789 173.843 179.363 173.074 178.645 172.303C178.595 172.217 178.544 172.124 178.489 172.021C178.407 171.869 178.691 171.496 178.619 171.437C178.479 171.321 178.006 171.376 177.732 171.198C177.27 170.894 177.696 169.959 176.753 171.131C176.319 171.088 175.891 171.047 175.466 171.008C175.567 170.711 175.669 170.413 175.771 170.116C175.423 170.23 175.079 170.348 174.732 170.462C176.334 168.977 174.534 169.093 174.012 170.299C173.826 169.53 173.644 168.766 173.465 168.009C175.164 166.21 172.6 166.872 171.82 167.977C171.767 167.929 171.714 167.88 171.662 167.832C171.618 166.928 170.837 166.967 170.545 166.154C170.248 165.338 170.454 165.199 170.989 164.168C170.808 164.107 170.629 164.047 170.449 163.987C167.81 165.882 171.228 161.686 168.517 162.663C169.258 160.777 167.599 160.881 166.612 160.97C166.496 160.979 166.293 161.301 166.128 161.336C165.73 161.418 165.325 160.617 164.74 161.697C164.699 161.265 164.648 160.832 164.589 160.398C164.299 160.496 164.012 160.599 163.732 160.708C163.562 161.051 163.392 161.394 163.221 161.737C163.453 160.391 162.656 160.578 162.507 160.18C162.476 160.098 162.668 159.605 162.541 159.398C162.477 159.292 162.354 159.23 162.221 159.175C162.083 159.117 161.947 159.081 161.874 158.963C161.639 159.503 161.432 160.053 161.266 160.615C161.119 160.905 161.367 159.386 161.321 159.261C161.323 159.248 161.318 159.281 161.463 159.287C161.595 159.3 161.895 159.217 161.929 159.213C162.22 159.207 162.555 159.464 163.046 159.457C163.288 159.45 163.582 159.356 163.85 159.101C164.116 158.856 164.326 158.43 164.319 158.08C164.318 158.048 164.31 158.017 164.295 157.987C164.152 158.095 163.791 158.183 163.756 158.336C163.679 158.635 164.606 159.837 165.55 160.015C164.322 160.359 164.702 161.743 164.32 162.129C164.203 162.242 163.444 162.202 163.247 162.565C163.088 162.857 163.61 163.726 163.457 164.126C163.294 164.545 162.639 164.616 162.568 164.801C162.502 164.977 162.988 165.219 162.946 165.473C162.806 166.267 161.853 166.836 161.701 167.452C161.48 168.337 162.732 169.551 163.09 170.627C162.926 170.807 162.545 170.903 162.463 171.119C162.057 172.178 161.499 173.294 160.773 174.369C160.358 175.001 159.834 175.725 158.861 176.493C157.931 177.248 156.264 178.005 154.587 177.935C151.137 177.665 150.018 175.931 149.219 174.981C149.192 174.939 149.165 174.897 149.139 174.856C148.53 173.897 148.606 170.739 146.369 173.459C145.682 173.557 145.368 171.14 145.165 170.974C144.947 170.75 144.401 171.11 144.284 171.036C144.054 170.89 144.038 170.702 144.027 170.707C143.503 170.524 142.979 170.381 142.382 170.34C141.957 170.313 141.314 170.834 141.138 170.75C140.925 170.645 140.981 169.897 140.757 169.758C140.492 169.595 140.114 169.49 139.903 169.463C139.679 169.431 139.68 169.478 139.815 169.423C139.866 169.401 139.896 168.778 139.947 168.581C140.155 167.835 140.523 167.697 141.434 169.466C141.551 169.08 141.632 168.832 141.722 168.672C140.607 169.402 140.114 170.403 139.397 170.903C137.307 172.276 134.685 173.247 134.278 174.706C134.02 175.6 134.649 176.216 133.372 176.378C133.091 176.417 132.758 176.429 132.41 176.508C131.611 176.67 129.84 176.25 131.116 177.88C130.221 178.241 130.192 178.977 128.386 178.705C128.701 178.976 129.018 179.244 129.337 179.51C129.294 179.607 129.251 179.705 129.208 179.805C128.851 179.649 128.492 179.494 128.132 179.341C127.649 180.015 128.665 181.616 128.398 182.223C127.917 183.219 126.383 185.882 125.593 186.933C125.169 187.457 125.972 187.688 124.221 187.639C124.303 187.807 124.385 187.976 124.468 188.145C124.813 188.32 125.159 188.489 125.506 188.655C125.409 189.12 125.091 189.607 124.823 190.108C124.654 190.4 124.513 190.684 124.469 190.963C124.255 192.275 125.154 194.138 124.532 195.327C124.37 195.63 123.621 196.066 123.656 196.377C123.708 196.83 124.994 196.798 125.088 197.315C125.226 198.177 124.192 200.271 124.63 201.182C124.751 201.443 125.247 201.412 125.359 201.576C125.838 202.261 126.066 202.911 127.064 203.326C126.305 204.614 124.862 205.259 123.553 206.231C122.564 206.961 120.415 208.909 119.537 209.51C118.916 209.928 117.929 210.107 117.256 210.587C116.041 209.665 116.416 208.774 117.017 207.29C116.143 205.417 115.393 203.411 114.866 201.307C115.258 201.016 115.653 200.732 116.052 200.456C116.053 200.456 116.054 200.455 116.055 200.455C116.403 199.582 115.22 199.455 114.892 199.049C112.858 196.616 113.04 191.769 114.298 188.024C114.961 185.957 115.788 184.051 116.344 182.564C116.646 181.667 117.127 178.537 118.086 178.193C118.325 178.11 118.978 178.335 119.074 178.187C119.325 176.552 119.686 174.904 120.207 173.241C122.875 170.852 124.564 167.542 127.374 165.196C129.961 162.957 133.563 161.077 134.268 160.206C135.571 158.94 137.762 158.07 139.474 158.009C141.21 157.911 142.485 158.232 143.521 158.521C145.555 159.132 146.945 159.821 147.855 160.104C151.856 161.647 153.554 164.014 155.087 165.764C155.77 166.599 156.652 167.375 157.34 168.085C157.265 168 156.904 167.319 155.127 167.14C154.129 167.086 153.345 167.636 152.915 168.068C152.462 168.512 152.234 168.844 151.732 168.816C151.964 169.003 152.198 169.188 152.433 169.371C152.337 169.372 152.249 169.342 152.161 169.3C152.016 168.839 151.75 168.421 151.865 168.032C152.001 167.633 152.355 166.425 152.567 165.989C152.68 165.772 153.2 165.991 153.25 165.763C153.336 165.367 152.743 164.372 152.824 163.802C152.904 163.292 153.649 162.439 153.6 161.983C153.452 160.364 152.562 158.646 153.131 156.188C153.152 156.08 153.176 155.972 153.202 155.864C153.472 154.16 155.839 152.157 156.356 151.872C157.298 151.056 157.335 150.3 158.085 149.879C161.591 148.225 164.215 149.8 165.534 150.467C165.754 150.592 165.963 150.704 166.158 150.79C170.054 152.508 173.596 154.64 176.39 157.031C178.17 158.538 181.014 160.911 182.099 162.586C182.333 162.946 181.744 163.451 182.004 163.68C182.293 163.935 182.791 163.68 182.95 163.763C183.417 164.006 184.102 164.381 184.728 164.744C184.479 164.522 184.087 164.229 183.45 163.997C182.8 163.753 181.905 163.667 181.183 163.797C179.695 164.092 179.261 164.638 179.05 164.807C178.7 165.188 178.954 165.033 179.144 164.985C179.286 164.947 179.865 165.142 179.908 165.057C179.931 165.013 179.614 164.733 179.647 164.573C179.946 163.104 180.653 161.882 181.439 160.197C182.032 158.914 182.515 157.443 183.047 155.894C183.181 155.464 183.316 154.894 183.555 154.079C183.939 153.236 183.675 152.248 186.071 149.866C186.556 149.367 188.137 148.826 188.816 148.673C190.46 148.464 191.974 148.637 193.205 148.955C194.31 149.244 194.654 150.585 194.786 150.603C195.081 150.657 195.481 149.933 196.123 149.919C197.145 149.9 198.17 150.295 199.123 150.737C199.254 150.773 199.611 150.965 199.737 151.017C200.799 151.685 201.706 152.406 202.602 152.739C203.454 153.055 205.025 152.899 205.862 153.22C206.531 153.469 207.588 154.744 208.088 154.564C208.397 154.458 208.984 153.815 209.224 153.86ZM192.674 160.299C191.423 159.691 192.083 161.177 192.932 161.044C193.123 161.014 192.999 160.457 192.674 160.299ZM158.598 173.563C158.938 173.766 159.28 173.967 159.624 174.164C159.644 174.008 159.653 173.862 159.66 173.714C159.639 173.562 159.615 173.411 159.589 173.262C159.325 173.245 159.064 173.223 158.803 173.197C158.801 173.2 158.8 173.203 158.798 173.207C158.735 173.327 158.673 173.438 158.598 173.563Z" fill="#FF5E14"/>
</g>
<g filter="url(#filter3_g_46_374)">
<path d="M241.345 171.687C241.544 171.738 241.382 172.29 241.515 172.445C242.062 173.091 242.04 173.546 242.473 174.171C243.079 175.105 246.19 176.523 244.158 179.482C244.158 179.482 244.158 179.482 244.158 179.483C244.137 179.511 244.116 179.541 244.095 179.57C243.69 180.124 243.006 180.559 242.52 181.167C242.034 181.774 239.162 185.887 238.611 185.84C237.825 185.74 237.257 183.707 236.938 183.525C236.713 183.4 236.186 183.565 235.877 183.421C234.881 182.955 234.675 182.342 233.136 182.641C233.278 181.897 233.436 181.163 233.605 180.437C233.05 180.344 233.123 179.249 232.892 179.108C232.852 179.083 232.8 179.077 232.741 179.082C232.527 179.101 232.227 179.266 232.082 179.165C231.874 179.022 231.945 178.347 231.541 178.118C230.88 177.743 229.936 178.716 229.505 178.594C229.062 178.471 228.963 177.483 228.27 177.584C228.134 177.67 227.999 177.758 227.866 177.847C227.716 178.15 227.564 178.451 227.41 178.751C227.131 178.751 227.428 178.125 227.257 178.002C227.058 177.859 226.628 178.362 226.514 178.292C226.48 178.272 226.475 178.194 226.476 178.099C226.454 177.913 226.454 177.674 226.359 177.648C226.154 177.594 225.866 178.293 225.74 178.389C225.718 178.408 225.544 178.463 225.564 178.59C225.562 178.714 225.827 178.886 225.865 178.892C226.448 179.003 226.62 177.975 227.151 177.802C228.003 177.533 228.688 177.15 228.993 177.127C229.388 177.014 229.548 177.222 229.598 177.493C229.637 177.727 229.451 178.005 229.165 178.304C226.928 176.745 224.461 177.511 228.553 178.339C227.841 178.592 228.788 179.292 228.465 179.708C228.252 179.991 227.639 180.048 227.515 180.542C227.304 181.408 228.608 182.848 225.693 182.357C225.901 183.594 224.601 184.295 226.978 185.428C227.044 185.779 225.328 186.132 225.021 186.414C224.753 186.677 223.218 189 222.973 189.417C222.769 189.824 222.39 190.566 222.411 191.032C222.447 191.591 224.593 193.326 221.35 192.593C220.933 193.714 220.563 194.072 219.472 194.713C219.266 194.831 218.918 194.516 218.828 194.605C218.643 194.785 218.544 195.35 218.155 195.702C217.507 196.282 216.565 195.657 217.407 196.912C216.999 197.441 216.513 197.948 215.946 198.413C215.62 198.219 215.321 198.008 215.034 197.786C214.798 198.178 214.522 198.564 214.215 198.935C214.233 196.77 212.225 198.238 212.986 199.427C211.714 199.051 210.695 198.478 209.824 197.837C209.805 197.822 209.787 197.806 209.768 197.791C210.419 195.429 208.098 197.044 207.791 198.339C207.698 198.307 207.606 198.274 207.514 198.24C206.935 197.347 206.066 197.578 205.398 196.802C204.752 196.029 204.942 195.845 205.19 194.706C204.983 194.68 204.776 194.653 204.569 194.625C202.256 196.959 204.824 192.212 202.241 193.572C202.662 191.586 201.023 191.897 200.022 192.07C199.905 192.09 199.736 192.431 199.572 192.481C199.172 192.599 198.678 191.833 198.198 192.963C198.112 192.534 198.021 192.107 197.922 191.681C197.643 191.805 197.369 191.935 197.105 192.071C196.967 192.428 196.829 192.785 196.691 193.142C196.807 191.785 196.064 192.059 195.904 191.689C195.869 191.613 196.008 191.102 195.874 190.915C195.718 190.693 195.313 190.755 195.12 190.551C194.919 191.107 194.737 191.669 194.575 192.236C194.237 192.504 194.304 190.963 194.091 190.829C194.045 190.796 193.433 190.916 193.42 190.961C193.202 191.252 193.437 192.525 193.025 192.355C192.998 192.346 192.956 192.294 192.907 192.23C193.151 191.976 193.243 191.682 193.359 191.59C193.781 191.228 194.312 192.092 195.097 192.674C194.035 192.087 193.927 193.265 193.471 193.41C193.329 193.454 192.645 193.119 192.349 193.342C192.107 193.525 192.328 194.443 192.067 194.737C191.79 195.042 191.154 194.883 191.031 195.025C190.916 195.16 191.303 195.534 191.19 195.747C190.829 196.407 189.765 196.631 189.448 197.154C188.988 197.908 189.854 199.408 189.906 200.524C189.7 200.646 189.31 200.629 189.173 200.811C187.555 203.021 184.307 205.709 180.605 206.219C180.474 206.239 180.324 206.25 180.161 206.251C176.736 206.472 175.029 203.709 174.772 207.096C173.841 207.501 171.46 204.867 171.098 204.611C170.631 204.342 169.965 204.685 169.603 204.495C168.511 203.919 168.02 203.115 166.556 202.897C166.179 202.843 165.491 203.296 165.317 203.188C165.111 203.056 165.23 202.308 164.978 202.115C164.714 201.916 164.315 201.717 163.907 201.525C163.186 201.173 162.525 200.828 162.156 200.524C162.038 200.425 162.316 199.864 162.236 199.586C161.932 198.505 161.177 198.107 160.248 199.876C160.01 198.393 158.738 198.817 158.027 198.475C156.527 197.652 154.271 196.374 154.26 197.348C154.214 197.867 154.526 198.805 154.91 197.862C154.968 197.671 154.973 197.433 154.938 197.23C154.989 197.179 155.039 197.128 155.087 197.076C155.875 196.233 155.681 195.377 155.47 195.315C155.264 195.218 155.176 195.586 155.864 196.443C155.599 196.693 155.346 197.027 155.066 197.385C154.904 197.262 154.637 197.573 153.289 197.559C153.652 197.755 154.018 197.948 154.385 198.138C154.365 198.229 154.345 198.325 154.325 198.425C153.945 198.339 153.564 198.255 153.182 198.174C152.853 198.893 154.166 200.287 154.014 200.964C153.734 202.092 152.623 205.219 151.967 206.396C151.613 207.009 152.438 207.138 150.693 207.325C150.795 207.487 150.897 207.644 151 207.804C151.363 207.936 151.726 208.067 152.09 208.197C152.017 209.037 151.346 209.98 151.286 210.789C151.175 212.267 152.073 214.528 151.342 215.972C151.156 216.335 150.367 216.775 150.365 217.14C150.362 217.673 151.641 217.836 151.652 218.499C151.665 219.642 150.176 221.784 150.322 222.876C150.363 223.194 150.845 223.332 150.903 223.551C151.152 224.458 151.15 225.221 151.944 226.025C150.782 227.024 149.2 227.087 147.629 227.521C146.443 227.849 143.732 228.876 142.694 229.108C141.963 229.269 140.98 229.083 140.178 229.281C139.384 227.991 140.062 227.348 141.145 226.235C140.981 224.296 140.892 222.401 140.847 220.504C141.294 220.333 141.741 220.162 142.189 219.994C142.19 219.994 142.191 219.994 142.192 219.994C142.711 219.277 141.565 218.967 141.31 218.569C138.832 214.758 141.284 207.443 142.187 203.395C142.354 202.53 142.261 199.481 143.119 198.993C143.337 198.868 144.021 198.964 144.086 198.802C144.015 197.195 143.97 195.584 144.259 193.66C144.651 193.131 145.041 192.532 145.512 191.877C145.739 191.691 145.97 191.259 146.37 190.5C146.762 189.781 147.473 188.471 148.956 187.495C150.858 186.126 153.51 185.476 155.605 185.678C162.398 186.573 166.05 189.933 169.379 191.402C172.795 193.08 176.188 195.194 178.214 195.989C178.419 196.071 178.612 196.082 178.64 196.038C178.671 196.002 178.494 195.883 177.971 195.944C178.13 195.844 178.245 195.78 178.485 195.818C178.69 195.861 179.456 196.691 179.253 195.793C179.448 196.019 179.642 196.245 179.838 196.47C179.922 195.923 179.61 195.276 179.874 194.865C180.099 194.541 180.799 193.452 181.146 193.072C181.323 192.886 181.754 193.252 181.875 193.039C182.082 192.672 181.847 191.492 182.135 190.926C182.395 190.422 183.428 189.786 183.574 189.292C183.826 188.451 183.971 187.483 184.412 186.3C185.008 185.18 185.096 183.487 188.964 181.742C189.11 181.694 189.256 181.652 189.402 181.614C190.33 181.365 191.61 181.868 191.857 181.819C192.366 181.705 192.455 180.996 192.819 180.878C194.746 180.25 197.244 181.526 198.507 181.956C202.837 183.361 206.159 185.143 208.823 186.526C209.834 187.074 211.226 187.629 212.032 187.888C212.393 188.023 212.412 188.093 212.439 188.301C212.455 188.415 212.672 189.154 212.72 189.137C212.78 189.115 212.574 188.635 212.559 188.596C212.521 188.445 212.497 188.24 212.673 187.859C212.843 187.49 213.148 186.956 213.571 186.693C213.731 186.599 214.328 186.742 214.371 186.644C214.393 186.595 214.068 186.317 214.095 186.148C214.33 184.638 214.922 183.521 215.543 181.848C217.011 178.561 215.858 174.796 220.568 169.087C220.695 168.966 220.823 168.85 220.961 168.733C222.445 167.446 224.514 168.054 224.686 168.005C225.248 167.837 225.542 166.9 226.883 166.728C229.246 166.508 230.912 167.518 231.949 168.174C233.025 168.861 233.873 169.562 234.717 169.942C235.594 170.335 237.218 170.332 238.049 170.743C238.397 170.913 238.836 171.376 239.239 171.76C239.61 172.112 239.934 172.378 240.177 172.31C240.486 172.226 241.125 171.636 241.345 171.687ZM226.725 180.888C225.417 180.414 226.227 181.832 227.058 181.607C227.245 181.558 227.065 181.008 226.725 180.888ZM184.831 202.01C185.102 202.299 185.374 202.587 185.646 202.874C185.703 202.605 185.75 202.338 185.786 202.075C185.537 201.984 185.29 201.89 185.046 201.79C184.975 201.864 184.904 201.938 184.831 202.01Z" fill="#FF5E14"/>
</g>
<defs>
<filter id="filter0_g_46_374" x="0.55624" y="0.793789" width="334.813" height="326.693" filterUnits="userSpaceOnUse" color-interpolation-filters="sRGB">
<feFlood flood-opacity="0" result="BackgroundImageFix"/>
<feBlend mode="normal" in="SourceGraphic" in2="BackgroundImageFix" result="shape"/>
<feTurbulence type="fractalNoise" baseFrequency="1.0101009607315063 1.0101009607315063" numOctaves="3" seed="6669" />
<feDisplacementMap in="shape" scale="3.1800000667572021" xChannelSelector="R" yChannelSelector="G" result="displacedImage" width="100%" height="100%" />
<feMerge result="effect1_texture_46_374">
<feMergeNode in="displacedImage"/>
</feMerge>
</filter>
<filter id="filter1_g_46_374" x="86.5403" y="109.334" width="106.077" height="76.5332" filterUnits="userSpaceOnUse" color-interpolation-filters="sRGB">
<feFlood flood-opacity="0" result="BackgroundImageFix"/>
<feBlend mode="normal" in="SourceGraphic" in2="BackgroundImageFix" result="shape"/>
<feTurbulence type="fractalNoise" baseFrequency="1 1" numOctaves="3" seed="6724" />
<feDisplacementMap in="shape" scale="2" xChannelSelector="R" yChannelSelector="G" result="displacedImage" width="100%" height="100%" />
<feMerge result="effect1_texture_46_374">
<feMergeNode in="displacedImage"/>
</feMerge>
</filter>
<filter id="filter2_g_46_374" x="112.356" y="147.582" width="102.272" height="64.0049" filterUnits="userSpaceOnUse" color-interpolation-filters="sRGB">
<feFlood flood-opacity="0" result="BackgroundImageFix"/>
<feBlend mode="normal" in="SourceGraphic" in2="BackgroundImageFix" result="shape"/>
<feTurbulence type="fractalNoise" baseFrequency="1 1" numOctaves="3" seed="6724" />
<feDisplacementMap in="shape" scale="2" xChannelSelector="R" yChannelSelector="G" result="displacedImage" width="100%" height="100%" />
<feMerge result="effect1_texture_46_374">
<feMergeNode in="displacedImage"/>
</feMerge>
</filter>
<filter id="filter3_g_46_374" x="138.832" y="165.697" width="107.006" height="64.584" filterUnits="userSpaceOnUse" color-interpolation-filters="sRGB">
<feFlood flood-opacity="0" result="BackgroundImageFix"/>
<feBlend mode="normal" in="SourceGraphic" in2="BackgroundImageFix" result="shape"/>
<feTurbulence type="fractalNoise" baseFrequency="1 1" numOctaves="3" seed="6724" />
<feDisplacementMap in="shape" scale="2" xChannelSelector="R" yChannelSelector="G" result="displacedImage" width="100%" height="100%" />
<feMerge result="effect1_texture_46_374">
<feMergeNode in="displacedImage"/>
</feMerge>
</filter>
</defs>
</svg>
