<svg width="35" height="33" viewBox="0 0 35 33" fill="none" xmlns="http://www.w3.org/2000/svg">
<path d="M34.1908 13.3038C34.258 13.318 34.0812 13.5201 34.1022 13.576C34.1878 13.8115 34.0886 13.9864 34.1263 14.2261C34.1822 14.5815 35.0046 15.1964 33.5074 16.1996C33.5073 16.1996 33.5073 16.1996 33.5073 16.1997C33.4926 16.2095 33.4777 16.2194 33.4626 16.2293C33.1754 16.4176 32.8182 16.5578 32.4888 16.7638C32.1593 16.9698 30.0811 18.3733 29.8989 18.3546C29.6501 18.317 29.9577 17.621 29.8837 17.5617C29.8329 17.5212 29.6011 17.5849 29.5235 17.5417C29.2731 17.4024 29.3373 17.1988 28.695 17.3526C28.9149 17.0946 29.1349 16.8365 29.3548 16.5785C29.1624 16.5631 29.4187 16.1726 29.3585 16.1252C29.309 16.0864 29.0752 16.201 29.0305 16.1559C28.9792 16.1062 29.1509 15.862 29.0453 15.7798C28.8733 15.6442 28.2934 15.9882 28.1528 15.9319C28.0373 15.8855 28.1339 15.6427 28.0349 15.5413L28.0985 15.6314C28.0823 15.6209 28.0404 15.6035 27.982 15.6075C27.9092 15.634 27.8421 15.668 27.7706 15.6961C27.6452 15.808 27.5191 15.919 27.3923 16.029C27.2864 16.0179 27.5412 15.7858 27.5001 15.7214C27.4586 15.6543 27.1692 15.8115 27.1382 15.7686C27.111 15.7305 27.2789 15.5207 27.2292 15.4832C27.156 15.4251 26.8697 15.6708 26.7859 15.6776C26.7541 15.6808 26.3713 15.5283 26.3589 15.5179C26.2546 15.4094 26.6506 15.0789 26.611 14.9565C26.498 14.6165 25.9569 14.6104 25.6413 14.4751C25.4985 14.4125 25.4329 14.2867 25.4081 14.1286C26.5599 13.4484 27.0354 12.417 25.571 13.8845C25.6971 13.578 25.2029 13.8571 25.1817 13.6873C25.1682 13.577 25.3443 13.3424 25.2514 13.2466C25.0848 13.0774 24.3104 13.431 25.3635 12.4017C24.9872 12.3693 25.2178 11.8317 24.1987 12.6426C24.095 12.6471 24.5403 11.9906 24.5623 11.8612C24.5847 11.7385 24.4428 11.0911 24.3892 11.013C24.3387 10.9351 24.238 10.8072 24.1052 10.8379C23.9364 10.8715 22.9744 11.8147 23.927 10.5509C23.6984 10.5143 23.682 10.4395 23.6711 10.1885C23.67 10.1602 23.7285 10.0785 23.7686 10.0186C23.7916 9.98271 23.8082 9.9545 23.8022 9.94927C23.7684 9.92055 23.5993 10.0036 23.5257 9.96889C23.4048 9.91176 23.6651 9.48785 23.1918 10.0716C23.0456 10.1131 22.8995 10.1548 22.7535 10.1967C22.8239 10.0665 22.8942 9.93622 22.9645 9.8059C22.8283 9.89797 22.6918 9.98986 22.5557 10.0821C23.2936 9.28167 22.6362 9.56909 22.3172 10.1153C22.3347 9.83721 22.3514 9.55898 22.367 9.28043C23.1707 8.34124 22.1761 8.93902 21.7764 9.48029C21.7624 9.46758 21.7484 9.45489 21.7345 9.44221C21.8147 9.08361 21.5276 9.19622 21.5097 8.89815C21.4921 8.60037 21.5817 8.51824 21.8903 8.03692C21.8326 8.03226 21.7751 8.0278 21.7176 8.02336C20.548 9.08298 22.2677 7.00309 21.186 7.67035C21.6871 6.81769 21.0997 7.00947 20.7404 7.10559C20.6986 7.11671 20.5812 7.26618 20.5179 7.29112C20.3642 7.34983 20.3442 7.02474 19.9735 7.51328C20.0231 7.32714 20.0734 7.14168 20.1224 6.95534C20.0056 7.00592 19.8891 7.05691 19.7731 7.10829C19.6566 7.26013 19.54 7.41196 19.4235 7.56379C19.7241 6.97182 19.418 7.05317 19.4376 6.87194C19.4419 6.83541 19.5989 6.6231 19.5953 6.52979C19.592 6.41974 19.4427 6.40436 19.4267 6.2888C19.2246 6.50259 19.0231 6.71689 18.8213 6.93099C18.6088 6.96927 19.0334 6.32267 18.9998 6.22238C18.9939 6.20476 18.7339 6.0794 18.7122 6.08393C18.5334 6.11374 18.1699 6.66239 17.9665 6.33687C17.9305 6.27866 18.0243 6.06511 17.9828 6.02332C17.943 5.98264 17.7532 6.0365 17.5436 6.15844C17.3744 6.25427 17.1966 6.39639 17.0648 6.56229C17.3162 6.00651 16.9602 6.05534 17.0118 5.88452C17.0255 5.83015 17.2293 5.5088 17.2226 5.40877C17.2132 5.32445 16.9753 5.53823 16.979 5.48356C16.9787 5.42093 17.1079 5.12901 17.1036 5.10214C17.0994 5.07723 16.9894 5.3107 16.986 5.30777C16.983 5.29666 17.0975 4.89802 17.0831 4.88708C17.0555 4.87261 17.0796 5.6433 17.2156 5.96776C17.2267 5.91614 17.2089 5.75278 17.2164 5.74972C17.3327 5.68214 16.934 5.68108 16.511 5.7954C16.3289 5.82641 15.2345 5.38191 16.4477 6.62409C16.5343 6.79653 16.2428 6.78025 15.9725 6.77988C15.8131 6.77519 15.6623 6.77444 15.6279 6.80041C15.5385 6.86773 15.685 7.15449 15.623 7.2187C15.4396 7.40894 15.1454 7.38121 15.0938 7.81065C15.0826 7.92085 15.2758 8.24665 15.2365 8.27987C15.1885 8.31935 14.8891 8.11643 14.817 8.15712C14.6448 8.25787 14.4759 8.59842 14.2999 8.69309C14.2677 8.70919 14.0346 8.50162 13.9302 8.46966C13.5221 8.34473 13.3932 8.529 14.1435 9.18494C13.5644 8.97417 13.781 9.4972 13.6482 9.68641C13.3649 10.0844 12.5896 10.5919 12.6145 11.1921C12.6301 11.5703 12.9685 11.8616 12.4159 11.9032C12.293 11.9129 12.1474 11.9033 12.0003 11.9157C11.6543 11.9447 10.8786 11.5772 11.499 12.3777C11.1182 12.4207 11.1098 12.7084 10.3299 12.3092C10.4673 12.4619 10.6048 12.6146 10.7423 12.7673C10.7231 12.797 10.7042 12.8265 10.6854 12.8557C10.5316 12.7362 10.3777 12.6168 10.2238 12.4973C10.0214 12.6503 10.4177 13.414 10.2764 13.5686C10.038 13.8304 9.20948 14.3189 8.79074 14.4055C8.56881 14.4507 8.87943 14.7285 8.16136 14.2508C8.18062 14.32 8.19988 14.3892 8.21913 14.4585C8.34545 14.5993 8.47196 14.7399 8.5985 14.8805C8.45628 15.059 8.05651 15.0794 7.91781 15.2473C7.66401 15.5553 7.66993 16.3468 7.15276 16.4337C7.02259 16.4553 6.64564 16.3024 6.58548 16.3804C6.49759 16.4937 6.96546 16.9343 6.85717 17.0812C6.66957 17.3337 5.72263 17.3006 5.57481 17.5647C5.53057 17.6429 5.68667 17.8282 5.66689 17.8913C5.58606 18.1573 5.43609 18.3053 5.56044 18.7306C4.92043 18.5361 4.32769 18.0078 3.66229 17.5547C3.15992 17.2129 1.96579 16.4564 1.54334 16.1362C1.24655 15.9112 0.925923 15.5491 0.595569 15.3059C0.54867 14.8538 0.909462 14.984 1.51533 15.1585C1.80283 14.7811 2.09034 14.404 2.37872 14.0262C2.57741 14.1372 2.77608 14.2482 2.97473 14.3593C2.9751 14.3596 2.97548 14.3599 2.97585 14.3603C3.29027 14.3874 2.90005 13.9575 2.8637 13.7979C2.51438 12.2714 4.46191 11.487 5.2471 10.7885C5.4149 10.6384 5.66227 9.88883 6.03914 10.008C6.1368 10.0395 6.40488 10.2563 6.44391 10.2341C6.53522 9.81483 6.62884 9.39415 6.72555 8.9715C7.64254 8.73467 7.8444 7.83719 8.3137 7.19121C9.49029 5.58495 10.6177 3.97614 12.2427 2.55425C12.3941 2.42362 12.5406 2.30349 12.7023 2.17816C13.0746 1.88951 13.4388 1.28566 14.0268 1.12099C14.2725 1.05343 14.6132 1.49126 14.7257 0.970546C14.7957 1.10221 14.8655 1.23399 14.9351 1.36587C15.1094 1.08049 15.1609 0.681715 15.5431 0.517485C15.8302 0.362176 16.9189 0.167353 17.3132 0.279386C17.5096 0.320195 17.4144 0.592305 17.5844 0.608701C17.8656 0.62546 18.5844 0.41007 18.9281 0.560762C19.255 0.690303 19.5055 1.19651 19.6768 1.24889C20.1199 1.38725 20.5836 1.41207 20.9245 1.52015C21.0846 1.57058 21.229 1.64986 21.3321 1.7769C21.4215 1.88766 21.347 2.28229 21.3866 2.29919C21.4655 2.33176 21.6962 2.0661 21.7676 2.06309C22.1328 2.05102 22.2365 2.65178 22.4468 2.83326C23.1341 3.42514 23.9822 3.89536 24.6444 4.51089C25.0629 4.89826 25.8341 5.45125 26.0674 5.99159C26.1176 6.10794 25.8475 6.38315 25.92 6.44397C26.0005 6.51144 26.2112 6.3494 26.2623 6.365C26.3855 6.40216 26.5553 6.46066 26.7281 6.53953C27.1031 6.7292 27.4655 6.99738 27.5134 7.28425C27.527 7.36794 27.3522 7.61807 27.3814 7.64496C27.3957 7.6589 27.5725 7.54409 27.6325 7.5737C28.1616 7.83502 28.3534 8.21027 28.6592 8.64555C29.2432 9.47621 30.275 10.1006 30.765 11.0379C30.8705 11.2402 30.5007 11.7325 30.5247 11.7529C30.5779 11.8004 30.9184 11.5847 31.0827 11.6331C31.5853 11.7893 31.6555 12.4218 32.0089 12.7384C32.0261 12.7542 32.0595 12.8171 32.076 12.8337C32.105 12.861 32.1365 12.8854 32.1711 12.9061C32.3704 13.0258 32.954 12.9829 33.1627 13.0923C33.3295 13.1796 33.3812 13.6152 33.6075 13.5518C33.7445 13.5137 34.116 13.2896 34.1908 13.3038ZM25.4111 12.9206C25.9514 12.4857 25.3251 12.6451 25.1184 12.9733C25.0716 13.0469 25.2708 13.0334 25.4111 12.9206ZM16.6303 4.68659C16.7181 4.86399 16.8056 5.04149 16.8928 5.21921C16.875 5.13634 16.8583 5.05331 16.8429 4.97004C16.7846 4.86576 16.7239 4.76262 16.661 4.66066C16.651 4.66909 16.6406 4.67782 16.6303 4.68659Z" fill="#5B5B5B"/>
<path d="M32.7414 24.2623C32.7947 24.2128 32.8789 24.47 32.9439 24.4821C33.2168 24.5353 33.3184 24.713 33.5655 24.8104C33.9269 24.9532 35.0013 24.6065 35 26.4102C35 26.4102 35 26.4102 35 26.4103C35 26.428 34.9999 26.4458 34.9997 26.4639C34.9958 26.8072 34.9068 27.1821 34.8944 27.5704C34.882 27.9589 34.8944 30.4665 34.7752 30.6078C34.6037 30.7938 34.1784 30.1545 34.0854 30.1845C34.0213 30.2049 33.9456 30.4339 33.8649 30.4756C33.6067 30.6102 33.462 30.4464 33.243 31.0709C33.1408 30.747 33.0376 30.4232 32.9337 30.0996C32.8151 30.2541 32.6126 29.8297 32.5376 29.8559C32.4762 29.8774 32.4486 30.1366 32.3849 30.1508C32.3135 30.1681 32.1911 29.8938 32.061 29.9407C31.8487 30.0165 31.836 30.691 31.7119 30.7818C31.584 30.8759 31.3575 30.5199 31.1995 30.7649C31.1819 30.8399 31.1645 30.915 31.1469 30.99C31.1705 31.1565 31.1939 31.323 31.2173 31.4895C31.1367 31.5716 31.0818 31.2307 31.0031 31.2286C30.9102 31.2259 30.8807 31.5533 30.8192 31.5552C30.7692 31.5563 30.6848 31.2997 30.6198 31.3197C30.5248 31.3476 30.5674 31.7226 30.52 31.7959C30.5018 31.8242 30.1335 32.0546 30.1131 32.059C29.9526 32.084 29.9037 31.5705 29.7704 31.534C29.3996 31.435 29.0563 31.8774 28.7334 32.0599C28.5896 32.1415 28.4307 32.1238 28.2748 32.0536C28.4068 30.7191 27.7991 29.7374 28.1617 31.78C27.9699 31.5008 27.8981 32.0661 27.7317 31.9855C27.6235 31.9329 27.5287 31.6535 27.3826 31.6736C27.1219 31.7113 26.9092 32.5475 26.7029 31.0889C26.4174 31.3749 26.1002 30.8683 26.109 32.1717C26.0365 32.2581 25.7601 31.5069 25.6609 31.4106C25.5659 31.32 24.8803 31.0333 24.7697 31.0239C24.6621 31.0143 24.4686 31.0109 24.3895 31.1326C24.2877 31.2835 24.3288 32.6323 23.9823 31.0823C23.756 31.2304 23.6651 31.1932 23.4279 31.0298C23.3844 31.0003 23.3601 30.7677 23.3365 30.7695C23.2914 30.7733 23.2296 30.927 23.1538 30.9721C23.1473 30.9758 23.1407 30.9788 23.134 30.9809C22.9862 31.0275 22.8653 30.5428 22.9373 31.291C22.847 31.424 22.7557 31.5566 22.6636 31.6888C22.619 31.5463 22.5749 31.4038 22.5313 31.2612C22.4881 31.4222 22.4442 31.5831 22.3997 31.7439C22.4001 30.6552 22.0658 31.3155 22.2174 31.9322C22.0115 31.7176 21.8096 31.5011 21.6116 31.2831C21.5943 30.0477 21.1956 31.1536 21.2462 31.8239C21.2242 31.8235 21.2021 31.8231 21.1801 31.8227C20.9817 31.4989 20.8111 31.7708 20.576 31.5529C20.3425 31.3346 20.3636 31.2137 20.2922 30.6457C20.2395 30.6785 20.1851 30.7112 20.132 30.7438C19.8462 32.3015 19.9087 29.6051 19.4212 30.7944C19.283 29.8133 18.9058 30.3201 18.6453 30.6088C18.6151 30.6424 18.6086 30.8324 18.5681 30.8897C18.4686 31.0277 18.2347 30.7744 18.2185 31.3873C18.1421 31.2068 18.0621 31.0258 17.9882 30.845C17.9128 30.9532 17.841 31.0614 17.7648 31.1693C17.7557 31.3605 17.7466 31.5517 17.7376 31.7429C17.631 31.0846 17.3964 31.3227 17.2947 31.1601C17.2749 31.1272 17.2882 30.8635 17.2234 30.7872C17.1511 30.697 16.9997 30.765 16.9028 30.6746C16.8789 30.7809 16.8557 30.8873 16.8328 30.9937C15.7696 30.7072 14.73 29.9611 14.9729 28.8871C14.7894 28.8576 14.6059 28.8282 14.4224 28.7987C14.2705 28.6334 15.0442 28.6099 15.108 28.5192C15.1191 28.5029 15.0765 28.1945 15.0607 28.1773C14.9358 28.0369 14.2771 28.0477 14.4341 27.6632C14.4625 27.5947 14.6922 27.548 14.704 27.4855C14.7251 27.3752 14.2234 27.0192 13.748 26.973C14.35 26.8633 14.1212 26.4928 14.298 26.3939C14.3523 26.3641 14.7325 26.3728 14.8175 26.2777C14.8867 26.2007 14.5911 25.9824 14.6463 25.8834C14.7062 25.7782 15.0269 25.7532 15.0515 25.706C15.0744 25.6614 14.8185 25.6087 14.8226 25.5468C14.8396 25.3537 15.2616 25.1959 15.2756 25.0433C15.2968 24.8227 14.5423 24.5955 14.2113 24.3963C14.2627 24.3525 14.4283 24.3142 14.4318 24.2661C14.4807 23.6715 14.6492 23.0055 14.8375 22.415C14.9241 22.1408 15.9882 21.4944 14.2531 21.6063C14.0897 21.5467 14.233 21.3186 14.3989 21.1025L14.3964 21.2246C14.5261 21.0402 14.6717 20.8633 14.6764 20.8028C14.6868 20.6695 14.3768 20.5637 14.3722 20.4589C14.3587 20.1425 14.5821 19.9198 14.3122 19.5347C14.2416 19.4352 13.8743 19.3287 13.8786 19.2698C13.8846 19.1988 14.2398 19.1225 14.2624 19.0306C14.3134 18.8115 14.1965 18.4032 14.258 18.1931C14.27 18.1547 14.5819 18.1412 14.6794 18.0863C15.0603 17.8726 15.0272 17.633 14.0314 17.6754C14.5968 17.4015 14.0811 17.148 14.0495 16.8942C13.985 16.3574 14.2174 15.3796 13.799 14.912C13.535 14.6171 13.0884 14.6246 13.4738 14.1905C13.5593 14.0942 13.6746 13.9982 13.7765 13.8813C13.8231 13.8282 13.8916 13.7759 13.9647 13.7246C14.2681 13.5115 14.6487 13.3155 13.8473 13.1472C14.1052 12.8429 13.9223 12.6006 14.7726 12.3748C14.5687 12.3482 14.3648 12.3216 14.1608 12.295C14.1558 12.2577 14.1507 12.2204 14.1457 12.1831C14.3402 12.1714 14.5347 12.1598 14.7292 12.1482C14.7816 11.8809 13.9821 11.5419 13.988 11.3157C13.997 10.9364 14.3075 9.9595 14.57 9.59985C14.7094 9.40892 14.2928 9.39864 15.1491 9.28933C15.0895 9.24662 15.03 9.20392 14.9704 9.16121C14.7829 9.13449 14.5954 9.10776 14.4079 9.08104C14.4004 8.83608 14.6916 8.54553 14.6887 8.31217C14.6827 7.88693 14.1666 7.24839 14.5055 6.82136C14.591 6.71429 14.9777 6.58045 14.9733 6.4756C14.9673 6.32299 14.3257 6.2859 14.3137 6.09225C14.2942 5.75848 15.0396 5.1369 14.9826 4.82143C14.9661 4.72773 14.7273 4.68402 14.7018 4.61932C14.5924 4.34802 14.6118 4.12529 14.2429 3.86515C14.8578 3.58583 15.6515 3.60996 16.4523 3.52339C17.0568 3.45779 18.4576 3.25663 18.987 3.22807C19.3589 3.20801 19.8374 3.28291 20.2468 3.2548C20.5737 3.58945 20.2138 3.73004 19.6379 4.00178C19.6608 4.50362 19.6838 5.00545 19.7067 5.50729C19.4833 5.55294 19.2598 5.5986 19.0363 5.64426C19.0358 5.64426 19.0353 5.64426 19.0349 5.64426C18.777 5.83698 19.3525 5.91866 19.4831 6.02259C20.7339 7.01764 19.7549 8.97612 19.614 10.0716C19.584 10.3076 19.8851 11.0755 19.5222 11.2375C19.4276 11.2794 19.0831 11.2911 19.0681 11.3357C19.273 11.7343 19.4779 12.1329 19.6828 12.5315C19.426 12.9246 19.3941 13.3242 19.4395 13.7246C19.4888 14.1591 19.6291 14.5947 19.6721 15.0245C19.8805 17.1085 20.1307 19.173 20.0966 21.2246C20.1008 21.2474 20.091 21.3174 20.0942 21.3403C20.0856 21.4884 20.0754 21.6364 20.0637 21.7842C20.0295 22.208 20.2649 22.7573 20.0813 23.1659C20.0051 23.3364 19.4492 23.3856 19.8517 23.6306C19.7027 23.6268 19.5536 23.6229 19.4045 23.6191C19.5761 23.8254 19.9097 23.9666 19.9349 24.191C19.9555 24.3798 19.9569 24.8773 19.893 25.0408C19.861 25.1257 19.584 25.082 19.582 25.1623C19.5808 25.2998 19.9533 25.6092 19.9454 25.7987C19.9383 25.9703 19.6056 26.2463 19.6465 26.3802C19.7915 26.8623 20.2451 27.3998 20.0966 27.901C20.0548 28.0394 19.6863 28.2042 19.6946 28.2485C19.712 28.3349 20.0615 28.3751 20.1042 28.4344C20.2405 28.6251 20.1164 28.8703 19.9995 29.097L17.2475 25.9798C17.332 26.0494 17.4568 26.1181 17.5471 26.1299C18.401 26.2372 19.345 26.1103 20.2092 26.1724C20.76 26.2138 21.6552 26.1264 22.1637 26.3579C22.2738 26.4084 22.2693 26.7938 22.3602 26.788C22.461 26.7813 22.497 26.5183 22.5416 26.4941C22.6063 26.4587 22.6869 26.4169 22.7763 26.3746C23.14 26.2122 23.6574 26.0443 23.9372 26.2296C24.0036 26.2747 24.0765 26.5704 24.1139 26.5659C24.1329 26.5641 24.1568 26.3555 24.2149 26.329C24.7239 26.095 25.1219 26.1778 25.6509 26.1998C26.6626 26.2402 27.8071 25.7572 28.8943 25.8886C29.1303 25.917 29.3317 26.5008 29.3629 26.4927C29.4336 26.476 29.4529 26.0731 29.5934 25.9649C30.0593 25.6088 30.7404 25.9994 31.1936 25.7776C31.4182 25.6679 31.7144 25.1463 31.9374 25.0254C32.1175 24.9282 32.5526 25.1137 32.6283 24.8883C32.6733 24.752 32.6836 24.3182 32.7414 24.2623ZM27.1964 31.3541C27.1668 30.6611 26.8951 31.263 27.0489 31.6229C27.0834 31.7039 27.2039 31.5339 27.1964 31.3541ZM15.6774 23.5197C15.4795 23.5144 15.2817 23.5092 15.0838 23.5039C15.1643 23.5504 15.2448 23.5969 15.3253 23.6434C15.4451 23.6241 15.565 23.6049 15.6849 23.5857C15.6824 23.5637 15.6799 23.5417 15.6774 23.5197Z" fill="#5B5B5B"/>
</svg>
