<svg width="176" height="33" viewBox="0 0 176 33" fill="none" xmlns="http://www.w3.org/2000/svg">
<path d="M0.32 12V0.799999H5.984C6.624 0.799999 7.20533 0.954666 7.728 1.264C8.26133 1.56267 8.68267 1.97333 8.992 2.496C9.312 3.01867 9.472 3.6 9.472 4.24C9.472 4.90133 9.30667 5.49867 8.976 6.032C8.64533 6.56533 8.20267 6.99733 7.648 7.328C7.09333 7.648 6.48 7.808 5.808 7.808H2.048V12H0.32ZM2.048 6.144H5.712C6.064 6.144 6.38933 6.05867 6.688 5.888C6.98667 5.70667 7.22133 5.472 7.392 5.184C7.57333 4.896 7.664 4.58133 7.664 4.24C7.664 3.90933 7.57333 3.61067 7.392 3.344C7.22133 3.07733 6.98667 2.864 6.688 2.704C6.38933 2.544 6.064 2.464 5.712 2.464H2.048V6.144ZM25.0956 12.16C24.1996 12.16 23.373 12.016 22.6156 11.728C21.869 11.4293 21.213 11.0187 20.6476 10.496C20.093 9.97333 19.661 9.36533 19.3516 8.672C19.053 7.968 18.9036 7.21067 18.9036 6.4C18.9036 5.58933 19.053 4.83733 19.3516 4.144C19.661 3.44 20.093 2.82667 20.6476 2.304C21.213 1.78133 21.869 1.376 22.6156 1.088C23.373 0.789333 24.1996 0.639999 25.0956 0.639999C26.0023 0.639999 26.829 0.783999 27.5756 1.072C28.333 1.36 28.989 1.77067 29.5436 2.304C30.109 2.82667 30.541 3.44 30.8396 4.144C31.149 4.83733 31.3036 5.58933 31.3036 6.4C31.3036 7.21067 31.149 7.968 30.8396 8.672C30.541 9.36533 30.109 9.97867 29.5436 10.512C28.989 11.0347 28.333 11.44 27.5756 11.728C26.829 12.016 26.0023 12.16 25.0956 12.16ZM25.1116 10.48C25.7623 10.48 26.3543 10.3787 26.8876 10.176C27.4316 9.96267 27.901 9.67467 28.2956 9.312C28.6903 8.93867 28.9943 8.50667 29.2076 8.016C29.4316 7.51467 29.5436 6.976 29.5436 6.4C29.5436 5.824 29.4316 5.29067 29.2076 4.8C28.9943 4.29867 28.6903 3.86667 28.2956 3.504C27.901 3.13067 27.4316 2.84267 26.8876 2.64C26.3436 2.42667 25.7516 2.32 25.1116 2.32C24.461 2.32 23.8636 2.42667 23.3196 2.64C22.7756 2.84267 22.301 3.12533 21.8956 3.488C21.501 3.85067 21.197 4.28267 20.9836 4.784C20.7703 5.27467 20.6636 5.81333 20.6636 6.4C20.6636 6.976 20.7703 7.51467 20.9836 8.016C21.197 8.51733 21.501 8.94933 21.8956 9.312C22.301 9.67467 22.7756 9.96267 23.3196 10.176C23.8636 10.3787 24.461 10.48 25.1116 10.48ZM41.5106 12V0.799999H47.2706C47.9213 0.799999 48.5186 0.954666 49.0626 1.264C49.6066 1.57333 50.044 1.99467 50.3746 2.528C50.7053 3.05067 50.8706 3.64267 50.8706 4.304C50.8706 4.944 50.6946 5.536 50.3426 6.08C50.0013 6.61333 49.5426 7.04 48.9666 7.36C48.4013 7.68 47.7773 7.84 47.0946 7.84H43.2386V12H41.5106ZM49.3026 12L45.9106 6.944L47.7186 6.544L51.4306 12.016L49.3026 12ZM43.2386 6.176H47.0786C47.4413 6.176 47.772 6.09067 48.0706 5.92C48.3693 5.74933 48.6093 5.52 48.7906 5.232C48.972 4.944 49.0626 4.62933 49.0626 4.288C49.0626 3.936 48.9613 3.62667 48.7586 3.36C48.5666 3.08267 48.3053 2.864 47.9746 2.704C47.644 2.544 47.276 2.464 46.8706 2.464H43.2386V6.176ZM64.1433 12V2.464H60.3673V0.799999H69.7273V2.464H65.8713V12H64.1433ZM79.5762 12V0.799999H81.3042V12H79.5762ZM80.2322 7.328V5.664H87.1922V7.328H80.2322ZM80.3602 2.464V0.799999H87.9122V2.464H80.3602ZM103.461 12.16C102.565 12.16 101.739 12.016 100.981 11.728C100.235 11.4293 99.5786 11.0187 99.0133 10.496C98.4586 9.97333 98.0266 9.36533 97.7173 8.672C97.4186 7.968 97.2693 7.21067 97.2693 6.4C97.2693 5.58933 97.4186 4.83733 97.7173 4.144C98.0266 3.44 98.4586 2.82667 99.0133 2.304C99.5786 1.78133 100.235 1.376 100.981 1.088C101.739 0.789333 102.565 0.639999 103.461 0.639999C104.368 0.639999 105.195 0.783999 105.941 1.072C106.699 1.36 107.355 1.77067 107.909 2.304C108.475 2.82667 108.907 3.44 109.205 4.144C109.515 4.83733 109.669 5.58933 109.669 6.4C109.669 7.21067 109.515 7.968 109.205 8.672C108.907 9.36533 108.475 9.97867 107.909 10.512C107.355 11.0347 106.699 11.44 105.941 11.728C105.195 12.016 104.368 12.16 103.461 12.16ZM103.477 10.48C104.128 10.48 104.72 10.3787 105.253 10.176C105.797 9.96267 106.267 9.67467 106.661 9.312C107.056 8.93867 107.36 8.50667 107.573 8.016C107.797 7.51467 107.909 6.976 107.909 6.4C107.909 5.824 107.797 5.29067 107.573 4.8C107.36 4.29867 107.056 3.86667 106.661 3.504C106.267 3.13067 105.797 2.84267 105.253 2.64C104.709 2.42667 104.117 2.32 103.477 2.32C102.827 2.32 102.229 2.42667 101.685 2.64C101.141 2.84267 100.667 3.12533 100.261 3.488C99.8666 3.85067 99.5626 4.28267 99.3493 4.784C99.1359 5.27467 99.0293 5.81333 99.0293 6.4C99.0293 6.976 99.1359 7.51467 99.3493 8.016C99.5626 8.51733 99.8666 8.94933 100.261 9.312C100.667 9.67467 101.141 9.96267 101.685 10.176C102.229 10.3787 102.827 10.48 103.477 10.48ZM119.876 12V0.799999H121.604V10.336H128.1V12H119.876ZM138.414 12V10.336H140.846V2.464H138.414V0.799999H145.006V2.464H142.574V10.336H145.006V12H138.414ZM161.083 12.16C160.187 12.16 159.36 12.016 158.603 11.728C157.856 11.4293 157.2 11.0187 156.635 10.496C156.08 9.97333 155.648 9.36533 155.339 8.672C155.04 7.968 154.891 7.21067 154.891 6.4C154.891 5.58933 155.04 4.83733 155.339 4.144C155.648 3.44 156.08 2.82667 156.635 2.304C157.2 1.78133 157.856 1.376 158.603 1.088C159.36 0.789333 160.187 0.639999 161.083 0.639999C161.99 0.639999 162.816 0.783999 163.563 1.072C164.32 1.36 164.976 1.77067 165.531 2.304C166.096 2.82667 166.528 3.44 166.827 4.144C167.136 4.83733 167.291 5.58933 167.291 6.4C167.291 7.21067 167.136 7.968 166.827 8.672C166.528 9.36533 166.096 9.97867 165.531 10.512C164.976 11.0347 164.32 11.44 163.563 11.728C162.816 12.016 161.99 12.16 161.083 12.16ZM161.099 10.48C161.75 10.48 162.342 10.3787 162.875 10.176C163.419 9.96267 163.888 9.67467 164.283 9.312C164.678 8.93867 164.982 8.50667 165.195 8.016C165.419 7.51467 165.531 6.976 165.531 6.4C165.531 5.824 165.419 5.29067 165.195 4.8C164.982 4.29867 164.678 3.86667 164.283 3.504C163.888 3.13067 163.419 2.84267 162.875 2.64C162.331 2.42667 161.739 2.32 161.099 2.32C160.448 2.32 159.851 2.42667 159.307 2.64C158.763 2.84267 158.288 3.12533 157.883 3.488C157.488 3.85067 157.184 4.28267 156.971 4.784C156.758 5.27467 156.651 5.81333 156.651 6.4C156.651 6.976 156.758 7.51467 156.971 8.016C157.184 8.51733 157.488 8.94933 157.883 9.312C158.288 9.67467 158.763 9.96267 159.307 10.176C159.851 10.3787 160.448 10.48 161.099 10.48Z" fill="#5B5B5B"/>
<path d="M0.716 29.5771V23.2771H1.964V24.8851L1.604 24.8971C1.668 24.7051 1.78 24.5091 1.94 24.3091C2.108 24.1091 2.32 23.9251 2.576 23.7571C2.832 23.5811 3.116 23.4411 3.428 23.3371C3.748 23.2251 4.092 23.1691 4.46 23.1691C4.868 23.1691 5.236 23.2371 5.564 23.3731C5.892 23.5011 6.156 23.7011 6.356 23.9731C6.564 24.2451 6.696 24.5851 6.752 24.9931L6.428 24.9211L6.512 24.7171C6.608 24.5491 6.744 24.3771 6.92 24.2011C7.104 24.0171 7.32 23.8491 7.568 23.6971C7.816 23.5451 8.084 23.4211 8.372 23.3251C8.668 23.2211 8.976 23.1691 9.296 23.1691C9.888 23.1691 10.364 23.2811 10.724 23.5051C11.084 23.7291 11.344 24.0451 11.504 24.4531C11.664 24.8531 11.744 25.3251 11.744 25.8691V29.5771H10.496V26.0011C10.496 25.6491 10.444 25.3491 10.34 25.1011C10.236 24.8451 10.072 24.6491 9.848 24.5131C9.632 24.3771 9.352 24.3091 9.008 24.3091C8.704 24.3091 8.42 24.3611 8.156 24.4651C7.892 24.5611 7.66 24.6971 7.46 24.8731C7.26 25.0411 7.104 25.2411 6.992 25.4731C6.888 25.6971 6.836 25.9451 6.836 26.2171V29.5771H5.588V25.9771C5.588 25.6411 5.528 25.3491 5.408 25.1011C5.296 24.8451 5.116 24.6491 4.868 24.5131C4.628 24.3771 4.32 24.3091 3.944 24.3091C3.664 24.3091 3.4 24.3611 3.152 24.4651C2.912 24.5691 2.7 24.7051 2.516 24.8731C2.34 25.0411 2.204 25.2291 2.108 25.4371C2.012 25.6451 1.964 25.8491 1.964 26.0491V29.5771H0.716ZM24.8615 29.6971C24.2135 29.6971 23.6375 29.5571 23.1335 29.2771C22.6295 28.9891 22.2335 28.5971 21.9455 28.1011C21.6655 27.6051 21.5255 27.0451 21.5255 26.4211C21.5255 25.7811 21.6735 25.2171 21.9695 24.7291C22.2655 24.2331 22.6695 23.8451 23.1815 23.5651C23.7015 23.2851 24.2935 23.1451 24.9575 23.1451C25.3575 23.1451 25.7295 23.1971 26.0735 23.3011C26.4175 23.4051 26.7175 23.5451 26.9735 23.7211C27.2295 23.8891 27.4335 24.0811 27.5855 24.2971C27.7375 24.5051 27.8175 24.7171 27.8255 24.9331L27.5015 24.9091V23.2771H28.7495V29.5771H27.5015V27.9451L27.7655 27.9571C27.7495 28.1571 27.6575 28.3611 27.4895 28.5691C27.3295 28.7691 27.1135 28.9571 26.8415 29.1331C26.5775 29.3011 26.2735 29.4371 25.9295 29.5411C25.5935 29.6451 25.2375 29.6971 24.8615 29.6971ZM25.1615 28.5571C25.6335 28.5571 26.0495 28.4651 26.4095 28.2811C26.7695 28.0891 27.0495 27.8331 27.2495 27.5131C27.4495 27.1851 27.5495 26.8211 27.5495 26.4211C27.5495 26.0131 27.4495 25.6491 27.2495 25.3291C27.0495 25.0091 26.7695 24.7571 26.4095 24.5731C26.0495 24.3891 25.6335 24.2971 25.1615 24.2971C24.6975 24.2971 24.2855 24.3891 23.9255 24.5731C23.5735 24.7571 23.2935 25.0091 23.0855 25.3291C22.8855 25.6491 22.7855 26.0131 22.7855 26.4211C22.7855 26.8211 22.8855 27.1851 23.0855 27.5131C23.2935 27.8331 23.5735 28.0891 23.9255 28.2811C24.2855 28.4651 24.6975 28.5571 25.1615 28.5571ZM40.2978 32.3371L41.8098 29.4091V30.3571L38.1858 23.2771H39.6258L41.5338 27.2491C41.7178 27.5851 41.8778 27.9051 42.0138 28.2091C42.1498 28.5131 42.2458 28.7851 42.3018 29.0251L42.0738 29.0611C42.1698 28.8211 42.2818 28.5451 42.4098 28.2331C42.5458 27.9211 42.7018 27.5771 42.8778 27.2011L44.6058 23.2771H46.0578L42.9258 29.6131L41.6178 32.3371H40.2978ZM58.18 29.6971C57.668 29.6971 57.22 29.5811 56.836 29.3491C56.46 29.1091 56.164 28.7691 55.948 28.3291C55.74 27.8891 55.636 27.3651 55.636 26.7571V23.2771H56.872V26.3611C56.872 26.8251 56.936 27.2211 57.064 27.5491C57.2 27.8691 57.4 28.1131 57.664 28.2811C57.936 28.4491 58.276 28.5331 58.684 28.5331C58.964 28.5331 59.228 28.4891 59.476 28.4011C59.724 28.3051 59.94 28.1731 60.124 28.0051C60.316 27.8371 60.464 27.6331 60.568 27.3931C60.68 27.1531 60.736 26.8891 60.736 26.6011V23.2771H61.972V29.5771H60.736V28.2571L60.952 28.1131C60.848 28.3771 60.668 28.6331 60.412 28.8811C60.156 29.1211 59.836 29.3171 59.452 29.4691C59.076 29.6211 58.652 29.6971 58.18 29.6971ZM86.7152 29.6971C86.0672 29.6971 85.4752 29.6051 84.9392 29.4211C84.4112 29.2371 83.9712 28.9411 83.6192 28.5331L84.4592 27.7891C84.7392 28.0771 85.0632 28.2971 85.4312 28.4491C85.8072 28.5931 86.2232 28.6651 86.6792 28.6651C86.8552 28.6651 87.0352 28.6531 87.2192 28.6291C87.4032 28.6051 87.5712 28.5611 87.7232 28.4971C87.8832 28.4331 88.0072 28.3491 88.0952 28.2451C88.1912 28.1411 88.2392 28.0171 88.2392 27.8731C88.2392 27.6331 88.0792 27.4491 87.7592 27.3211C87.5992 27.2651 87.4072 27.2091 87.1832 27.1531C86.9592 27.0891 86.7032 27.0291 86.4152 26.9731C85.9352 26.8691 85.5152 26.7571 85.1552 26.6371C84.7952 26.5171 84.5032 26.3611 84.2792 26.1691C84.1112 26.0171 83.9832 25.8451 83.8952 25.6531C83.8072 25.4531 83.7632 25.2251 83.7632 24.9691C83.7632 24.6891 83.8352 24.4411 83.9792 24.2251C84.1232 24.0011 84.3192 23.8091 84.5672 23.6491C84.8232 23.4811 85.1192 23.3571 85.4552 23.2771C85.7912 23.1891 86.1552 23.1451 86.5472 23.1451C86.8912 23.1451 87.2392 23.1811 87.5912 23.2531C87.9512 23.3251 88.2912 23.4371 88.6112 23.5891C88.9312 23.7411 89.1992 23.9291 89.4152 24.1531L88.7432 24.9691C88.5512 24.8171 88.3312 24.6811 88.0832 24.5611C87.8352 24.4331 87.5792 24.3371 87.3152 24.2731C87.0592 24.2011 86.8152 24.1651 86.5832 24.1651C86.3912 24.1651 86.2032 24.1771 86.0192 24.2011C85.8352 24.2251 85.6632 24.2691 85.5032 24.3331C85.3512 24.3891 85.2272 24.4691 85.1312 24.5731C85.0432 24.6691 84.9992 24.7851 84.9992 24.9211C85.0072 25.0171 85.0352 25.1091 85.0832 25.1971C85.1392 25.2771 85.2152 25.3491 85.3112 25.4131C85.4552 25.5091 85.6552 25.5971 85.9112 25.6771C86.1752 25.7491 86.4752 25.8171 86.8112 25.8811C87.2352 25.9611 87.6232 26.0571 87.9752 26.1691C88.3272 26.2811 88.6192 26.4211 88.8512 26.5891C89.0512 26.7251 89.1992 26.8891 89.2952 27.0811C89.3992 27.2651 89.4512 27.4811 89.4512 27.7291C89.4512 28.1371 89.3272 28.4891 89.0792 28.7851C88.8392 29.0811 88.5112 29.3091 88.0952 29.4691C87.6792 29.6211 87.2192 29.6971 86.7152 29.6971ZM101.838 29.6971C101.326 29.6971 100.878 29.5811 100.494 29.3491C100.118 29.1091 99.8219 28.7691 99.6059 28.3291C99.3979 27.8891 99.2939 27.3651 99.2939 26.7571V23.2771H100.53V26.3611C100.53 26.8251 100.594 27.2211 100.722 27.5491C100.858 27.8691 101.058 28.1131 101.322 28.2811C101.594 28.4491 101.934 28.5331 102.342 28.5331C102.622 28.5331 102.886 28.4891 103.134 28.4011C103.382 28.3051 103.598 28.1731 103.782 28.0051C103.974 27.8371 104.122 27.6331 104.226 27.3931C104.338 27.1531 104.394 26.8891 104.394 26.6011V23.2771H105.63V29.5771H104.394V28.2571L104.61 28.1131C104.506 28.3771 104.326 28.6331 104.07 28.8811C103.814 29.1211 103.494 29.3171 103.11 29.4691C102.734 29.6211 102.31 29.6971 101.838 29.6971ZM119.306 32.3371C118.698 32.3371 118.15 32.2611 117.662 32.1091C117.182 31.9651 116.794 31.7891 116.498 31.5811L116.942 30.5851C117.11 30.6811 117.314 30.7771 117.554 30.8731C117.794 30.9771 118.062 31.0611 118.358 31.1251C118.654 31.1971 118.97 31.2331 119.306 31.2331C119.754 31.2331 120.142 31.1491 120.47 30.9811C120.806 30.8131 121.062 30.5691 121.238 30.2491C121.422 29.9291 121.514 29.5371 121.514 29.0731V28.1251L121.646 28.2091C121.606 28.4411 121.446 28.6731 121.166 28.9051C120.894 29.1371 120.55 29.3291 120.134 29.4811C119.726 29.6251 119.29 29.6971 118.826 29.6971C118.162 29.6971 117.57 29.5571 117.05 29.2771C116.538 28.9971 116.134 28.6091 115.838 28.1131C115.55 27.6171 115.406 27.0531 115.406 26.4211C115.406 25.7811 115.558 25.2171 115.862 24.7291C116.166 24.2331 116.582 23.8451 117.11 23.5651C117.638 23.2851 118.242 23.1451 118.922 23.1451C119.13 23.1451 119.358 23.1731 119.606 23.2291C119.862 23.2771 120.114 23.3531 120.362 23.4571C120.61 23.5531 120.838 23.6651 121.046 23.7931C121.262 23.9211 121.434 24.0611 121.562 24.2131C121.698 24.3571 121.77 24.5051 121.778 24.6571L121.514 24.7531V23.2771H122.75V28.9291C122.75 29.4891 122.662 29.9811 122.486 30.4051C122.31 30.8371 122.062 31.1931 121.742 31.4731C121.43 31.7611 121.062 31.9771 120.638 32.1211C120.222 32.2651 119.778 32.3371 119.306 32.3371ZM119.162 28.5571C119.634 28.5571 120.05 28.4651 120.41 28.2811C120.778 28.0971 121.062 27.8451 121.262 27.5251C121.462 27.1971 121.562 26.8291 121.562 26.4211C121.562 26.0051 121.462 25.6371 121.262 25.3171C121.062 24.9971 120.778 24.7451 120.41 24.5611C120.05 24.3691 119.634 24.2731 119.162 24.2731C118.682 24.2731 118.254 24.3691 117.878 24.5611C117.502 24.7451 117.206 25.0011 116.99 25.3291C116.774 25.6491 116.666 26.0131 116.666 26.4211C116.666 26.8211 116.774 27.1851 116.99 27.5131C117.206 27.8331 117.502 28.0891 117.878 28.2811C118.254 28.4651 118.682 28.5571 119.162 28.5571ZM133.498 29.5771V23.2771H134.734V29.5771H133.498ZM134.098 21.8131C133.834 21.8131 133.63 21.7451 133.486 21.6091C133.342 21.4731 133.27 21.2811 133.27 21.0331C133.27 20.8011 133.342 20.6131 133.486 20.4691C133.638 20.3251 133.842 20.2531 134.098 20.2531C134.362 20.2531 134.566 20.3211 134.71 20.4571C134.854 20.5931 134.926 20.7851 134.926 21.0331C134.926 21.2651 134.85 21.4531 134.698 21.5971C134.554 21.7411 134.354 21.8131 134.098 21.8131ZM146.42 29.5771V21.4651H147.656V29.5771H146.42ZM144.704 24.4771V23.2771H149.66V24.4771H144.704ZM162.14 29.6971C161.492 29.6971 160.916 29.5571 160.412 29.2771C159.908 28.9891 159.512 28.5971 159.224 28.1011C158.944 27.6051 158.804 27.0451 158.804 26.4211C158.804 25.7811 158.952 25.2171 159.248 24.7291C159.544 24.2331 159.948 23.8451 160.46 23.5651C160.98 23.2851 161.572 23.1451 162.236 23.1451C162.636 23.1451 163.008 23.1971 163.352 23.3011C163.696 23.4051 163.996 23.5451 164.252 23.7211C164.508 23.8891 164.712 24.0811 164.864 24.2971C165.016 24.5051 165.096 24.7171 165.104 24.9331L164.78 24.9091V23.2771H166.028V29.5771H164.78V27.9451L165.044 27.9571C165.028 28.1571 164.936 28.3611 164.768 28.5691C164.608 28.7691 164.392 28.9571 164.12 29.1331C163.856 29.3011 163.552 29.4371 163.208 29.5411C162.872 29.6451 162.516 29.6971 162.14 29.6971ZM162.44 28.5571C162.912 28.5571 163.328 28.4651 163.688 28.2811C164.048 28.0891 164.328 27.8331 164.528 27.5131C164.728 27.1851 164.828 26.8211 164.828 26.4211C164.828 26.0131 164.728 25.6491 164.528 25.3291C164.328 25.0091 164.048 24.7571 163.688 24.5731C163.328 24.3891 162.912 24.2971 162.44 24.2971C161.976 24.2971 161.564 24.3891 161.204 24.5731C160.852 24.7571 160.572 25.0091 160.364 25.3291C160.164 25.6491 160.064 26.0131 160.064 26.4211C160.064 26.8211 160.164 27.1851 160.364 27.5131C160.572 27.8331 160.852 28.0891 161.204 28.2811C161.564 28.4651 161.976 28.5571 162.44 28.5571Z" fill="#5B5B5B"/>
</svg>
