<svg width="52" height="54" viewBox="0 0 52 54" fill="none" xmlns="http://www.w3.org/2000/svg">
<g filter="url(#filter0_g_396_697)">
<path d="M9.43 51V45.69H10.95L11 46.87L10.68 46.77C10.7733 46.61 10.8933 46.46 11.04 46.32C11.1867 46.18 11.3567 46.0567 11.55 45.95C11.75 45.8367 11.9633 45.75 12.19 45.69C12.4233 45.6233 12.6767 45.59 12.95 45.59C13.25 45.59 13.5267 45.6333 13.78 45.72C14.04 45.8067 14.26 45.9533 14.44 46.16C14.62 46.3667 14.7533 46.64 14.84 46.98L14.48 46.94L14.56 46.78C14.6667 46.62 14.8 46.47 14.96 46.33C15.12 46.19 15.3 46.0667 15.5 45.96C15.7067 45.8467 15.9267 45.7567 16.16 45.69C16.3933 45.6233 16.64 45.59 16.9 45.59C17.4133 45.59 17.83 45.6867 18.15 45.88C18.47 46.0667 18.7033 46.33 18.85 46.67C18.9967 47.0033 19.07 47.3867 19.07 47.82V51H17.46V48C17.46 47.7867 17.4233 47.6033 17.35 47.45C17.2833 47.29 17.1767 47.1667 17.03 47.08C16.8833 46.9867 16.7 46.94 16.48 46.94C16.2733 46.94 16.0833 46.9733 15.91 47.04C15.7367 47.1067 15.5833 47.1967 15.45 47.31C15.3233 47.4167 15.2233 47.5433 15.15 47.69C15.0833 47.8367 15.05 48 15.05 48.18V51H13.44V47.99C13.44 47.7833 13.4 47.6 13.32 47.44C13.24 47.28 13.1167 47.1567 12.95 47.07C12.7833 46.9833 12.5733 46.94 12.32 46.94C12.1333 46.94 11.96 46.9767 11.8 47.05C11.64 47.1167 11.5033 47.2067 11.39 47.32C11.2767 47.4267 11.19 47.5467 11.13 47.68C11.07 47.8067 11.04 47.93 11.04 48.05V51H9.43ZM24.5814 51.1C23.9081 51.1 23.3181 50.9833 22.8114 50.75C22.3114 50.51 21.9214 50.1833 21.6414 49.77C21.3681 49.3567 21.2314 48.89 21.2314 48.37C21.2314 47.95 21.3114 47.57 21.4714 47.23C21.6381 46.8833 21.8647 46.59 22.1514 46.35C22.4381 46.1033 22.7714 45.9133 23.1514 45.78C23.5381 45.6467 23.9481 45.58 24.3814 45.58C24.8081 45.58 25.2014 45.6467 25.5614 45.78C25.9281 45.9133 26.2447 46.1 26.5114 46.34C26.7847 46.5733 26.9914 46.8533 27.1314 47.18C27.2781 47.5067 27.3447 47.8667 27.3314 48.26L27.3214 48.73H22.3114L22.0814 47.77H26.0214L25.8514 47.98V47.78C25.8314 47.6 25.7547 47.4433 25.6214 47.31C25.4881 47.1767 25.3147 47.0733 25.1014 47C24.8947 46.92 24.6614 46.88 24.4014 46.88C24.0814 46.88 23.7947 46.93 23.5414 47.03C23.2881 47.13 23.0881 47.2833 22.9414 47.49C22.8014 47.69 22.7314 47.9433 22.7314 48.25C22.7314 48.5367 22.8147 48.7933 22.9814 49.02C23.1481 49.24 23.3881 49.4167 23.7014 49.55C24.0147 49.6767 24.3814 49.74 24.8014 49.74C25.1881 49.74 25.5081 49.6967 25.7614 49.61C26.0147 49.5167 26.2281 49.41 26.4014 49.29L27.1114 50.33C26.8847 50.4967 26.6347 50.6367 26.3614 50.75C26.0881 50.8633 25.7981 50.95 25.4914 51.01C25.1914 51.07 24.8881 51.1 24.5814 51.1ZM29.7144 51V45.69H31.2344L31.2944 46.99L30.8944 47.1C30.981 46.8333 31.131 46.5867 31.3444 46.36C31.5644 46.1267 31.831 45.94 32.1444 45.8C32.4644 45.6533 32.8144 45.58 33.1944 45.58C33.6744 45.58 34.0744 45.6733 34.3944 45.86C34.721 46.0467 34.9677 46.31 35.1344 46.65C35.3077 46.9833 35.3944 47.37 35.3944 47.81V51H33.7944V48.07C33.7944 47.8367 33.7444 47.6333 33.6444 47.46C33.551 47.2867 33.4144 47.1533 33.2344 47.06C33.061 46.9667 32.8577 46.9233 32.6244 46.93C32.4244 46.93 32.2444 46.9667 32.0844 47.04C31.9244 47.1067 31.7844 47.1967 31.6644 47.31C31.551 47.4233 31.4644 47.5467 31.4044 47.68C31.351 47.8133 31.3244 47.9467 31.3244 48.08V51H30.5244C30.291 51 30.1077 51 29.9744 51C29.841 51 29.7544 51 29.7144 51ZM40.3484 51.11C39.9017 51.11 39.5184 51.0133 39.1984 50.82C38.8784 50.6267 38.6317 50.3467 38.4584 49.98C38.285 49.6067 38.1984 49.1567 38.1984 48.63V45.69H39.7984V48.36C39.7984 48.6533 39.8384 48.9 39.9184 49.1C40.005 49.3 40.135 49.4533 40.3084 49.56C40.4817 49.66 40.7017 49.71 40.9684 49.71C41.1484 49.71 41.3184 49.68 41.4784 49.62C41.6384 49.56 41.7817 49.4767 41.9084 49.37C42.035 49.2633 42.1317 49.1333 42.1984 48.98C42.2717 48.8267 42.3084 48.6567 42.3084 48.47V45.69H43.9084V51H42.4084L42.3384 49.91L42.6284 49.79C42.5484 50.0167 42.4017 50.2333 42.1884 50.44C41.9817 50.64 41.7184 50.8033 41.3984 50.93C41.085 51.05 40.735 51.11 40.3484 51.11Z" fill="#4E4E4E"/>
</g>
<path d="M33.1697 34.3734C33.1166 34.4914 32.9034 34.6115 32.8352 34.7733C32.7188 35.047 32.673 35.2413 32.6436 35.4076C32.5991 35.9866 32.5235 36.4104 32.5503 36.8162C32.5706 37.0536 32.6198 37.2686 32.8269 37.5585C33.02 37.8242 33.2509 37.9988 33.9017 38.2634C34.5254 38.5124 35.359 38.8408 35.913 39.2424C36.0931 39.3978 36.3586 39.5857 36.5226 39.7749C36.6802 39.9582 36.7208 40.1072 36.6584 40.2167C36.6584 40.2167 36.6584 40.2167 36.6584 40.2168C36.6539 40.2244 36.6489 40.2318 36.6433 40.239C36.5419 40.3739 36.0119 40.3008 35.8695 40.4548C35.7239 40.5825 35.3528 41.6123 34.7427 41.5611C34.704 41.5622 34.6655 41.557 34.6271 41.5446C34.2703 41.4144 33.6611 41.1538 32.9223 40.8289C32.1838 40.5215 31.4349 39.9443 31.2091 39.7172C31.036 39.5676 30.8359 39.4013 30.646 39.2043C30.4702 39.0238 30.294 38.8094 30.1579 38.5591C29.4395 37.1319 29.7108 36.1831 29.5392 35.3673C29.5095 35.0948 29.494 34.8068 29.4978 34.4945C29.7899 33.8505 30.19 33.3234 30.6507 32.8913C30.7955 32.6021 31.0448 32.2931 31.3682 32.0299C31.7663 31.7165 32.1783 31.4825 32.3641 31.3259C32.6195 31.1115 32.6959 30.8922 32.9501 30.6858C33.0911 30.5702 33.2909 30.4552 33.4835 30.323C33.6731 30.2038 33.8616 29.9967 33.8341 29.9978C33.8332 29.9987 33.832 30.0005 33.8307 30.003C34.0887 28.8188 33.8424 28.6168 33.9591 27.9829C34.0188 27.6605 34.1471 27.2671 34.2241 26.8849C34.3161 26.5257 34.268 26.0675 34.2269 26.1906C34.2204 26.2063 34.2176 26.2278 34.2196 26.2536C34.1677 26.2201 34.1169 26.1905 34.0677 26.1652C34.0362 26.2508 34.0031 26.3365 33.9693 26.4231C33.9596 26.4216 33.95 26.4201 33.9404 26.4186C33.9434 26.4244 33.9466 26.4303 33.95 26.4362C33.7507 26.2082 33.8425 26.0648 33.6732 25.9187C33.5212 25.7973 33.3143 25.7756 33.129 25.7257C33.0678 25.7125 33.0119 25.6974 32.9585 25.6713C32.8038 25.5946 32.6406 25.3923 32.4156 25.3521C32.0837 25.3006 32.1296 25.5059 31.9411 25.5224C31.9078 25.5174 31.1556 25.563 30.4838 25.6365C30.2141 25.6643 30.0208 25.693 29.9894 25.6962C29.2793 25.7791 29.1925 25.5394 28.6626 25.6558C28.0528 25.8045 27.4629 26.134 26.854 26.5672C26.0863 27.1142 25.4356 27.7937 25.0393 28.3903C24.7829 28.7667 24.6225 29.1268 24.5818 29.3022C24.5646 29.3932 24.5518 29.4749 24.5428 29.5474C24.2387 29.1757 23.9181 29.3472 23.8382 29.6423C23.7677 29.9398 23.9515 30.0827 24.4134 29.7695C24.3648 29.9634 24.4534 30.0777 24.6242 30.2602C24.7637 30.3953 24.8853 30.4541 25.0038 30.5732C25.1741 30.7312 25.2962 30.9721 25.9134 31.1473C26.1559 31.2141 26.4333 31.2581 26.7185 31.2974C27.5132 31.396 28.0995 31.1594 28.5027 31.6796C29.0397 31.5387 29.6419 31.4123 30.1897 31.3155C30.8611 31.1932 31.3681 30.9309 31.5243 30.4435C31.6827 30.3609 32.016 30.3089 32.3848 30.2543C32.7278 30.2198 33.1031 30.1643 33.3089 30.0867C33.6982 30.0242 36.4321 28.3588 36.8021 27.9775C37.0461 27.7795 37.4173 27.4619 37.6445 27.2092C37.8775 26.9599 38.0248 26.8026 38.1351 26.6584C38.484 26.2003 38.2454 25.4908 39.478 25.2611C39.8428 24.7763 40.0774 24.4549 40.3246 24.1422C40.5131 23.9013 40.6908 23.681 40.8405 23.369C40.895 23.2491 41.0102 23.2604 41.0277 23.1795C41.0631 23.011 41.0036 22.7181 40.9545 22.3714C40.9522 22.3545 40.9501 22.3375 40.9481 22.3206C40.8803 21.7648 40.9737 21.419 40.6486 21.5833C40.4826 21.2576 40.267 20.954 40.0056 20.6281C39.9962 20.4669 39.9792 20.2997 39.958 20.13C39.9036 20.0855 39.8486 20.041 39.7928 19.9957C39.6518 19.8815 39.5113 19.772 39.3714 19.6684C39.9822 19.5636 38.7537 18.4754 38.8278 19.0839C38.4332 18.4138 37.9714 17.8659 37.3269 17.3739C37.5681 17.094 36.989 16.8109 36.4442 16.7583C36.0546 16.7149 35.7237 16.7871 35.7382 16.9408C35.6527 16.9091 35.5676 16.8789 35.4827 16.8504C34.7796 16.446 34.0848 16.4754 33.0055 16.2983C32.301 16.1828 32.0831 16.121 31.9377 16.0072C31.8604 15.9459 31.8028 15.8702 31.691 15.764C31.4331 15.766 31.1756 15.7707 30.9209 15.7793C29.6056 16.5577 29.7992 15.1205 27.5901 16.0117C27.5247 15.9815 27.4548 15.9573 27.377 15.9393C26.4999 15.7178 24.9818 16.3307 24.103 16.9346C23.9883 17.0083 24.0277 17.0944 23.8803 17.2006C23.5229 17.448 22.4632 17.9291 22.6544 18.1752C22.5837 18.1987 22.5136 18.2221 22.4417 18.2468C22.1417 18.3433 21.8396 18.4561 21.5385 18.5813C21.3121 18.8109 21.0932 19.0481 20.8817 19.2909C20.9432 19.3642 21.0046 19.4377 21.066 19.5111C20.5079 19.6221 19.9557 20.1545 19.5879 20.5073C19.481 20.6099 19.3876 20.6926 19.3053 20.7539C19.2232 20.8152 19.1098 20.7387 18.8736 20.9344C18.5924 21.1623 18.2264 21.666 18.0086 21.9703C18.0597 22.1709 18.1267 22.3604 18.2091 22.5341C18.194 22.5856 18.1782 22.6324 18.1613 22.6758C17.9152 23.3014 17.5326 23.389 17.4277 23.7015C17.4056 23.7537 17.338 24.1927 17.4314 24.5636C17.4778 24.794 17.5211 24.9607 17.5294 24.9843C17.6303 25.2696 17.755 25.3385 17.9039 25.5129C18.07 25.6908 18.1791 25.9174 18.6624 26.5253C18.6646 26.528 18.6668 26.5307 18.669 26.5334C18.8386 26.7435 18.9136 26.9625 19.0976 27.1061C19.3102 27.2979 20.0832 27.5258 20.686 27.5758C20.885 27.584 21.0286 27.5558 21.0763 27.4996C21.4452 28.0022 22.9772 27.9332 23.5935 27.9874C23.7609 28.0125 23.7977 28.1988 24.3234 28.2404C24.3778 28.2448 24.4413 28.2466 24.5157 28.2466C24.9896 28.249 25.8039 28.126 26.2234 28.1198C26.7358 28.1161 26.9356 28.2523 27.1706 28.2393C27.393 28.2253 27.5805 28.0727 27.8848 28.0318C28.1191 28.0007 28.3526 27.9799 28.5825 27.9649C29.2721 27.9212 29.9097 27.9224 30.4595 27.7983C31.4661 27.5721 32.2525 26.9557 33.0584 26.5143C33.1022 26.491 33.1451 26.4686 33.1872 26.447C33.4321 26.3967 33.6871 26.4067 33.9252 26.3381C34.8385 26.0916 35.5142 25.8319 36.3816 25.3977C37.7703 24.6983 39.0927 24.3416 40.1358 23.7171C40.805 23.3374 41.408 22.9208 41.9904 22.4515C42.5199 22.0333 43.5737 21.237 44.3581 20.6248C45.0468 20.0823 45.3989 19.6294 44.7979 19.6036C44.9541 19.3369 46.1864 18.406 46.8308 17.6222C47.2799 17.0707 47.6143 16.6364 47.7208 16.4548C48.0289 15.9432 48.0498 15.4942 48.1793 15.0838C48.226 14.9344 48.2679 14.7866 48.306 14.639C48.5871 13.4725 48.7461 12.7442 48.2067 11.3096C48.1204 11.0832 47.9802 10.855 47.8539 10.6515C47.7415 10.4657 47.6447 10.3084 47.602 10.1881C47.4908 9.87548 47.5369 9.49913 47.3834 9.1749C47.2112 8.80557 46.9006 8.37203 46.4278 7.91468C45.9536 7.44386 45.4433 7.13502 45.0033 6.88633C44.852 6.79997 44.8686 6.63297 44.6488 6.46944C44.3289 6.2325 43.9514 6.00428 43.6153 5.83372C43.0815 5.56347 42.6553 5.49898 42.6376 5.83646C41.5529 4.99684 40.3718 4.83498 39.1981 4.5498C38.8351 4.45975 38.4224 4.3632 37.9684 4.26392C36.7813 3.99034 35.4899 3.82719 34.031 3.73841C32.3055 3.61284 30.7155 3.64234 29.6749 3.82007C28.2709 4.06996 28.3591 4.27553 26.1981 4.4099C26.1543 4.41296 26.1103 4.41598 26.066 4.41898C25.6393 4.44633 25.2094 4.46981 24.7039 4.52859C23.4104 4.6744 22.1271 4.6514 21.3283 5.47162C20.7039 5.63914 20.1392 5.84395 19.5992 6.02115C18.8958 6.2519 18.2644 6.43183 17.5929 6.46936C17.516 6.61586 17.441 6.76247 17.3682 6.90908C17.2066 6.98749 17.0466 7.06726 16.8879 7.14871C16.7949 7.08627 16.7014 7.02431 16.6073 6.96286C15.531 7.46967 14.4692 8.53701 13.6142 9.21783C13.5327 9.28184 13.4559 9.34 13.3787 9.39524C12.469 10.0248 10.9669 11.1775 9.60547 12.5609C8.68878 13.4662 7.83698 14.4981 7.33936 15.0615C6.71721 15.7772 6.84558 15.9529 6.20802 16.1344L6.2306 16.1012C6.22873 16.0968 6.21891 16.1045 6.21475 16.1035C6.1311 16.2878 6.04275 16.486 5.95843 16.6809C5.96969 16.8423 5.98199 17.0035 5.9954 17.1643C5.38528 18.1943 4.58167 19.3974 4.21481 20.3909C4.156 20.5492 4.10129 20.7151 4.0566 20.8783C3.60866 22.4226 3.32091 23.8981 3.58643 25.3403C3.68553 26.0524 3.7373 26.4954 3.8413 26.8507C3.87477 26.9717 3.90784 27.1148 3.95443 27.2738C4.07025 27.6334 4.18881 27.9933 4.3622 28.2319C4.76085 28.7494 5.05077 28.5986 5.71524 29.1477C5.86098 29.2643 6.02722 29.3994 6.21132 29.5498C7.14837 30.3199 7.75309 30.9535 8.88548 31.3811C9.56851 31.6714 10.1853 31.8326 10.6971 31.8858C11.1344 31.9315 11.3622 31.8284 11.6845 31.8432C11.876 31.8513 12.0661 31.8597 12.2538 31.8689C13.392 31.9377 14.1714 31.8998 15.3245 31.6587C15.4362 31.6755 15.5392 31.6934 15.6365 31.7121C16.7182 31.9283 16.6858 32.2888 17.1237 32.6165C17.4818 32.8869 18.592 33.4455 18.8072 33.6716C18.95 33.8368 18.5738 34.1401 18.7597 34.3176C17.4547 34.633 16.7109 34.6237 15.8301 34.533C15.5137 34.4972 15.1839 34.4502 14.7952 34.3947C13.9189 34.4609 12.9085 34.4339 12.0546 34.3605C10.8557 34.2809 9.38891 34.149 8.10821 33.6925C7.64031 33.5364 7.15675 33.3607 6.65984 33.1101C6.46153 32.8837 6.2794 32.6454 6.12449 32.4083C6.12463 32.408 6.12476 32.4078 6.1249 32.4076C5.47753 31.8406 5.08622 31.7059 4.69846 31.5482C4.59026 31.5014 4.48709 31.4529 4.38406 31.3905C3.50113 30.9076 2.28604 29.7921 1.61918 28.5456C1.09725 27.7392 0.859603 26.5067 0.761605 25.7415C0.396788 23.8943 0.94498 21.6819 1.48596 20.1117C2.21129 17.9915 3.25689 16.3879 4.28075 14.8274C4.28553 14.8198 4.30095 14.7977 4.30601 14.7902C5.21265 13.5868 6.07023 12.522 6.86356 11.6025C7.04459 11.394 7.3081 11.0771 7.64842 10.7062C8.73781 9.43907 10.8021 7.62885 11.4301 7.39094C11.6371 7.29774 11.7861 7.40249 11.9803 7.27234C12.0335 7.23004 12.0873 7.18751 12.1421 7.14449C13.7151 5.88951 15.5044 4.76571 17.3444 3.8998C17.7627 3.75287 18.1771 3.60967 18.5922 3.46531C20.7904 2.67946 23.1837 1.85171 25.5874 1.44953C27.0521 1.1837 28.5516 0.939249 30.075 0.855872C31.4769 0.775943 32.8683 0.8147 34.2311 0.89743C35.6267 0.971512 37.1681 1.11758 38.5873 1.4313C40.6723 1.82784 42.8877 2.61188 44.7582 3.58388C45.8306 4.12064 47.3527 4.72693 48.4628 5.88044C49.5418 6.84814 50.3282 8.48997 50.6956 9.66776C51.3309 11.2405 51.6105 13.5656 51.0833 15.3188C50.7631 16.8007 49.8705 18.2044 49.1375 19.2253C48.4702 20.1689 47.7246 20.8812 46.9739 21.5584C46.631 21.8644 46.2697 22.178 45.8962 22.4938C44.6539 23.5427 43.1574 25.1729 41.5318 26.0343C41.443 26.0845 41.356 26.1321 41.2686 26.1782C40.3899 26.6335 39.8563 26.5507 38.8791 27.1824C38.8393 27.1183 38.7994 27.0542 38.7594 26.9902C38.2837 27.244 37.9435 27.4806 37.5792 27.7331C37.229 27.9668 36.8476 28.2029 36.3079 28.4349C35.7666 28.6858 34.7145 28.9751 33.9167 29.2256C33.1555 29.4682 32.4054 29.6898 32.0011 29.7861C31.5499 29.8936 31.6814 29.7152 31.2622 29.8213C30.7456 29.9539 29.8082 30.2476 28.9578 30.4297C28.6318 30.5014 28.3151 30.5623 28.0335 30.5993C27.1251 30.7388 25.5033 30.6551 24.8171 30.6598C24.7059 30.6629 24.5949 30.6657 24.4822 30.6684C23.2374 30.693 21.3711 31.0106 19.611 30.3293C18.705 30.0381 17.3522 29.4129 16.5615 28.4277C16.556 28.4214 16.5506 28.4151 16.5452 28.4088C15.925 27.7506 15.5354 26.4849 15.4762 26.2338C15.2966 25.7145 15.1037 25.6053 15.0097 25.2746C14.9862 25.188 14.9646 25.1008 14.9442 25.0114C14.8255 24.5048 14.8021 23.78 14.9661 23.1424C15.1251 22.5039 15.3543 22.0488 15.5273 21.6479C16.0039 20.5309 16.7712 19.7477 17.2839 19.2193C17.4558 19.0426 17.6254 18.8765 17.7704 18.7296C18.7847 17.7182 19.8555 16.8347 21.1179 16.0565C22.7605 14.9939 24.9813 14.0304 27.0162 13.7548C28.4716 13.4988 30.0346 13.4278 31.4497 13.5122C31.6559 13.5228 31.8694 13.5356 32.089 13.5501C33.4079 13.6298 35.6135 13.7134 37.3802 14.5664C39.4136 15.3155 41.1873 17.2546 41.8251 18.4885C41.8568 18.542 41.8829 18.5903 41.9044 18.6341C42.0999 19.0385 41.9201 19.0385 42.1713 19.4694C42.4768 20.0082 42.7382 20.3056 42.8592 20.607C43.0152 20.9961 43.1611 21.5077 43.2383 22.0552C43.4624 23.0363 43.0781 24.73 42.3301 25.626C41.4917 26.8018 40.5325 27.8295 39.8948 28.3803C39.656 28.5874 39.3785 28.6661 39.2809 28.75C39.2723 28.7581 39.2639 28.7665 39.2557 28.7751C39.1705 28.865 39.0591 29.1212 38.8199 29.3519C37.0705 30.9797 35.5713 32.0011 33.4983 32.8891C33.0854 33.0552 32.6475 33.237 32.1368 33.4117C31.6611 33.575 31.1319 33.7156 30.6042 33.7998C29.4691 33.9709 27.7818 34.4976 26.0971 34.0781C24.9692 33.8405 23.1006 33.4129 22.1424 31.8247C21.5913 31.059 21.3599 29.7786 21.5084 28.9121C22.0252 26.3071 23.7603 25.1697 25.2719 24.1555C25.2873 24.1461 25.3026 24.1368 25.3179 24.1276C26.3785 23.4818 27.3743 23.4206 27.5349 23.3643C27.9183 23.2296 28.1216 22.9372 28.9444 22.7457C29.3948 22.6462 29.8656 22.5879 30.3391 22.5563C31.3905 22.4694 33.1641 22.4145 34.4998 23.2475C35.0964 23.5522 35.9222 24.2395 36.2908 24.8504C36.8728 25.8625 36.6978 26.4215 36.7072 26.9371C36.6438 28.147 36.3239 29.7016 36.2153 30.4987C36.1373 30.9144 35.9783 31.2094 35.8426 31.4247C34.79 32.8216 33.3889 33.4429 33.1317 33.9058C33.1259 33.9184 33.1212 33.9314 33.1191 33.943C33.0938 34.0667 33.2263 34.2446 33.1697 34.3734ZM26.5922 31.488C26.5486 31.5472 26.5741 31.5975 26.6424 31.6382C26.8908 31.817 27.6522 31.6474 27.2866 31.4722C27.2086 31.4357 26.8545 31.4327 26.6825 31.4585C26.6355 31.4637 26.6031 31.4732 26.5922 31.488ZM37.7635 25.3888C37.7096 25.3043 37.6554 25.2199 37.6011 25.1357C37.4065 25.2653 37.2116 25.3989 37.0192 25.5364C37.1627 25.5338 37.3057 25.533 37.4475 25.5342C37.5532 25.4845 37.6581 25.4363 37.7635 25.3888Z" fill="#4E4E4E"/>
<defs>
<filter id="filter0_g_396_697" x="9.12993" y="45.2801" width="35.0785" height="6.13027" filterUnits="userSpaceOnUse" color-interpolation-filters="sRGB">
<feFlood flood-opacity="0" result="BackgroundImageFix"/>
<feBlend mode="normal" in="SourceGraphic" in2="BackgroundImageFix" result="shape"/>
<feTurbulence type="fractalNoise" baseFrequency="inf inf" numOctaves="3" seed="8828" />
<feDisplacementMap in="shape" scale="0.60000002384185791" xChannelSelector="R" yChannelSelector="G" result="displacedImage" width="100%" height="100%" />
<feMerge result="effect1_texture_396_697">
<feMergeNode in="displacedImage"/>
</feMerge>
</filter>
</defs>
</svg>
