<svg width="140" height="183" viewBox="0 0 140 183" fill="none" xmlns="http://www.w3.org/2000/svg">
<g filter="url(#filter0_g_139_1481)">
<path d="M31.6875 15.1548C31.1056 15.8039 28.9014 21.1332 32.6965 36.9798C30.86 36.8856 27.9167 37.6087 27.9167 37.6087C27.9167 37.6087 24.2391 38.0285 21.8419 38.3457C15.7358 39.1535 5.82274 40.3356 6.71277 42.8026C8.4802 47.7017 17.557 54.1175 17.557 54.1175C17.557 54.1175 27.277 62.6419 27.1738 67.0879C27.0646 71.791 25.0388 83.3544 28.1979 88.211C28.5811 88.8 29.1334 89.5316 30.1182 89.3398C32.5508 88.8659 36.0174 86.4837 39.2984 83.967C44.5788 79.9166 49.6808 70.9012 56.3699 67.8667C57.9121 67.1671 59.6058 67.636 64.5418 67.2535C74.7399 66.4631 81.861 66.2169 82.4432 65.6094C82.7067 65.3344 82.7982 64.7374 82.4545 64.3492C81.7258 63.5261 80.4412 62.5865 79.5372 61.0416C77.6104 57.7486 70.6872 52.6673 68.9886 44.4931C68.6943 43.0765 69.0796 42.1977 69.6761 41.4965C72.0426 38.7148 75.0668 35.283 75.8235 31.7038C76.4767 28.6142 85.7264 17.155 78.2941 18.2421C73.3318 18.9679 68.6985 22.027 64.7938 23.569C59.8113 25.5366 53.1085 29.0312 50.757 28.0692C46.6918 26.4062 44.9729 25.4308 41.8755 22.87C38.1685 19.8052 33.9543 12.6259 31.6875 15.1548Z" fill="#F6C445"/>
<path d="M29.2843 37.7822C28.4295 36.0391 27.8467 34.2017 27.6764 32.2273C27.6361 31.7676 27.9688 31.7544 27.9891 31.5623C28.0271 31.2113 27.5853 30.7165 27.5716 30.6298C27.4873 30.1336 28.0881 30.2392 28.0993 30.169C28.2183 29.4079 27.6002 29.7124 27.4357 29.0087C27.2241 28.0992 27.194 26.8832 27.1267 25.7412C27.1064 25.3431 27.554 25.4871 27.4555 24.6252C27.3799 24.0268 26.8053 22.1223 27.3638 21.225C27.5655 21.2227 27.7867 21.3365 27.9944 21.3849C27.1835 20.1085 27.202 19.6319 27.6505 17.7493C27.7286 17.4434 27.4302 17.0963 27.6722 16.557C27.936 16.0082 28.3953 16.1498 28.8147 14.9394C28.8879 14.7466 28.8878 14.5606 28.9213 14.3038C28.9326 14.1874 28.9588 14.0407 29.0087 13.8783C29.0726 13.7021 29.1217 13.5208 29.4303 13.1315C29.5165 13.0157 29.6201 12.8961 29.7472 12.7756C30.3469 12.112 32.0256 11.3783 33.3381 11.6487C34.632 11.8643 35.3708 12.4177 35.9468 12.8609C37.0711 13.7868 37.6792 14.637 38.134 15.1037C39.8163 16.9239 41.0582 17.4802 42.2059 19.0271C42.2941 19.1441 41.7746 19.1928 41.9528 19.3934C42.1368 19.5999 42.7165 19.4127 42.7708 19.4491C43.1055 19.6743 43.411 20.2612 43.6702 20.6992C43.927 21.077 44.1539 21.3984 44.3105 21.4754C45.2152 21.9088 44.6099 21.1462 45.7227 21.8537C46.757 22.509 47.7648 23.9314 48.8873 24.6072C50.1263 25.3602 50.9792 24.6646 51.6357 25.9211C51.6108 25.9445 51.5888 25.9719 51.5704 26.0032C51.4847 25.9823 51.8039 26.0216 52.1542 25.9619C52.5145 25.9107 52.9408 25.8104 53.377 25.685C54.2543 25.4321 55.1891 25.0828 56.122 24.7071C57.9969 23.9492 59.895 23.0719 61.8472 22.2126C61.9199 22.4148 61.9909 22.6177 62.0616 22.8208C62.3132 22.5525 62.5659 22.2847 62.8249 22.0181C62.8388 22.1853 62.8553 22.3515 62.8688 22.5171C63.2336 22.1652 63.6092 21.8412 63.9975 21.5525C64.7827 20.9246 65.6356 20.393 66.8198 19.9498C66.8527 19.9374 66.9567 20.3623 66.9876 20.3596C67.3875 20.2551 67.6551 19.7574 68.0149 19.6678C68.8825 19.4462 70.6543 19.6394 69.5623 18.8949C71.5348 18.2118 73.7519 16.8532 75.9146 16.5385C76.8463 16.4036 77.2525 17.0251 77.6817 16.9873C78.1154 16.955 77.808 16.4174 77.9608 16.3709C77.9796 16.3655 77.9987 16.3601 78.018 16.3547C78.5662 16.2164 79.2611 16.1268 80.0346 16.3144C80.7773 16.4721 81.4889 17.0835 81.3851 17.4264C81.8071 17.4071 82.3281 17.5584 82.7811 17.8164C82.587 17.8492 82.7156 18.2466 82.7816 18.7389C82.862 19.2608 82.8602 19.8249 82.8005 20.346C82.6795 21.3809 82.4025 22.2784 82.2637 22.6386C82.2097 22.7724 81.9076 22.6769 81.8716 22.7774C81.4736 23.8569 81.7929 24.3055 81.5053 25.2493C81.4024 25.5752 81.1474 24.8623 80.9639 25.7304C80.9472 25.8039 81.4103 26.0124 80.9186 26.9027C80.1801 28.2665 78.6192 31.2057 78.0752 32.1323C78.0448 32.1753 77.634 31.9181 77.6171 32.083C77.6089 32.1327 77.6023 32.1906 77.5972 32.2581C77.5681 32.5633 77.9933 32.5199 77.7816 33.2455C76.899 36.0607 74.8939 38.0503 73.6177 40.2553C73.3355 39.9074 73.507 38.9084 72.8834 40.1253C72.7838 40.3197 73.1873 40.4423 73.1378 40.526C72.7304 41.2037 72.0837 41.5357 71.6658 42.2577C71.5423 42.4723 71.7373 42.7159 71.5978 42.9917C71.5806 43.026 71.5617 43.0563 71.5414 43.0833C71.4597 43.2146 71.1237 43.089 71.2285 43.2672C71.3333 43.4009 71.5088 43.449 71.541 43.4995C71.5782 43.558 71.4609 43.5818 71.102 43.9242C71.1094 43.9646 71.1177 44.0054 71.1275 44.0486C72.1799 48.9632 75.699 52.8091 79.2416 57.2185C80.0727 57.9569 80.8881 58.6095 81.724 59.7621C81.9753 60.0595 82.2546 60.3469 82.5894 60.6738C82.8724 60.9447 82.5136 61.3778 83.1886 61.774C83.2914 61.8391 84.0011 62.0668 84.2934 62.7211C84.7131 63.3344 84.6966 63.9453 84.4234 64.1788C84.7483 65.2012 84.6594 65.7875 84.1307 66.7245C84.7523 66.1224 85.0634 65.4658 85.1783 64.6782C85.1816 65.6249 85.0297 66.3954 84.2247 67.3167C84.0034 67.5465 83.811 67.6782 83.6487 67.7787C83.5174 67.8589 83.4177 67.9095 83.3183 67.9566C83.1098 68.0526 83.0189 68.0856 82.8863 68.1344C82.6691 68.2136 82.491 68.2691 82.3405 68.3185C82.0284 68.4182 81.7809 68.5 81.5237 68.5846C81.03 68.7491 80.5758 68.907 80.1108 69.0293C79.247 69.2524 79.8167 68.7137 79.2927 68.8113C78.7589 68.9061 78.5384 69.0332 77.8323 68.5115C77.3796 69.2131 76.9915 68.7757 76.0548 68.8249C75.9584 68.8302 75.3892 69.1288 74.9018 69.1108C74.5442 69.0983 74.4212 68.6914 73.8673 68.7936C73.7811 68.8092 72.6394 69.4012 72.2735 69.4729C71.6951 69.5865 70.7399 69.1195 70.6302 69.1206C68.9967 69.1396 68.4097 69.7073 67.1928 68.9304C66.998 69.4588 66.0561 69.8291 65.2784 69.8387C65.1222 69.8407 64.9384 69.8198 64.7383 69.7881C63.633 69.6285 62.1286 69.0937 61.9211 70.0298C60.7238 69.5681 60.8404 69.8662 59.4915 69.8891C58.8182 69.8991 57.6429 69.7948 57.2905 69.896C56.5098 70.1532 55.7828 70.5198 55.464 70.7627C54.7586 71.3089 55.4743 71.5724 55.2406 71.8371C54.8683 72.2809 54.8424 71.7338 54.5325 71.979C53.6595 72.6843 52.9703 73.4292 52.3128 74.353C52.0459 74.1677 51.7736 73.9858 51.503 73.8046C51.5359 73.9219 51.5694 74.0391 51.6029 74.1561C51.427 74.3279 51.2393 74.5291 51.0729 74.6879C53.411 74.2921 49.7141 75.9342 48.9089 76.8393C48.232 77.5585 47.653 79.2519 47.0293 80.1896C46.8788 80.4167 46.7401 80.0502 46.7098 80.0972C46.3533 80.656 46.467 80.8867 45.8508 81.5323C45.521 81.876 44.8747 81.9464 44.5542 82.2806C43.3765 83.505 42.2476 84.784 40.8534 85.9942C39.6006 87.0896 38.3227 88.1872 36.8682 89.172C36.3752 89.5049 35.6577 89.3317 35.2221 89.578C34.594 89.9306 34.401 90.533 33.7523 90.8654C33.1085 91.2007 31.9054 91.1333 31.4055 91.3544C30.8849 91.5807 31.9825 91.8068 30.8941 91.9452C30.3803 91.9918 31.1731 91.4404 30.5685 91.5576C30.5627 91.5587 30.5568 91.5597 30.5509 91.5607C29.8141 91.7289 28.5957 91.6127 27.7685 91.0719C26.9368 90.5589 26.4868 89.9403 26.1777 89.5251C25.5137 88.5991 25.1276 87.5953 25.0859 86.7175C25.0014 86.8213 24.9393 86.957 24.8687 87.0825C24.3273 85.2475 24.4038 83.6906 24.3125 81.9703C24.2813 81.3662 23.917 80.3032 23.9156 79.7155C23.9123 79.1303 24.2697 78.8693 24.286 78.4092C24.2939 78.22 23.9748 78.2884 23.9837 78.1611C24.1055 76.5676 24.7194 75.7449 24.7673 74.1188C24.8341 71.729 25.0366 69.2358 25.0253 67.038C24.8385 65.3562 22.1446 62.1388 19.8562 59.897C19.6948 59.737 19.2863 59.9072 19.0135 59.7108C18.5915 59.4086 18.833 59.1343 18.7952 59.0767C18.5395 58.7015 18.4244 59.0658 18.0004 58.6417C17.3613 58.004 16.4902 56.972 15.7349 56.1951L15.9619 56.374C15.4867 55.9898 15.0845 55.6564 14.7178 55.387C12.0547 53.4008 9.73327 51.8626 7.2716 49.4298C7.09536 49.2529 7.57191 49.0522 7.29237 48.7253C5.78357 46.836 4.92834 46.3588 3.82278 43.8453C3.39916 42.923 3.57762 41.1859 4.22091 40.3332C4.81919 39.4416 5.42112 39.0588 5.95686 38.7333C10.5543 36.4928 16.6499 36.4816 20.7364 35.9077C20.7366 35.9089 20.7367 35.91 20.7369 35.9111C20.9528 35.7032 21.2053 35.5345 21.4528 35.4052C22.5249 34.868 23.827 34.9648 24.9776 35.382C23.8586 35.8509 22.738 36.2505 21.6115 36.6046C18.9876 37.4371 16.3063 37.9377 13.5826 38.4588C12.2203 38.7235 10.8412 38.9845 9.42831 39.3755C8.71939 39.5775 8.00771 39.7979 7.25339 40.1757C6.87673 40.3732 6.47552 40.5961 6.06461 41.0329C5.64779 41.41 5.25302 42.4601 5.5783 43.2119C6.05117 44.5525 6.79994 45.6638 7.61029 46.6852C10.2859 49.9386 13.7326 52.3266 17.2868 54.4997L17.2483 54.4694C21.0947 57.4799 25.2385 60.6944 27.1307 65.3912C27.3617 66.1377 27.0197 66.5745 27.002 67.0839C26.9982 67.1521 27.0003 67.2253 27.0099 67.3054C27.0239 67.4263 27.4332 67.1255 27.4594 67.5024C27.6996 72.5826 26.0363 77.8412 26.7844 82.7553C27.0056 84.06 27.48 84.1986 27.8429 85.2422C27.5927 85.108 27.3496 85.0305 27.1049 84.9005C27.2138 86.0663 27.4868 87.2401 28.0827 88.286C28.4281 88.9647 29.2012 89.784 30.1629 89.5691C33.6046 88.7705 36.268 86.4748 39.048 84.5166C39.2456 84.3726 39.5339 84.6985 39.7483 84.5546C39.7485 84.5545 39.7487 84.5543 39.7489 84.5542C40.1937 84.2548 40.2743 83.5612 40.5975 83.251C41.0219 82.8404 41.3296 83.0231 41.7115 82.6225C41.8928 82.4278 41.605 82.2495 42.05 81.8794C42.0869 81.8483 42.3577 82.0715 42.5942 81.7613C43.2453 80.9171 44.438 79.1264 44.9335 78.4176C45.5706 77.5133 46.5436 77.1872 46.8419 76.8966C47.6476 76.1115 47.2277 75.7752 47.8605 75.0644C50.3825 72.2644 53.1837 69.6586 56.5592 68.2838C58.8181 67.6487 61.8227 68.2773 64.5961 67.9541C64.8367 67.9368 65.076 67.919 65.314 67.9007C65.749 67.8668 67.3066 67.1516 68.1149 67.1185C68.3868 67.1084 69.808 67.1671 70.0169 67.166C70.8792 67.1564 71.6404 67.4671 72.1212 67.5104C73.0476 67.5962 74.0359 66.9634 74.5267 66.8729C75.395 66.7138 76.9617 66.6752 77.3296 66.6605C78.221 66.6267 77.9764 67.3464 78.6116 67.13C78.794 67.0652 78.5547 66.5501 79.2149 66.4903C79.7786 66.4393 80.0314 66.818 80.4359 66.8452C80.8362 66.8743 81.4567 66.1564 81.6938 66.1211C81.8587 66.1003 82.0166 66.082 82.1686 66.0585C82.3373 66.0188 82.4556 66.0456 82.7057 65.861C83.2219 65.3888 83.4675 64.6808 82.9619 63.8999C82.7956 63.6443 82.5927 63.4007 82.3411 63.1512C81.9476 62.7491 80.8105 61.8461 80.0714 60.7291C79.1266 59.362 78.0206 58.4128 77.827 58.2775C76.0563 57.2676 78.4094 59.4744 78.4872 59.6449C78.9808 60.476 78.7129 60.4985 79.5653 61.0252C79.5828 61.0369 79.6007 61.0487 79.6191 61.0606C78.8595 62.5711 82.0699 63.3441 82.131 64.6355C82.0966 64.7561 81.9802 64.8601 81.8015 64.9276C82.3422 64.781 82.5139 65.3217 82.322 65.4932C82.1081 65.6487 81.5773 65.4955 81.1348 65.4367C79.9654 65.2691 80.9112 65.8332 80.0677 65.9371C79.7371 65.9764 78.7119 65.5375 78.2206 65.6512C77.729 65.7661 77.5444 66.19 76.8697 66.2633C75.6625 66.3949 74.6741 66.2711 73.6261 65.8529C73.4565 66.081 73.2969 66.3086 73.1251 66.5369C72.4145 66.3523 71.6823 66.1704 70.9717 65.9878C71.0974 66.1684 71.2226 66.3507 71.3468 66.5314C71.145 66.5726 70.9396 66.6126 70.7338 66.6526C70.0378 66.4157 69.3602 66.1992 68.6407 65.9557C66.8095 67.1808 67.2987 66.1989 66.2238 66.1355C65.4928 66.0927 64.9984 66.3959 64.4923 66.6139C64.2574 66.7148 64.031 66.7953 63.7718 66.8133C62.6789 66.886 62.1782 66.9851 61.0724 66.9639C60.4277 66.9508 59.3315 66.3471 60.237 67.306C59.0825 67.3932 57.602 67.3466 56.3854 67.9008C55.5052 68.3058 54.6901 68.7434 53.9648 69.0361C53.4537 69.2477 53.8785 68.5874 53.7831 68.6079C53.2912 68.7232 53.259 69.3551 52.8449 69.583C52.1443 69.9572 50.7277 70.6903 50.2131 71.0639C49.4579 71.5901 48.9415 73.0493 48.8835 73.1819C48.5269 73.937 47.998 73.7341 47.8508 73.9483C47.0312 75.1687 46.999 75.5561 45.8531 75.1629C45.967 75.7658 45.5598 77.4821 44.6971 77.2349C45.2471 77.7232 44.3052 78.6244 43.9134 79.3435C43.6556 79.3136 43.3989 79.2839 43.1397 79.252C43.0448 81.0319 40.8648 82.6597 39.0695 83.6686C38.7377 83.8592 38.423 84.044 38.1401 84.2262C38.0947 84.2561 38.3465 84.7569 38.0074 84.8541C37.9845 84.8583 37.8641 84.6395 37.6677 84.7446C37.024 85.1134 34.4121 86.156 34.1464 86.2904C33.1693 86.8724 33.1979 87.3191 32.6019 87.6825C31.811 88.141 31.5345 87.8638 30.794 88.195C30.5332 88.3037 30.3628 88.6512 30.0192 88.8316C29.9312 88.8859 29.8236 88.9131 29.7168 88.8857C29.4536 88.8024 29.6094 88.4267 29.5204 88.3382C29.3813 88.1902 29.1937 87.9675 29.0112 87.682C28.7515 87.2784 28.5679 86.826 28.6669 86.2326C27.4413 86.4462 28.1405 85.7074 28.1226 85.2666C28.0193 83.4516 27.3747 81.1338 27.4822 79.4644C27.7475 75.1771 28.866 71.5198 29.3535 67.1385C29.4218 65.6081 28.9842 64.4888 28.5424 63.4839C28.1089 62.5727 27.4607 62.6952 26.9786 61.8735C26.757 61.506 26.8722 60.8884 26.4591 60.3231C26.1296 59.8694 25.4618 59.3886 25.0268 58.8686C24.9107 58.7304 25.2187 58.4495 25.0467 58.2429C23.7395 56.6816 22.1761 55.4905 20.5932 54.2481C20.0064 53.7896 20.0484 53.0796 19.4861 53.8666C19.4318 53.4942 19.3777 53.1659 19.3283 52.8077C19.1646 52.7833 18.987 52.7089 18.8494 52.6438C18.8192 52.6157 18.7214 52.5416 18.6884 52.5168C17.9612 52.2827 17.6089 51.4764 16.6691 50.8997C16.5555 50.835 15.3622 50.7263 15.242 49.9972C14.9921 50.2339 14.8714 50.5116 14.6602 50.7386C14.1429 50.4775 13.7587 49.6195 13.5069 49.3383C13.2572 49.061 12.7714 49.2175 12.6855 49.1445C12.361 48.8599 12.8341 48.5006 12.8165 48.4714C11.7729 46.7014 11.7427 47.086 10.2763 46.8015C9.88193 46.7257 9.10479 44.7781 8.33726 44.8332C8.55838 44.657 8.82703 44.608 9.06372 44.476C8.78666 43.9591 8.54744 43.4334 8.37889 42.9286C8.18632 43.151 8.01159 43.402 7.82784 43.6335C7.69981 43.2308 7.51678 42.891 7.33514 42.5781C7.28364 42.5182 7.24147 42.4929 7.21893 42.4137C7.19745 42.3355 7.21865 42.2111 7.2812 42.0861C7.40797 41.8314 7.66078 41.5903 7.95365 41.4436C8.47847 41.1953 8.64818 41.7892 8.90494 41.5415C8.95522 41.4943 8.70375 41.1571 8.87667 41.0565C10.3487 40.2586 11.2028 40.5232 12.8306 40.2637C13.5976 40.1507 14.1487 39.302 15.3414 39.5981C15.453 39.6248 16.6346 40.0998 17.1757 39.0773C17.4331 39.3382 17.6448 39.4646 17.8402 39.6878C19.0168 38.1211 18.8273 39.5205 20.7206 39.5952C20.9999 39.6063 21.4604 39.5607 21.9924 39.4833C23.3321 39.2877 25.1862 38.9098 25.9232 38.7155C26.5356 38.552 26.4607 38.0114 26.5701 37.9765C27.2205 37.7737 27.2827 38.2992 27.8858 38.1423C27.9189 38.1342 27.9492 38.1252 27.9746 38.1157C27.9876 38.1146 28.0256 38.107 28.0384 38.1043C28.5696 37.8452 29.196 37.1694 29.8073 37.1207C30.297 37.0853 30.0186 37.7896 30.6864 37.4646C30.8268 37.3979 30.3323 36.8924 31.1154 37.0221C31.2481 37.0299 32.48 37.5607 32.6584 37.7246C32.0921 38.0127 30.4469 38.672 29.8265 38.9429C29.3647 39.1346 28.8476 39.3452 28.3947 39.5546C28.3445 39.5654 28.1951 39.5951 28.1439 39.5995C26.3681 40.1238 24.3409 40.6321 22.2119 41.1423C19.7754 41.7242 17.1721 42.2576 14.5869 42.882C13.3047 43.1944 12.004 43.5335 10.8846 43.9263C10.3377 44.1171 9.80379 44.3479 9.57769 44.4994C9.47246 44.5574 9.45068 44.6524 9.75382 44.3619C9.89551 44.2099 10.1622 43.9097 10.3454 43.3058C10.5325 42.7207 10.4746 41.9533 10.3037 41.5071C11.6361 44.2961 16.435 48.3292 19.8612 50.8576C19.9283 50.9081 20.1276 51.059 20.1891 51.1162C22.8233 53.5067 24.9376 55.7751 26.6891 57.99C27.5012 59.025 27.5608 60.0774 28.0142 60.8331C28.4694 61.6125 28.4902 60.6765 28.9036 61.4114C29.3089 62.1621 29.2958 62.9055 29.6158 63.7212C29.9568 64.6414 30.3099 65.6863 30.2607 67.1595C29.8919 71.2367 29.2291 74.686 29.0874 78.236C29.0406 79.3249 29.4774 80.1759 29.5247 81.1148C29.5444 81.4797 28.9957 81.5279 29.0193 81.7893C29.1911 83.8047 29.8996 85.6927 30.6687 86.6038C30.8367 86.8343 30.9302 86.833 30.7078 86.6485C30.5037 86.441 29.7752 86.2925 29.5427 86.3855C29.5604 86.3827 29.579 86.3796 29.5984 86.3763C30.2274 86.2816 31.5722 86.1661 32.5775 85.6234C33.4173 85.1777 34.0945 84.3492 34.8189 83.8369C35.2121 83.5571 35.6657 83.7474 35.8299 83.6704C36.3969 83.3958 35.9187 83.108 36.1738 82.9213C36.7878 82.4704 37.4174 82.5868 37.9885 82.2592C38.0613 82.2191 38.1328 82.1691 38.2024 82.1059C38.42 81.9056 38.1405 81.6269 38.421 81.3067C38.7775 80.8919 38.8665 81.2983 39.1713 81.0378C39.1895 81.023 38.9429 80.8674 39.0866 80.7177C40.0264 79.742 41.0584 78.2816 42.002 77.235C43.9525 75.073 46.2876 73.102 48.4085 71.118C48.9478 70.6149 48.553 70.4922 48.7088 70.314C49.4787 69.4583 50.0737 69.5043 50.904 68.6023C51.0406 68.4551 51.3683 67.5294 52.1185 67.1578C52.5178 66.9588 53.1128 66.9465 53.4696 66.8139C53.8284 66.6815 53.6368 66.2491 54.0474 66.0183C54.6767 65.6769 54.73 65.9067 55.3653 65.6521C55.5333 65.584 55.736 65.5004 55.9876 65.4076C56.6693 65.087 58.5596 64.5208 59.5744 64.571C61.0438 64.6098 62.6721 64.8634 64.3539 64.8284C64.7086 64.8208 65.0552 64.8066 65.4007 64.7816C66.1122 64.7311 66.9869 64.1842 68.0853 64.1012C69.4347 63.9978 71.9059 63.9398 73.2823 63.853C73.9773 63.8089 74.0702 64.3073 74.1525 64.3227C74.6921 64.426 74.4449 63.879 74.8027 63.8765C75.2944 63.873 75.7856 64.2544 76.231 64.2495C76.5139 64.2465 76.5332 63.8291 76.5933 63.8214C77.5736 63.6886 78.5141 63.5878 79.4 63.4852C79.8489 63.433 80.2885 63.3798 80.687 63.3182C80.8841 63.2877 81.0768 63.2532 81.2101 63.2223C81.2744 63.2077 81.3286 63.1912 81.3144 63.1939C81.3016 63.1979 81.2857 63.1994 81.1896 63.2407C81.1406 63.2625 81.0776 63.292 80.9857 63.3463C80.8675 63.418 80.7028 63.5238 80.4926 63.7401C79.9134 64.4305 79.9479 64.7184 79.9878 65.2549C80.0311 65.5407 80.1776 65.888 80.4139 66.1557C79.7869 65.5117 78.1152 64.1899 77.0995 62.468C73.9231 58.459 67.3251 52.9296 65.7863 45.1585C65.3167 43.6487 65.7981 40.719 67.1625 39.358C69.0894 37.0791 70.9002 34.9654 71.9809 32.8843C72.3298 32.1824 72.8255 32.3424 72.9561 31.6768C72.9898 31.4808 72.9218 31.2663 72.8393 31.0729C72.8754 29.7403 72.9584 29.0616 74.0007 28.8885C73.7876 28.752 73.6261 28.6738 73.4337 28.5466C74.7117 26.8358 75.3395 25.1239 76.1159 23.5761C76.6835 22.4502 77.2029 21.4839 77.5274 20.6486C77.6667 20.2852 77.8032 20.1917 77.8698 20.0892C77.9332 20.0085 77.9178 19.8245 77.6276 19.8697C77.6574 19.9234 77.6605 20.1874 77.9346 20.6465C78.1976 21.1079 78.7676 21.4697 79.0081 21.5222C79.2765 21.5981 79.2864 21.5491 79.2177 21.5379C79.1351 21.5213 78.9876 21.5148 78.7753 21.5322C76.0087 21.7821 73.0314 23.1033 69.7711 24.2288C69.184 25.5545 67.9544 25.52 66.358 26.0452C66.1661 26.1058 66.4767 26.3251 65.9619 26.5269C65.9466 26.5328 65.9303 26.5387 65.913 26.5444C65.2829 26.7574 64.7596 26.4056 63.7011 26.8864C63.4242 27.0101 61.5324 28.462 60.6033 28.5335C59.6852 28.6026 58.4343 28.9334 57.46 29.0003C57.6659 29.1616 57.8971 29.3021 58.1164 29.4535C57.6988 29.6588 57.2624 29.8641 56.8263 30.0616C56.6688 29.8319 56.5125 29.6012 56.3599 29.3676C56.1881 29.7001 55.9999 30.0317 55.8075 30.3667C54.7815 29.2331 55.5762 29.4868 54.2978 30.1996C53.6256 30.543 53.0073 30.4393 52.0959 30.6339C51.7657 30.6979 51.5289 31.1136 51.0144 31.113C50.4 31.097 50.2266 30.9213 50.1791 30.7895C50.1273 30.6481 50.1659 30.5295 49.8142 30.3737C49.803 30.3677 49.7907 30.362 49.7772 30.3566C49.4073 30.21 48.6387 30.5604 48.07 30.0146C49.2021 29.3124 47.0614 28.7616 46.5852 29.465C46.3375 29.3485 46.1461 29.2156 45.8623 29.0989C47.0782 27.3025 45.1469 28.0299 44.4767 27.9631C43.8227 27.915 44.1492 27.4301 44.0235 27.379C43.6623 27.2235 43.771 27.5786 43.5358 27.4361C42.2638 26.6514 41.3347 25.624 40.3679 24.6934C40.1179 24.4566 39.8747 24.2182 39.6336 23.9854C39.4467 23.8036 39.3903 24.201 39.1923 23.9678C38.9927 23.7308 39.0217 23.3015 38.7079 23.0101C38.6243 22.9317 38.3917 23.1048 38.267 22.9741C36.9877 21.6135 35.9419 20.2498 34.8891 19.0205C34.3685 18.4126 33.8378 17.8278 33.3431 17.3936C33.1019 17.1801 32.8625 17.0092 32.7308 16.9376C32.585 16.8513 32.6738 16.955 33.0273 16.8656C33.1864 16.8254 33.5424 16.997 33.7177 16.9746C33.9253 16.7729 33.9321 16.7526 33.9404 16.7391C33.8973 16.7321 33.185 17.41 33.0488 18.0446C33.0082 18.2193 33.4216 18.3249 33.3756 18.5577C33.2276 19.3194 32.8271 20.0205 32.7448 20.9129C32.609 22.4237 32.9489 24.0263 32.8504 25.6315C32.8338 25.9426 32.4737 25.9179 32.421 26.367C32.3354 27.1546 32.8176 26.7975 32.904 26.9426C33.1851 27.3994 32.5262 27.6689 32.7655 28.1125C32.8027 28.1816 33.1926 28.0218 33.208 28.0861C33.4245 29.1007 32.486 29.2927 33.1741 30.3037C32.7976 31.361 32.3365 29.7844 32.0234 29.649C31.2564 29.3425 30.6061 30.5796 30.4597 31.2789C30.3346 31.8934 30.7682 31.8006 30.8092 32.0225C31.0299 33.2204 31.475 34.9166 31.4787 35.8679C31.4768 36.4272 31.0795 35.5084 30.9997 35.8133C30.9193 36.1153 31.2827 36.2147 30.9943 36.5771C30.7048 36.9371 29.8065 37.7743 29.2843 37.7822ZM73.4107 38.7339C73.2207 36.761 74.9312 34.0704 75.4719 31.6295C75.6868 30.8227 76.0742 30.2173 76.3692 29.7086C77.5121 27.8587 79.6239 26.9311 77.7039 26.3554C76.7504 28.1061 75.9035 29.4478 75.239 31.5803C75.1733 31.8959 75.0828 32.2177 74.9656 32.5452C74.9049 32.7829 74.1761 34.0444 73.8897 34.4618C73.7376 34.7044 73.4543 34.5554 73.2655 34.8859C73.2274 34.9566 73.3419 35.5755 73.2362 35.717C72.8939 36.2147 71.3293 37.2553 71.1875 37.4518C70.8092 38.0247 71.3613 38.1282 71.2455 38.4195C70.8402 39.398 70.1895 39.0023 69.7253 39.9296C69.6547 40.0709 69.7224 40.7415 69.3937 41.2562C69.3341 41.3476 69.2661 41.4371 69.1872 41.5249C68.9592 41.7515 68.3757 42.1741 68.3158 42.4821C68.1413 43.2135 68.2989 43.9657 68.5393 44.5865C68.811 45.2827 69.1048 45.9321 69.2652 46.5529C69.5185 47.4923 68.9653 47.4173 69.0907 47.9374C69.2249 48.4606 70.0198 48.8015 70.2015 49.0996C70.4886 49.5827 70.5221 50.3424 70.6147 50.4966C72.4101 53.5012 74.7366 55.5364 77.0168 57.8747C75.7061 56.0674 74.3881 54.2604 73.3359 52.3592C72.2056 51.6478 72.9512 51.8668 72.6511 51.1108C72.4252 50.509 71.5826 50.8373 71.2481 50.0386C71.2484 50.0392 71.2488 50.0398 71.2491 50.0404C71.0772 49.6241 71.1935 48.5249 70.61 47.7891C70.5905 47.7623 70.1261 47.8695 69.8605 47.2151C69.5631 46.4727 69.1933 45.5199 68.9317 44.5049C68.6396 43.5241 68.8128 42.3269 69.4376 41.6469C69.5116 41.5585 69.5871 41.51 69.661 41.4837C69.9306 41.389 70.1902 41.5591 70.5419 41.2186C70.8684 40.9013 70.8681 40.2145 71.3971 39.7325C72.058 39.1322 72.9365 39.258 72.466 38.1206C72.799 38.3118 73.0784 38.5578 73.4107 38.7339ZM55.2112 27.2796C55.0644 27.2998 53.1923 26.6069 53.9923 27.6973C56.3077 27.6179 58.4811 26.3711 60.7652 25.7296C59.5251 24.8933 58.4791 25.8935 56.9758 26.5843C56.9751 26.5846 56.9745 26.5849 56.9738 26.5851C56.9033 26.6172 57.0846 26.1939 56.697 26.4089C56.5105 26.513 55.9174 27.279 55.2112 27.2796Z" fill="#F6C445"/>
</g>
<g filter="url(#filter1_g_139_1481)">
<path d="M103.709 129.467C101.646 132.096 99.3665 135.415 99.4334 136.55C98.7485 136.319 98.0317 135.967 97.0874 135.761C94.7333 135.246 93.2933 135.671 90.9285 136.133C88.7498 136.558 87.7878 136.726 85.8171 137.274C84.0126 137.775 81.2617 138.772 81.2617 138.772C81.2617 138.772 77.3978 140.124 77.5663 140.899C77.7347 141.674 78.8668 143.526 79.7775 144.895C80.5466 146.052 81.3309 146.684 82.3729 147.858C83.2969 148.899 84.043 149.835 84.8634 150.589C86.1502 151.773 87.5026 152.66 87.8165 153.541C87.8932 153.756 87.8962 154.047 87.8585 154.302C87.6843 155.484 87.4058 157.446 86.8558 159.728C86.2822 162.107 86.3046 163.437 85.8223 165.468C85.4614 166.988 84.7501 168.307 85.5347 170.113C85.7047 170.505 86.0387 170.767 87.2562 170.375C90.6066 169.297 93.4597 167.63 96.0978 166.88C100.185 165.717 103.063 165.163 103.704 165.533C104.172 165.802 105.855 166.257 107.961 167.227C110.966 168.609 115.385 170.451 116.628 171C118.393 171.78 120.107 172.861 121.035 173.003C121.249 173.036 121.587 173.012 121.615 172.823C121.739 172.004 121.72 170.073 121.819 167.545C121.868 166.289 121.868 165.085 121.897 163.531C121.946 160.934 120.846 158.009 122.289 156.38C122.771 155.835 124.659 154.601 126.74 152.602C128.117 151.278 129.265 150.674 130.452 150.119C132.22 149.295 133.194 148.558 134.477 147.812C134.805 147.621 135.204 147.357 134.584 147.103C132.546 146.27 130.072 145.175 126.965 144.018C124.914 143.255 121.896 142.316 119.971 141.516C117.133 140.337 115.529 139.588 115.151 138.586C114.974 138.116 115.039 137.326 114.675 136.556C114.15 135.446 113.791 134.477 113.554 132.777C113.379 131.523 113.316 130.643 113.014 129.039C112.452 126.054 112.124 123.87 110.767 122.951C110.553 122.806 110.297 122.764 110.14 122.93C109.793 123.299 105.825 126.77 103.709 129.467Z" fill="#FF60AD"/>
<path d="M95.9317 136.709C95.8313 135.199 96.0371 134.806 96.1361 134.255C96.258 133.754 96.395 133.353 96.5485 132.981C96.8556 132.243 97.232 131.636 97.6921 131.096C97.9024 130.85 98.1598 131.059 98.2755 130.98C98.4877 130.837 98.4149 130.314 98.4468 130.268C98.6376 129.983 99.0346 130.423 99.0789 130.398C99.5594 130.119 98.939 129.86 99.1692 129.429C99.4693 128.87 100.041 128.296 100.524 127.724C100.682 127.539 100.929 127.833 101.216 127.51C101.242 127.481 101.268 127.448 101.295 127.409C101.546 127.039 102.033 125.713 102.822 125.656C102.972 125.79 103.086 125.995 103.219 126.158C103.16 124.986 103.401 124.783 104.354 124.116C104.505 124.01 104.383 123.644 104.701 123.511C105.017 123.38 105.398 123.751 105.848 123.309C106.006 123.152 105.845 122.786 106.085 122.538C106.328 122.284 106.704 122 107.105 121.726C107.309 121.586 107.517 121.449 107.718 121.319C107.819 121.254 107.916 121.192 108.009 121.133C108.081 121.093 108.234 120.969 108.161 121.068C108.949 120.206 110.283 120.045 110.891 120.198C111.56 120.329 111.931 120.563 112.241 120.774C112.341 120.848 112.432 120.919 112.515 120.985C114.743 123.109 115.16 124.131 115.415 125.678C115.425 125.796 114.967 125.637 115.007 125.847C115.045 126.057 115.623 126.158 115.647 126.206C115.903 126.738 115.384 127.956 115.523 128.215C115.638 128.432 115.727 128.491 115.805 128.514C115.957 128.564 116.07 128.447 116.257 129.119C116.534 130.111 115.974 131.549 115.951 132.386C115.95 132.406 115.95 132.425 115.951 132.443C115.972 133.357 116.968 133.342 116.119 134.202C116.272 134.655 116.467 135.089 116.717 135.589C116.997 136.162 117.136 136.744 117.214 137.195C117.253 137.421 117.28 137.618 117.302 137.748C117.32 137.872 117.356 137.946 117.301 137.775C117.206 137.533 117.164 137.559 117.295 137.649C117.416 137.74 117.641 137.879 117.897 138.012C118.417 138.285 119.061 138.561 119.716 138.828C119.624 139.022 119.531 139.216 119.437 139.409C119.691 139.357 119.95 139.305 120.203 139.253C120.111 139.387 120.021 139.523 119.929 139.656C120.225 139.613 120.502 139.583 120.777 139.574C121.54 139.519 122.253 139.626 123.046 140.041C123.066 140.052 122.866 140.434 122.881 140.451C123.106 140.617 123.498 140.405 123.697 140.555C124.175 140.917 124.806 142.118 124.765 140.899C125.632 141.376 126.729 141.584 127.738 141.942C128.117 142.077 128.477 142.229 128.796 142.418C129.292 142.711 129.203 143.403 129.439 143.538C129.675 143.673 129.762 143.082 129.859 143.097C130.444 143.189 131.313 143.57 131.158 144.209C131.362 144.013 131.576 143.816 131.784 143.619C131.447 144.258 133.193 144.664 133.607 144.858C133.684 144.893 133.573 145.189 133.632 145.211C134.299 145.446 134.648 145.056 135.261 145.13C135.405 145.147 135.224 145.329 135.264 145.441C135.298 145.479 135.347 145.512 135.461 145.565C135.582 145.634 135.723 145.634 136.147 145.981C136.204 146.032 136.264 146.043 136.377 146.107C136.48 146.175 136.685 146.263 136.916 146.779C137.196 147.281 137.023 148.458 136.652 148.908C136.316 149.405 136.026 149.605 135.786 149.758C135.738 149.787 135.693 149.814 135.654 149.837C134.887 150.283 133.229 151.605 131.891 151.968C131.783 151.999 131.845 151.363 131.446 151.698C131.352 151.775 131.423 151.933 131.371 152.089C131.352 152.169 131.301 152.246 131.184 152.303C130.084 152.83 129.003 153.158 128.207 154.129C128.049 154.313 127.9 154.502 127.758 154.701C127.511 154.334 127.618 153.569 127.138 154.383C127.061 154.513 127.403 154.731 127.364 154.785C127.042 155.226 126.512 155.316 126.173 155.793C126.071 155.936 126.235 156.198 126.117 156.388C125.944 156.668 125.564 156.413 125.402 156.778C125.154 157.347 125.33 157.731 124.335 157.483C124.228 157.572 124.124 157.659 124.041 157.734C123.962 157.802 123.877 157.892 123.934 157.837C123.861 157.866 123.72 158.583 123.866 159.68C123.979 160.759 124.23 162.039 124.178 163.574C124.132 164.567 124.072 165.569 123.953 166.603C124.017 166.949 124.082 167.292 124.139 167.636C124.27 168.353 124.393 169.06 124.436 169.837C124.454 170.169 123.898 170.218 124.069 170.759C124.107 170.874 124.677 171.778 123.549 171.872C123.634 172.129 123.629 172.29 123.671 172.534C123.849 172.364 124.025 172.195 124.199 172.04C124.113 172.396 124.114 172.715 124.097 173.199C123.991 174.173 123.195 174.947 122.776 175.165C122.323 175.428 122.037 175.492 121.797 175.554C121.321 175.658 121.038 175.68 120.628 175.659C119.979 175.631 119.606 175.569 119.237 175.494C118.488 175.328 119.165 175.094 118.758 174.965C118.375 174.838 118.168 174.855 118.028 174.14C117.418 174.575 117.425 174.053 116.899 173.767C116.842 173.736 116.4 173.801 116.159 173.63C115.987 173.506 116.104 173.102 115.778 173.026C115.772 173.025 115.756 173.026 115.732 173.029C115.547 173.054 114.803 173.179 114.587 173.132C114.204 173.049 113.852 172.321 113.783 172.285C112.824 171.774 112.229 172.09 111.859 170.992C111.514 171.401 110.801 171.421 110.34 171.167C109.757 170.846 108.967 169.352 108.351 170.29C107.848 169.524 107.802 169.839 106.96 169.465C106.952 169.461 106.944 169.458 106.936 169.454C106.259 169.121 104.558 168.034 103.881 167.867C103.195 167.68 103.305 168.377 102.961 168.332C102.726 168.293 102.59 168.192 102.532 168.096C102.474 167.999 102.494 167.911 102.403 167.792C102.528 167.822 102.706 167.876 102.839 167.916C103.188 168.009 103.07 167.968 103.005 167.993C102.92 168.007 102.792 168.034 102.656 168.073C102.377 168.15 102.069 168.269 101.742 168.429C101.648 168.121 101.551 167.813 101.452 167.506C101.434 167.618 101.417 167.729 101.399 167.841C101.245 167.867 101.071 167.909 100.923 167.929C102.412 169.056 99.7362 168.064 98.9528 168.246C98.3365 168.372 97.509 169.237 96.8711 169.599C96.8529 169.61 96.8347 169.621 96.8167 169.632C96.6902 169.706 96.6859 169.347 96.6599 169.363C96.3463 169.562 96.3735 169.799 95.8945 169.936C95.641 170.01 95.2221 169.709 94.9614 169.805C93.0527 170.517 91.2818 171.883 89.0686 172.724C88.7237 172.856 88.2777 172.543 87.9584 172.557C87.9207 172.56 87.8843 172.566 87.8493 172.576C87.2258 172.702 87.0696 173.367 85.5708 173.206C85.1759 173.138 84.5762 172.909 84.0839 172.438C83.5867 171.969 83.3631 171.411 83.2903 171.089C83.2579 170.729 83.2535 170.395 83.1591 170.205C82.9701 169.796 82.6767 170.686 82.6096 169.819C82.5958 169.424 83.0913 170.016 83.0139 169.557C82.7165 168.113 82.8496 166.081 83.5109 165.44C83.3931 165.447 83.282 165.472 83.1659 165.49C83.2449 165.256 83.3244 165.063 83.3978 164.892C83.6409 164.283 83.9034 163.698 84.0428 162.934C84.1086 162.583 83.8802 161.853 83.9449 161.461C84.0086 161.073 84.3897 160.954 84.4569 160.645C84.4859 160.517 84.164 160.508 84.187 160.423C84.3207 159.933 84.5425 159.573 84.7633 159.223C85.0148 158.859 85.2553 158.492 85.3345 157.94C85.5202 156.652 85.6495 155.359 85.77 153.995C85.7709 153.993 85.6969 153.896 85.788 154.264C85.8533 154.463 85.7874 154.333 85.6245 154.201C85.4643 154.059 85.2332 153.875 84.9794 153.681C84.4671 153.29 83.8634 152.852 83.2525 152.34C82.3773 151.597 81.7046 150.86 81.0676 150.205C80.9587 150.093 80.5771 150.284 80.3852 150.158C80.0903 149.965 80.3548 149.713 80.3342 149.67C80.334 149.669 80.3337 149.669 80.3334 149.668C80.2102 149.413 80.036 149.722 79.7853 149.451C79.2818 148.904 78.2106 147.444 77.539 146.425C77.5324 146.416 77.5257 146.406 77.5191 146.397C77.024 145.694 76.5409 145.05 76.0556 144.377C75.8131 144.039 75.5702 143.696 75.322 143.306C75.0713 142.868 74.8262 142.628 74.5091 141.564C74.1987 139.843 74.9375 139.027 75.1756 138.648C75.4793 138.248 75.716 138.04 75.9047 137.871C76.2936 137.535 76.5824 137.342 76.8646 137.158C77.0417 137.044 77.1624 137.535 77.4593 137.385C78.8304 136.736 79.2547 136.383 80.2596 135.909L80.2277 135.92C80.6686 135.712 81.1779 135.508 81.9206 135.301C82.7351 135.075 83.7872 134.789 85.049 134.508C86.8234 134.104 88.916 133.822 90.4315 133.59C90.7379 133.542 91.0357 133.492 91.3226 133.441C91.3228 133.442 91.323 133.443 91.3233 133.445C91.9344 132.396 93.2938 132.345 94.4993 132.984C92.9152 133.609 91.8066 134.282 90.6531 134.723C89.0247 135.358 87.2588 135.756 85.5276 136.231C83.9531 136.658 82.4236 137.098 80.8466 137.627L80.8594 137.622C80.2216 137.838 79.6204 138.072 78.9984 138.361C78.5996 138.548 78.2049 138.752 77.7926 139.017C77.5858 139.152 77.3773 139.296 77.1436 139.506C77.0265 139.614 76.8997 139.734 76.7554 139.937C76.6356 140.126 76.3626 140.491 76.489 141.133C77.2578 143.05 78.2583 143.969 79.2776 145.228C80.1961 146.32 81.3261 147.041 82.2982 147.924C83.2271 148.748 84.0938 149.654 85.0205 150.419C85.8351 151.097 86.7111 151.697 87.4531 152.522C87.7697 152.892 87.6307 153.317 87.6641 153.595C87.6697 153.654 87.6832 153.715 87.7123 153.786C87.7391 153.866 88.1118 153.587 88.1778 153.866C88.2095 154.028 88.2205 154.191 88.2145 154.355C88.1858 156.178 87.7099 158.025 87.1352 159.795C86.6861 161.144 86.4233 162.537 86.3171 163.913C86.245 164.725 86.576 164.981 86.5779 165.647C86.577 165.71 86.573 165.776 86.565 165.846C86.48 165.747 86.3884 165.662 86.2953 165.58C86.2055 165.502 86.1146 165.427 86.0266 165.347C86.0047 165.398 85.9827 165.449 85.9606 165.501C85.2964 166.916 84.542 168.596 85.2948 170.218C85.3641 170.392 85.504 170.601 85.7128 170.711C85.9188 170.823 86.1292 170.842 86.3157 170.84C86.6908 170.829 87.0186 170.735 87.3394 170.633C88.5557 170.238 89.7346 169.742 90.9199 169.265C91.0708 169.205 91.2633 169.594 91.4262 169.541C91.7531 169.435 91.8586 168.866 92.1231 168.731C92.4684 168.556 92.6695 168.845 92.9853 168.682C93.1402 168.602 92.9593 168.318 93.3291 168.221C93.3599 168.213 93.5159 168.524 93.7276 168.386C94.3024 168 95.4995 167.234 96.0285 167.003C96.0596 166.989 96.0907 166.976 96.1218 166.964C96.7662 166.727 97.4164 167.047 97.6761 167.011C98.4147 166.91 98.2667 166.394 98.8784 166.241C100.439 165.888 102.292 165.439 103.561 165.782C105.03 166.513 106.374 167.028 107.716 167.76C108.851 168.359 110.014 168.923 111.221 169.445C111.487 169.561 112.708 169.436 113.189 169.668C113.351 169.748 114.151 170.262 114.274 170.328C114.782 170.599 115.088 171.123 115.349 171.317C115.641 171.536 116.05 171.543 116.396 171.525C116.646 171.513 116.873 171.494 117.007 171.532C117.571 171.685 118.455 172.227 118.668 172.351C119.18 172.651 118.691 173.187 119.156 173.234C119.295 173.246 119.405 172.709 119.813 172.898C120.156 173.053 120.15 173.486 120.415 173.65C120.528 173.719 120.734 173.681 120.944 173.595C121.275 173.479 121.475 173.239 121.616 173.175C121.712 173.138 121.851 173.023 121.881 172.863C122.092 172.147 122.437 171.781 122.483 170.948C122.508 170.442 122.415 168.721 122.334 167.565C122.294 166.997 122.239 166.566 122.194 166.472C121.563 165.178 121.816 167.314 121.782 167.434C121.773 167.473 121.763 167.509 121.754 167.542C121.603 168.069 121.409 168.016 121.842 168.638C120.34 169.175 122.609 171.271 120.826 171.715C121.637 172.114 121.569 172.472 121.338 172.781C121.337 172.593 121.315 172.567 121.212 172.489C121.173 172.459 121.141 172.433 121.124 172.416C120.811 172.208 121.009 172.844 120.547 172.699C120.332 172.628 119.986 171.885 119.662 171.804C119.334 171.725 119.023 172.023 118.611 171.838C117.874 171.507 117.392 171.05 116.951 170.319C116.94 170.326 116.93 170.333 116.92 170.341C116.732 170.482 116.545 170.625 116.358 170.767C116.019 170.368 115.679 169.972 115.341 169.577C115.336 169.78 115.326 169.983 115.323 170.187C115.187 170.158 115.05 170.128 114.915 170.098C114.61 169.659 114.313 169.247 114 168.794C112.405 169.299 113.116 168.575 112.526 168.166C111.937 167.758 111.313 168.176 110.813 167.961C110.141 167.671 109.801 167.608 109.146 167.265C108.766 167.066 108.363 166.212 108.502 167.337C108.342 167.275 108.17 167.211 107.998 167.148C106.808 166.7 105.326 166.335 104.459 165.664C104.172 165.436 104.711 165.31 104.669 165.254C104.474 165.001 104.078 165.321 103.892 165.207C103.868 165.192 103.843 165.178 103.819 165.162C103.115 164.775 102.062 164.615 101.612 164.573C100.973 164.535 100.181 165.356 100.105 165.422C99.6447 165.788 99.3898 165.305 99.2325 165.379C98.3387 165.812 98.1986 166.084 97.6176 165.077C97.4923 165.608 96.7048 166.666 96.242 165.952C96.3246 166.258 96.2131 166.452 96.0188 166.602C95.7599 166.8 95.3686 166.932 95.1177 167.132C94.9536 166.964 94.7866 166.799 94.6167 166.633C94.026 168.238 91.6795 168.264 90.2772 168.694C90.243 168.705 90.3991 169.238 90.149 169.208C90.1323 169.204 90.0567 168.968 89.9096 168.995C89.421 169.1 87.5125 169.163 87.3236 169.207C87.1623 169.257 87.0382 169.315 86.9358 169.38C86.6342 169.58 86.5479 169.863 86.3029 169.91C86.1515 169.934 86.1371 169.857 86.2031 169.831C86.2669 169.798 86.3572 169.815 86.3665 169.752C86.3546 169.672 86.3309 169.59 86.285 169.495C86.195 169.306 85.654 169.215 85.6783 168.808C85.6989 168.574 86.0852 168.543 86.1175 168.387C86.2454 167.835 86.142 167.317 86.7972 166.845C85.6711 166.343 86.6243 166.3 86.8032 165.982C86.8484 165.902 86.8901 165.818 86.9283 165.73C87.4997 164.468 87.2233 162.852 87.4919 161.879C87.6662 161.233 87.8746 160.624 88.1129 160.031C88.821 158.218 89.4574 156.411 89.939 154.609C90.0236 154.109 90.1263 153.679 89.8781 152.806C89.3703 151.43 88.7698 151.003 88.3012 150.494C87.8404 150.048 87.3433 150.44 86.9264 150.037C86.7421 149.857 86.8312 149.353 86.5512 149.094C86.4991 149.046 86.4345 149.002 86.3625 148.96C86.146 148.841 85.8315 148.714 85.6303 148.496C85.5601 148.421 85.8601 148.132 85.7612 148.019C85.2858 147.473 84.6844 146.927 84.026 146.391C83.6251 146.058 83.2109 145.751 82.8261 145.46C82.4379 145.167 82.6676 144.604 82.0151 145.311C82.0708 145.026 82.1167 144.772 82.1983 144.512C81.6492 144.502 81.5693 144.153 81.442 143.788C81.3578 143.578 81.2528 143.357 81.0599 143.151C80.9958 143.087 80.0852 142.89 80.3081 142.33C80.0021 142.484 79.7828 142.683 79.5124 142.834C79.2081 142.586 79.2719 141.903 79.1988 141.679C79.1229 141.454 78.6588 141.518 78.6225 141.455C78.4948 141.218 79.0549 141.031 79.0548 141.009C79.064 140.726 79.0945 140.536 79.1433 140.557C79.2552 141.026 79.1176 141.327 79.0666 141.441C79 141.573 78.9603 141.605 78.9319 141.622C78.8751 141.651 78.8531 141.596 78.8267 141.52C78.781 141.361 78.7316 141.079 78.8049 140.646C78.8487 140.342 80.3142 140.367 80.3083 139.635C80.4269 139.891 80.4519 140.149 80.5355 140.406C80.928 140.322 81.336 140.244 81.7225 140.182C81.5563 139.954 81.3657 139.735 81.1981 139.506C81.3053 139.498 81.4146 139.475 81.4991 139.45C82.1808 139.241 82.6102 138.579 83.193 138.4C83.5753 138.285 83.719 138.869 83.8985 138.671C83.9338 138.632 83.7328 138.273 83.852 138.199C84.6449 137.713 85.1932 137.797 85.9445 137.732C86.1169 137.717 86.2983 137.695 86.4972 137.657C87.0024 137.563 87.2704 136.734 88.1065 137.043C88.1857 137.07 89.0223 137.559 89.2832 136.555C89.4826 136.816 89.636 136.944 89.7901 137.167C90.2952 135.939 90.4055 136.573 91.0822 136.919C91.2565 137.006 91.4647 137.074 91.7261 137.088C92.4212 137.107 94.3586 136.492 94.9791 136.394C95.3521 136.305 95.3743 135.766 95.4477 135.746C95.8927 135.648 95.843 136.177 96.2344 136.141C96.4657 136.122 96.7674 135.947 97.0698 135.841C97.283 135.765 97.4969 135.729 97.6611 135.801C97.9619 135.938 97.5183 136.483 98.0277 136.416C98.1362 136.403 98.06 135.779 98.4588 136.16C98.5228 136.219 99.0469 137.075 99.1957 137.257C98.6036 137.428 97.3527 137.407 96.9998 137.483C96.8996 137.494 96.8006 137.507 96.7025 137.523C95.0632 137.667 93.9632 138.273 91.5094 139.105C89.864 139.651 88.3694 140.106 86.7705 140.707C85.4896 141.193 83.9774 141.808 82.5705 142.382C82.5623 142.385 82.5383 142.394 82.5301 142.397C82.0171 142.613 81.3685 142.9 80.891 143.149C80.6521 143.273 80.4287 143.403 80.348 143.465C80.3146 143.488 80.3073 143.514 80.4709 143.376C80.556 143.295 80.6852 143.2 80.9418 142.826C81.1462 142.488 81.7406 141.616 81.4438 140.057C81.3637 139.717 81.3753 139.812 81.4053 139.859C81.437 139.925 81.4928 140.035 81.5567 140.154C81.686 140.395 81.8484 140.676 82.0183 140.96C82.3599 141.529 82.7361 142.118 83.1069 142.681C83.4565 143.269 84.329 144.077 85.3257 145.237C86.0643 146.105 86.6548 146.864 87.1022 147.374C87.2459 147.538 87.3087 147.715 87.346 147.891C87.4551 148.236 87.5165 148.609 87.7296 148.831C88.0745 149.188 88.0882 148.511 88.417 148.845C88.7582 149.193 88.8124 149.719 89.2173 150.149C89.6305 150.636 90.2062 151.098 90.7308 152.502C91.0637 153.625 90.9453 154.131 90.8627 154.745C90.466 156.564 90.0089 158.496 89.4709 160.358C89.3708 160.697 89.2818 161.032 89.2018 161.373C89.0467 162.041 89.3924 162.643 89.2952 163.325C89.2566 163.593 88.7094 163.524 88.6856 163.72C88.5914 164.476 88.5293 165.287 88.4307 166.087C88.3174 166.902 88.1923 167.543 88.1722 167.953C88.1479 168.376 88.201 168.495 88.2052 168.645C88.2096 168.717 88.1705 168.821 88.1483 168.978C88.0662 168.867 87.7885 168.441 87.3218 168.183C86.8595 167.923 86.495 167.93 86.3538 167.955C86.0662 168.024 86.226 168.095 86.3508 168.066C86.396 168.059 86.4451 168.043 86.4983 168.02C87.0138 167.816 87.4601 167.396 87.9266 167.209C88.2154 167.091 88.5273 167.418 88.6478 167.405C89.0637 167.354 88.7379 166.932 88.9277 166.853C89.4537 166.635 89.9656 167.088 90.4537 166.821C90.6454 166.716 90.4601 166.366 90.7269 166.181C91.0666 165.946 91.0766 166.34 91.3492 166.234C91.366 166.228 91.1995 165.993 91.3376 165.92C92.2226 165.449 93.3471 164.722 94.4093 164.385C94.7028 164.29 95.0063 164.209 95.3192 164.142C97.045 163.796 98.8123 163.761 100.507 163.524C101.006 163.457 100.815 163.12 100.972 163.074C101.779 162.867 102.03 163.233 103.149 163.061C103.221 163.055 103.35 162.994 103.596 162.946C103.863 162.926 104.141 162.769 105.062 163.177C104.898 163.022 105.053 163.071 105.135 163.145C105.289 163.279 105.462 163.678 105.641 163.821C105.823 163.965 106.016 163.537 106.274 163.63C106.746 163.803 106.496 164.052 107.197 164.261C107.461 164.34 108.456 164.311 109.16 164.622C109.194 164.637 109.228 164.653 109.261 164.67C110.263 165.191 111.405 166.136 112.651 166.683C113.078 166.871 113.819 166.667 114.488 166.948C115.308 167.293 116.759 168.026 117.631 168.413C117.676 168.433 117.713 168.454 117.743 168.477C118.08 168.714 117.932 169.107 117.975 169.147C118.266 169.439 118.366 168.864 118.591 168.997C118.898 169.181 118.997 169.696 119.255 169.859C119.42 169.963 119.636 169.607 119.674 169.623C120.124 169.805 120.534 169.987 120.889 170.136C121.065 170.21 121.227 170.275 121.35 170.317C121.464 170.36 121.574 170.376 121.441 170.348C121.249 170.323 121.184 170.311 120.903 170.351C120.759 170.381 120.564 170.403 120.176 170.617C119.822 170.783 119.058 171.508 118.95 172.419C118.96 172.333 118.978 172.025 118.98 171.739C118.99 170.413 118.951 168.907 118.957 167.433C118.955 166.176 118.903 164.842 118.878 163.474C118.853 162.658 118.625 161.554 118.452 160.152C118.356 158.838 117.935 156.577 119.851 154.222C120.352 153.676 120.533 153.563 120.768 153.355C120.989 153.17 121.186 153.011 121.377 152.855C121.759 152.547 122.115 152.259 122.466 151.968C123.162 151.391 123.822 150.815 124.452 150.221C125.319 149.395 126.366 148.6 127.472 148.002C128.228 147.599 128.495 148.061 129.058 147.696C129.127 147.652 129.188 147.595 129.244 147.53C129.557 147.106 129.561 146.278 130.412 147.057C130.302 146.83 130.214 146.674 130.114 146.467C131.04 146.307 131.749 145.547 132.753 144.845C132.788 144.816 132.777 144.809 132.679 144.871C132.577 144.965 132.386 144.976 131.887 145.743C131.623 146.142 131.261 147.208 131.54 148.212C131.809 149.198 132.286 149.617 132.526 149.846C133.043 150.275 133.167 150.268 133.267 150.324C132.62 150.064 132.045 149.79 131.454 149.519C130.79 149.213 131.017 148.832 130.218 149.119C128.789 148.32 127.321 147.659 125.854 147.002C124.571 146.424 123.169 145.829 121.832 145.062C120.815 145.698 120.324 144.905 119.352 144.375C119.231 144.308 119.244 144.683 118.869 144.5C118.829 144.48 118.793 144.458 118.759 144.434C118.422 144.185 118.345 143.682 117.645 143.409C117.454 143.339 115.687 143.191 115.143 142.516C114.694 141.889 113.582 141.104 113.168 139.507C113.044 139.791 112.989 140.143 112.941 140.468C112.761 140.224 112.587 139.935 112.447 139.605C112.21 139.012 112.169 138.711 112.106 138.48C112.365 138.387 112.626 138.303 112.888 138.223C112.61 138.08 112.341 137.984 112.07 137.95C112.734 137.737 112.958 137.675 112.968 137.645C112.98 137.622 112.762 137.572 112.569 137.568C112.555 137.568 112.544 137.569 112.534 137.569C112.26 137.241 112.291 136.832 111.997 136.435C111.882 136.281 111.457 136.306 111.336 136.116C111.048 135.647 111.679 135.771 111.582 135.466C111.488 135.169 110.767 134.857 110.926 134.245C112 134.547 111.561 133.349 110.856 133.153C110.783 133.135 110.706 133.126 110.627 133.13C110.601 132.954 110.617 132.802 110.568 132.615C112.727 132.514 111.1 131.817 110.766 131.532C110.432 131.243 111.007 131.183 110.974 131.11C110.882 130.901 110.666 131.092 110.637 130.943C110.545 130.465 110.539 129.994 110.532 129.507C110.517 128.954 110.521 128.411 110.436 127.89C110.412 127.743 110.116 127.934 110.115 127.761C110.114 127.588 110.401 127.363 110.327 127.128C110.308 127.064 110.023 127.106 110.001 127.009C109.781 125.808 109.38 124.885 109.423 124.935C109.582 125.028 109.77 125.139 110.187 125.187C110.57 125.258 111.43 125.057 111.857 124.546C111.666 124.736 111.638 124.748 111.546 124.83C111.473 124.892 111.4 124.953 111.326 125.016C111.186 125.133 111.041 125.256 110.905 125.371C110.626 125.609 110.351 125.849 110.079 126.096C109.925 126.236 110.154 126.722 109.851 126.985C109.548 127.249 108.788 127.342 108.408 127.667C108.308 127.753 108.582 128.08 108.451 128.195C108.007 128.585 107.404 128.706 106.946 129.112C106.369 129.624 105.942 130.296 105.465 130.844C105.29 131.048 105.099 131.244 104.887 131.417C104.727 131.549 104.465 131.308 104.208 131.481C103.767 131.781 104.297 131.939 104.292 132.061C104.276 132.46 103.659 132.138 103.614 132.502C103.607 132.558 103.979 132.74 103.959 132.78C103.625 133.368 102.817 132.853 102.836 133.737C102.023 133.963 102.463 132.968 102.293 132.708C101.868 132.074 100.761 132.204 100.29 132.435C99.8841 132.632 100.258 132.87 100.175 132.999C99.735 133.685 99.2077 134.762 98.7648 135.34C98.4882 135.707 98.607 134.899 98.3906 135.052C98.1695 135.21 98.4279 135.459 98.0033 135.618C97.7891 135.712 97.3792 135.849 96.9703 136.143C96.558 136.407 96.1976 136.889 95.9317 136.709ZM127.53 153.406C127.195 151.918 128.736 150.416 130.297 149.787C130.852 149.538 131.375 149.314 131.799 149.125C133.091 148.537 134.833 148.998 133.568 147.503C132.336 148.255 131.49 149 130.199 149.577C130.078 149.631 129.955 149.686 129.828 149.742C129.67 149.803 128.644 150.134 128.307 150.321C128.118 150.419 127.937 150.152 127.691 150.322C127.635 150.361 127.591 150.907 127.486 150.974C127.191 151.148 126.228 151.416 125.798 151.622C125.7 151.662 125.633 151.695 125.612 151.719C125.323 152.066 125.788 152.314 125.705 152.515C125.412 153.187 124.86 152.672 124.521 153.281C124.462 153.388 124.576 154.146 124.135 154.392C123.955 154.491 123.477 154.44 123.365 154.548C122.906 155.006 122.51 155.606 122.073 156.189C121.945 156.379 121.835 156.563 121.721 156.735C121.369 157.33 120.981 157.015 120.798 157.398C120.63 157.809 121.176 158.33 121.203 158.559C121.24 158.942 120.934 159.42 120.947 159.541C121.111 161.008 121.538 162.234 121.671 163.527C121.749 164.313 121.827 165.099 121.865 165.909C122.002 165.118 122.129 164.325 122.264 163.538C122.381 162.832 122.419 162.119 122.452 161.426C121.838 160.654 122.371 161.01 122.471 160.452C122.555 160.018 121.658 160.006 121.718 159.43C121.718 159.431 121.718 159.431 121.718 159.432C121.752 159.125 122.336 158.529 122.171 157.983C122.17 157.964 121.7 157.837 121.817 157.384C121.905 157.073 122.042 156.714 122.291 156.382C122.881 155.699 123.668 155.05 124.331 154.585C124.619 154.389 124.869 154.809 125.228 154.59C125.49 154.428 125.467 153.863 125.886 153.626C126.408 153.333 127.152 153.688 126.712 152.634C126.958 152.849 127.172 153.084 127.408 153.298C127.448 153.334 127.489 153.37 127.53 153.406ZM115.18 137.648C115.194 137.604 115.458 137.256 115.521 136.932C115.585 136.607 115.473 136.391 114.942 136.784C114.953 137.435 114.816 137.975 114.972 138.653C115.367 139.716 116.395 140.121 117.152 140.739C117.244 139.355 116.187 139.488 115.509 138.753C115.508 138.752 115.508 138.752 115.508 138.752C115.485 138.723 115.839 138.672 115.683 138.53C115.663 138.509 115.599 138.488 115.522 138.446C115.325 138.355 115.064 137.982 115.18 137.648Z" fill="#FF60AD"/>
</g>
<defs>
<filter id="filter0_g_139_1481" x="1.59277" y="9.59082" width="85.5854" height="84.3574" filterUnits="userSpaceOnUse" color-interpolation-filters="sRGB">
<feFlood flood-opacity="0" result="BackgroundImageFix"/>
<feBlend mode="normal" in="SourceGraphic" in2="BackgroundImageFix" result="shape"/>
<feTurbulence type="fractalNoise" baseFrequency="0.3333333432674408 0.3333333432674408" numOctaves="3" seed="2274" />
<feDisplacementMap in="shape" scale="4" xChannelSelector="R" yChannelSelector="G" result="displacedImage" width="100%" height="100%" />
<feMerge result="effect1_texture_139_1481">
<feMergeNode in="displacedImage"/>
</feMerge>
</filter>
<filter id="filter1_g_139_1481" x="72.4341" y="118.146" width="66.6204" height="59.5195" filterUnits="userSpaceOnUse" color-interpolation-filters="sRGB">
<feFlood flood-opacity="0" result="BackgroundImageFix"/>
<feBlend mode="normal" in="SourceGraphic" in2="BackgroundImageFix" result="shape"/>
<feTurbulence type="fractalNoise" baseFrequency="0.3333333432674408 0.3333333432674408" numOctaves="3" seed="2274" />
<feDisplacementMap in="shape" scale="4" xChannelSelector="R" yChannelSelector="G" result="displacedImage" width="100%" height="100%" />
<feMerge result="effect1_texture_139_1481">
<feMergeNode in="displacedImage"/>
</feMerge>
</filter>
</defs>
</svg>
