<svg width="152" height="132" viewBox="0 0 152 132" fill="none" xmlns="http://www.w3.org/2000/svg">
<g filter="url(#filter0_g_139_1482)">
<path d="M23.6225 90.9534C23.1949 91.1436 20.9442 93.27 19.3218 101.867C18.4428 101.417 16.8421 101.125 16.8421 101.125C16.8421 101.125 14.9483 100.522 13.7043 100.151C10.5356 99.2051 5.41971 97.6063 5.31369 99.0103C5.10317 101.799 8.14006 106.936 8.14006 106.936C8.14006 106.936 11.0288 113.247 10.0015 115.402C8.91469 117.682 5.38173 122.902 5.86231 125.975C5.92059 126.348 6.03041 126.828 6.55502 126.95C7.85081 127.252 10.0724 126.847 12.2326 126.335C15.7092 125.511 20.1893 122.215 24.1328 122.199C25.042 122.195 25.7686 122.796 28.2707 123.694C33.4402 125.547 36.9827 126.991 37.4014 126.821C37.5909 126.744 37.7669 126.472 37.6838 126.206C37.5077 125.643 37.0848 124.9 36.9814 123.945C36.761 121.909 34.4859 117.898 35.4497 113.521C35.6167 112.762 35.9985 112.416 36.4448 112.204C38.2153 111.361 40.4508 110.344 41.6078 108.757C42.6065 107.387 49.6554 103.806 45.7757 102.705C43.1853 101.971 40.2434 102.451 37.9919 102.349C35.1188 102.218 31.0675 102.457 30.1268 101.47C28.5008 99.7617 27.873 98.9062 26.9183 96.9712C25.7757 94.6554 25.2886 90.2126 23.6225 90.9534Z" fill="#009358"/>
<path d="M15.8788 101.209C15.6538 100.106 15.6973 99.023 16.1408 97.9996C16.2432 97.761 16.5567 97.8658 16.6335 97.7788C16.7749 97.6206 16.5109 97.2286 16.5239 97.1809C16.5924 96.9081 17.1199 97.166 17.1511 97.1354C17.4847 96.8042 16.821 96.7404 16.8716 96.3352C16.9373 95.8114 17.2509 95.1948 17.4941 94.5937C17.5812 94.3848 17.9584 94.6265 18.0919 94.1538C18.179 93.828 18.1295 92.6118 18.8431 92.36C19.0272 92.4424 19.2022 92.594 19.3803 92.7049C18.9313 91.6949 19.0705 91.4446 19.8513 90.5621C19.9812 90.4191 19.7899 90.076 20.1074 89.8543C20.4446 89.628 20.8101 89.9664 21.3944 89.3427C21.4941 89.2422 21.5318 89.1081 21.6191 88.928C21.6557 88.8444 21.7129 88.7425 21.7983 88.6337C21.9011 88.5187 21.9868 88.3959 22.391 88.1836C22.4915 88.1246 22.6079 88.0685 22.7442 88.0204C23.4094 87.7163 25.0192 87.7383 25.9183 88.4035C26.8218 89.0161 27.1188 89.6287 27.3423 90.0724C27.7476 90.9773 27.8028 91.5749 27.9328 91.9327C28.3684 93.2734 29.1346 93.7226 29.2395 94.7054C29.2482 94.7795 28.8067 94.7624 28.8434 94.8924C28.8819 95.0273 29.4394 94.9635 29.4619 94.9867C29.6035 95.1359 29.5156 95.478 29.4442 95.725C29.4304 95.985 29.422 96.2069 29.495 96.267C29.9166 96.6032 29.9054 96.0799 30.306 96.592C30.673 97.052 30.4982 98.0381 30.8286 98.6352C31.187 99.2902 32.0774 98.83 31.8077 99.8691C31.7636 99.8679 31.7198 99.8715 31.6768 99.8802C31.4233 99.6604 31.4697 99.7362 31.5813 99.7515C31.6977 99.7805 31.8884 99.8155 32.0976 99.8414C32.521 99.8946 33.0285 99.9224 33.5473 99.9364C34.5938 99.9641 35.7092 99.941 36.8682 99.9363C36.8574 100.151 36.8455 100.365 36.8335 100.579C37.0187 100.435 37.2053 100.29 37.3963 100.149C37.3638 100.307 37.3329 100.466 37.3008 100.624C37.5627 100.446 37.8259 100.297 38.0905 100.183C38.573 99.9097 39.0744 99.782 39.7446 99.8802C39.7632 99.8828 39.7275 100.312 39.7432 100.322C39.9607 100.396 40.1953 100.059 40.3932 100.13C40.8715 100.298 41.7221 101.213 41.3329 100.081C42.4702 100.288 43.9368 99.9297 45.153 100.369C45.6755 100.559 45.6791 101.261 45.9058 101.357C46.1349 101.458 46.166 100.866 46.2608 100.868C46.2724 100.869 46.2842 100.87 46.2961 100.87C46.648 100.91 47.0888 101.03 47.5319 101.398C47.9631 101.734 48.2612 102.43 48.013 102.672C48.3666 102.76 48.7519 103.028 49.0511 103.369C48.8632 103.333 48.8031 103.677 48.6765 104.043C48.5509 104.436 48.3699 104.802 48.1877 105.104C47.8225 105.7 47.4774 106.124 47.313 106.285C47.2507 106.343 47.0202 106.126 46.9787 106.171C46.531 106.654 46.7345 107.12 46.4137 107.595C46.3026 107.758 46.1813 107.145 45.9577 107.627C45.9389 107.667 46.2609 108.055 45.811 108.391C45.1486 108.886 43.7005 110.166 43.4187 110.155C43.415 110.131 43.036 109.864 43.0892 109.837C43.0727 109.864 43.0562 109.896 43.0395 109.935C42.9605 110.109 43.3271 110.284 43.0226 110.643C41.801 112.02 40.1892 112.403 39.1195 113.379C38.9678 112.966 39.1765 112.307 38.6459 112.887C38.5615 112.981 38.8153 113.29 38.7744 113.327C38.4384 113.621 37.9864 113.529 37.6515 113.854C37.5525 113.951 37.6552 114.241 37.5415 114.376C37.5275 114.393 37.5128 114.405 37.4974 114.415C37.523 114.424 37.3542 114.127 37.5403 114.187C37.7166 114.222 37.9161 114.245 37.985 114.202C38.0527 114.166 37.995 114.022 37.5876 113.963C37.5863 113.971 37.5847 113.98 37.5831 113.99C37.1167 116.333 37.9786 118.683 38.6084 121.721C38.9234 122.267 39.2655 122.755 39.5003 123.672C39.5793 123.781 39.6566 123.892 39.7425 124.058C39.8171 124.2 39.2982 124.406 39.6139 124.7C39.6602 124.746 40.091 124.956 40.0279 125.473C40.1336 126.121 39.8775 126.601 39.5361 126.677C39.444 127.581 39.194 127.985 38.4465 128.548C39.1665 128.307 39.6493 127.93 40.042 127.355C39.7004 128.102 39.331 128.643 38.3282 129.108C38.0432 129.223 37.8271 129.261 37.6535 129.284C37.5136 129.302 37.4143 129.307 37.3188 129.309C37.1206 129.312 37.0443 129.306 36.9335 129.3C36.7541 129.289 36.6244 129.277 36.5167 129.271C36.2954 129.256 36.1333 129.255 35.9661 129.255C35.6461 129.259 35.3606 129.279 35.0836 129.266C34.5729 129.239 35.0539 128.894 34.7602 128.845C34.4641 128.792 34.3082 128.852 34.1624 128.189C33.6798 128.721 33.6563 128.218 33.1871 128.028C33.1388 128.008 32.7518 128.141 32.5245 128.002C32.3575 127.901 32.4529 127.495 32.1484 127.451C32.1011 127.444 31.3291 127.706 31.1268 127.681C30.8067 127.642 30.5273 126.973 30.4744 126.947C29.6862 126.557 29.1921 126.935 28.9049 125.912C28.6124 126.351 28.0242 126.457 27.6507 126.27C27.5756 126.232 27.4961 126.166 27.4128 126.087C26.9242 125.649 26.3886 124.794 25.9129 125.604C25.4982 124.897 25.4287 125.196 24.7639 124.916C24.607 124.85 24.3892 124.723 24.2422 124.623C24.0813 124.519 24.0972 124.479 24.1424 124.427C23.7803 124.341 23.3888 124.32 23.2051 124.378C22.7954 124.509 23.1168 125.08 22.9761 125.191C22.7499 125.38 22.7902 124.905 22.6079 124.955C22.0893 125.102 21.6372 125.341 21.1806 125.722C21.041 125.433 20.8971 125.144 20.7534 124.857C20.7623 124.967 20.7718 125.078 20.7814 125.188C20.6626 125.23 20.5333 125.288 20.4196 125.323C21.846 126.264 19.5094 125.571 18.9009 125.826C18.413 126.014 17.8934 126.992 17.4037 127.378C17.2856 127.471 17.232 127.116 17.2081 127.136C16.9263 127.374 16.9766 127.611 16.5162 127.783C16.2695 127.875 15.8498 127.587 15.6106 127.68C14.7295 128.021 13.8698 128.459 12.8218 128.821C11.9627 129.135 11.0825 129.453 10.1046 129.635C9.77206 129.696 9.40831 129.214 9.12458 129.236C8.71502 129.266 8.48533 129.72 8.04834 129.745C7.61203 129.773 6.95987 129.235 6.6075 129.262C6.23335 129.284 6.81143 129.886 6.1156 129.627C5.78901 129.494 6.45344 129.254 6.05258 129.157C6.04871 129.156 6.04483 129.155 6.04094 129.154C5.45712 129.039 4.55782 128.533 4.12394 127.862C3.67692 127.211 3.5634 126.659 3.48123 126.348C3.31347 125.607 3.35514 124.921 3.63545 124.433C3.51942 124.464 3.41209 124.52 3.30004 124.569C3.47758 123.391 4.00211 122.619 4.36953 121.711C4.49945 121.393 4.42559 120.708 4.56096 120.406C4.69467 120.105 5.07891 120.119 5.19548 119.891C5.24443 119.798 4.93924 119.7 4.97536 119.639C5.43395 118.873 6.15281 118.717 6.51263 117.907C7.03646 116.722 7.66405 115.489 8.06149 114.478C7.98175 114.609 8.02696 114.363 7.97601 114.075C7.93538 113.777 7.85475 113.41 7.74897 113.032C7.5361 112.27 7.23084 111.455 6.88915 110.651C6.84305 110.543 6.42555 110.603 6.31105 110.464C6.13351 110.25 6.47146 110.111 6.47169 110.073C6.46691 109.829 6.18217 110.033 6.07219 109.744C5.90794 109.314 5.77116 108.599 5.6274 108.086L5.76129 108.342C5.60896 108.009 5.49603 107.754 5.36659 107.533C4.44508 105.931 3.48997 104.7 2.69686 102.845C2.64014 102.711 3.13624 102.655 3.0686 102.415C2.73759 101.036 2.25622 100.636 2.2501 98.779C2.23454 97.8856 3.04028 96.4975 3.85625 96.0576C4.64856 95.5654 5.20341 95.5018 5.65793 95.4458C9.16689 95.4152 11.8475 96.9407 14.0387 97.5774C14.0383 97.5785 14.038 97.5796 14.0377 97.5807C14.2128 97.4473 14.391 97.3604 14.5526 97.3087C15.2588 97.1104 15.8456 97.5577 16.2439 98.2591C15.5441 98.3892 14.8696 98.4536 14.2066 98.4681C12.6765 98.5138 11.2235 98.239 9.7537 97.9046C9.01609 97.7391 8.27469 97.5524 7.4636 97.4157C7.05331 97.3506 6.6368 97.2898 6.11882 97.3052C5.85592 97.3196 5.56501 97.335 5.16116 97.4996C4.96713 97.5831 4.71658 97.7215 4.49146 97.9881C4.26771 98.2473 4.13236 98.6139 4.11107 98.9195C4.03294 99.7821 4.16459 100.535 4.35026 101.246C4.99387 103.525 6.31991 105.39 7.73712 107.174L7.71444 107.131C9.10923 109.352 10.6367 111.778 10.4785 114.572C10.4173 115.007 9.96611 115.107 9.84637 115.329C9.82866 115.36 9.81553 115.397 9.80789 115.441C9.79567 115.507 10.2283 115.53 10.1742 115.73C9.38861 118.405 7.05656 120.405 6.45021 123.019C6.30279 123.712 6.7044 123.937 6.711 124.507C6.52134 124.375 6.31922 124.266 6.13194 124.13C5.86529 124.705 5.69337 125.337 5.72646 125.996C5.73862 126.215 5.76431 126.452 5.88257 126.684C5.9954 126.918 6.2444 127.114 6.50194 127.178C8.4157 127.589 10.2152 126.999 12.019 126.678C12.1482 126.653 12.2637 127.071 12.4029 127.055C12.403 127.055 12.4032 127.055 12.4033 127.055C12.7031 127.018 12.8406 126.482 13.0655 126.393C13.3628 126.275 13.5264 126.583 13.8028 126.459C13.9347 126.398 13.7785 126.104 14.0889 126.044C14.1147 126.039 14.2575 126.358 14.4363 126.237C14.9268 125.91 15.8505 125.171 16.2317 124.896C16.7208 124.546 17.3718 124.821 17.5878 124.758C18.1714 124.59 17.9359 124.107 18.402 123.898C20.2481 123.079 22.2374 122.507 24.1348 122.657C25.2009 122.865 26.6083 123.893 28.0336 124.355C28.1549 124.4 28.2758 124.444 28.3963 124.487C28.6164 124.566 29.6305 124.297 30.03 124.469C30.1639 124.528 30.8219 124.938 30.9224 124.989C31.3388 125.195 31.5854 125.672 31.7992 125.831C32.2102 126.141 32.9242 125.803 33.1936 125.842C33.67 125.912 34.4346 126.269 34.6162 126.35C35.0553 126.544 34.669 127.148 35.0549 127.111C35.1666 127.098 35.2438 126.559 35.5813 126.675C35.8691 126.775 35.8517 127.194 36.0377 127.329C36.2226 127.465 36.774 126.975 36.8963 127.017C36.9828 127.048 37.0653 127.082 37.1503 127.115C37.2532 127.14 37.2916 127.205 37.538 127.158C38.0071 127.032 38.4096 126.7 38.3306 126.004C38.3205 125.821 38.2846 125.643 38.2177 125.463C38.1122 125.169 37.7455 124.525 37.5967 123.878C37.3842 122.948 37.0013 122.272 36.9027 122.168C35.9669 121.374 36.7648 122.931 36.7556 123.035C36.7592 123.567 36.5093 123.527 37.0137 123.942C37.0239 123.951 37.0344 123.96 37.0453 123.969C36.408 124.251 36.6012 124.775 36.9058 125.171C37.2041 125.571 37.6054 125.949 37.2714 126.335C37.1723 126.372 37.022 126.367 36.8342 126.316C37.4024 126.236 37.4394 126.651 37.3383 126.666C37.265 126.685 37.0348 126.398 36.8632 126.214C36.3843 125.735 36.6234 126.519 36.1892 126.387C36.0181 126.334 35.6948 125.662 35.4194 125.643C35.143 125.624 34.8959 125.969 34.5457 125.866C33.919 125.684 33.4924 125.323 33.1495 124.676C32.9816 124.844 32.8188 125.015 32.6498 125.183C32.3795 124.835 32.0979 124.485 31.8267 124.139C31.8184 124.337 31.8092 124.537 31.8001 124.734C31.6877 124.722 31.5741 124.708 31.4604 124.693C31.2169 124.301 30.9744 123.932 30.7219 123.527C29.3812 124.199 29.9872 123.415 29.4961 123.085C29.1621 122.861 28.8112 123.016 28.4873 123.09C28.3383 123.124 28.2002 123.142 28.0701 123.094C27.5222 122.894 27.2432 122.867 26.7174 122.595C26.4111 122.437 26.1205 121.642 26.1735 122.721C25.5816 122.529 24.8405 122.226 24.133 122.236C23.6141 122.244 23.1201 122.256 22.6841 122.166C22.3745 122.105 22.7078 121.736 22.6539 121.707C22.3643 121.576 22.25 122.103 21.988 122.092C21.5464 122.069 20.6222 121.952 20.2656 121.986C19.746 122.025 19.2714 122.906 19.2237 122.978C18.9275 123.381 18.6166 122.939 18.5028 123.028C17.8675 123.539 17.8123 123.814 17.1192 122.899C17.134 123.424 16.7168 124.517 16.1893 123.865C16.4953 124.534 15.8123 124.716 15.498 125.059C15.3377 124.898 15.1784 124.738 15.0184 124.574C14.7983 125.894 13.2521 126.003 12.1459 125.969C11.9366 125.966 11.738 125.968 11.5578 125.984C11.5289 125.988 11.5983 126.537 11.3983 126.454C11.3852 126.447 11.3494 126.201 11.2274 126.195C10.8178 126.188 9.27664 125.839 9.12782 125.842C8.53906 125.901 8.47903 126.315 8.11747 126.379C7.64464 126.454 7.57065 126.084 7.17454 126.111C7.03796 126.117 6.87652 126.38 6.67264 126.446C6.63116 126.474 6.58748 126.477 6.56786 126.445C6.51407 126.36 6.81858 126.104 6.85382 126.105C6.8906 126.088 6.84306 125.991 6.82087 125.825C6.78913 125.612 6.81323 125.371 7.13012 125.146C5.91783 124.956 6.8378 124.785 6.96398 124.598C7.46747 123.803 7.41422 122.494 7.87708 121.729C9.06022 119.767 10.5915 118.435 11.9696 116.341C12.4842 115.346 12.5166 114.578 12.5375 113.9C12.5341 113.279 11.9049 113.219 11.862 112.674C11.8401 112.429 12.2312 112.097 12.1506 111.705C12.0875 111.39 11.7593 111.013 11.6573 110.649C11.6298 110.553 12.0276 110.429 11.9882 110.283C11.6871 109.179 11.0429 108.269 10.4441 107.325C10.2217 106.977 10.6309 106.533 9.77371 106.969C9.9282 106.73 10.0598 106.517 10.2106 106.282C10.0953 106.248 9.99784 106.184 9.92244 106.12C9.90732 106.082 9.84652 105.975 9.82747 105.938C9.44429 105.745 9.62404 105.175 9.24597 104.732C9.19863 104.683 8.36835 104.515 8.67188 104.04C8.35516 104.171 8.1136 104.338 7.8313 104.466C7.58209 104.253 7.75076 103.677 7.70833 103.481C7.66576 103.286 7.20571 103.34 7.17805 103.287C7.07794 103.081 7.63788 102.904 7.63995 102.884C7.76873 101.717 7.54045 101.967 6.50412 101.646C6.22932 101.549 6.57481 100.39 5.87434 100.322C6.1499 100.261 6.40477 100.272 6.67178 100.234C6.68686 99.9353 6.72464 99.6497 6.78858 99.4123C6.51956 99.473 6.25283 99.5576 5.98583 99.6374C6.05043 99.4222 6.02508 99.2367 5.97345 99.0602C5.94452 99.075 5.88304 99.1161 5.8391 99.0981C5.79498 99.0827 5.79263 99.0213 5.82587 98.9646C5.89387 98.8471 6.06164 98.7523 6.2287 98.7493C6.53102 98.7495 6.47872 99.3547 6.64762 99.2289C6.68145 99.2047 6.64347 98.7973 6.74868 98.7709C7.64441 98.5812 7.97827 99.0941 8.81197 99.3586C9.20286 99.4878 9.74305 98.863 10.2045 99.4867C10.2489 99.5448 10.6379 100.327 11.2452 99.5282C11.2764 99.844 11.3322 100.021 11.3467 100.284C12.4452 99.157 11.8696 100.406 12.7354 101.001C12.8634 101.089 13.0969 101.174 13.3761 101.25C14.0726 101.44 15.0843 101.593 15.5021 101.613C15.8501 101.627 16.0082 101.104 16.0724 101.102C16.453 101.09 16.2943 101.595 16.6359 101.612C16.6545 101.613 16.6721 101.613 16.6874 101.611C16.6997 101.615 16.7377 101.624 16.7504 101.627C17.0672 101.556 17.5814 101.12 17.8877 101.254C18.1312 101.364 17.76 101.941 18.1819 101.825C18.2714 101.801 18.2151 101.197 18.5412 101.53C18.6047 101.58 18.9846 102.37 18.9822 102.531C18.6049 102.712 17.6563 102.895 17.2941 102.959C17.0303 103.004 16.7223 103.041 16.482 103.096C16.432 103.084 16.2828 103.052 16.2348 103.034C15.2105 103.042 14.0657 102.965 12.8974 102.854C11.5373 102.716 10.1309 102.502 8.76623 102.328C8.09268 102.244 7.40923 102.167 6.88311 102.158C6.63384 102.152 6.38752 102.176 6.4494 102.203C6.49845 102.202 6.60708 102.257 7.15689 102.05C7.42375 101.937 7.86238 101.727 8.3316 101.186C8.79573 100.665 9.08748 99.8612 9.12033 99.2978C9.15138 99.2423 9.21823 99.6982 9.37816 100.155C9.53291 100.628 9.74701 101.171 9.98607 101.718C10.4582 102.8 11.071 104 11.5765 104.904C11.6153 104.979 11.7391 105.196 11.7699 105.274C12.5831 107.154 13.11 108.769 13.4892 110.368C13.6626 111.113 13.211 111.745 13.2527 112.267C13.2907 112.808 13.7394 112.265 13.7695 112.781C13.791 113.311 13.4559 113.743 13.4174 114.314C13.3585 114.958 13.2932 115.712 12.7888 116.731C11.5555 118.765 10.4551 120.17 9.59582 121.808C9.33301 122.304 9.55267 122.872 9.38613 123.3C9.32191 123.466 8.80344 123.279 8.76333 123.403C8.43748 124.342 8.58486 125.374 8.77445 125.52C8.80524 125.62 8.85301 125.473 8.63182 125.054C8.43918 124.62 7.67276 124.069 7.23884 124.019C7.23829 124.019 7.23844 124.02 7.23928 124.021C7.27022 124.073 7.8974 124.556 8.45545 124.531C8.92419 124.519 9.38617 124.122 9.83019 124.031C10.0718 123.981 10.286 124.365 10.3837 124.379C10.7226 124.421 10.5059 123.942 10.6665 123.908C11.0537 123.825 11.3805 124.235 11.7362 124.241C11.7764 124.244 11.8174 124.239 11.8588 124.222C11.9899 124.167 11.8681 123.792 12.0405 123.678C12.2635 123.528 12.2806 123.904 12.4714 123.855C12.4828 123.853 12.358 123.597 12.4498 123.554C13.0513 123.272 13.7992 122.706 14.4815 122.415C15.8918 121.814 17.6054 121.574 19.1526 121.092C19.5466 120.97 19.3173 120.665 19.4359 120.602C20.0213 120.303 20.3769 120.646 21.0039 120.305C21.1053 120.249 21.4476 119.629 21.9572 119.661C22.2278 119.678 22.574 119.943 22.8021 119.988C23.0315 120.033 23.0109 119.564 23.296 119.538C23.73 119.504 23.7071 119.735 24.1224 119.767C24.2522 119.774 24.4099 119.778 24.6017 119.789C24.8414 119.797 25.3846 119.783 25.8431 119.832C26.308 119.877 26.6942 119.94 26.9584 120.072C27.6654 120.435 28.301 121.017 29.0916 121.404C29.2647 121.487 29.4364 121.562 29.6116 121.626C29.9719 121.76 30.5984 121.475 31.1574 121.674C31.8447 121.918 33.053 122.481 33.7443 122.744C34.0935 122.876 33.9486 123.359 33.9821 123.394C34.2008 123.624 34.2901 123.057 34.4618 123.144C34.6976 123.263 34.7872 123.738 35.0008 123.845C35.1364 123.913 35.3028 123.532 35.3342 123.54C35.8482 123.663 36.3291 123.806 36.7691 123.938C36.9912 124.004 37.207 124.069 37.3855 124.116C37.4724 124.139 37.5553 124.157 37.582 124.161C37.5932 124.162 37.5922 124.159 37.5259 124.149C37.4811 124.144 37.4443 124.137 37.3083 124.135C37.2397 124.135 37.1571 124.137 37.0385 124.15C36.8851 124.169 36.6779 124.201 36.3866 124.317C35.4517 124.763 35.2756 125.159 35.0578 125.797C34.9613 126.15 34.9535 126.606 35.0826 127.02C34.9994 126.817 34.3306 125.549 34.1734 124.249C33.5886 122.234 31.2135 117.47 32.2554 112.817C32.3768 112.242 32.6061 111.523 33.1233 110.801C33.6297 110.073 34.43 109.498 35.0264 109.224C36.4764 108.525 37.7266 107.917 38.5023 107.337C38.7486 107.151 39.1226 107.513 39.2338 107.269C39.2627 107.199 39.2108 107.072 39.1431 106.96C39.5527 105.981 39.6914 105.569 40.5281 105.991C40.3812 105.786 40.2666 105.648 40.1347 105.46C41.3273 104.962 41.8851 104.146 42.5588 103.566C43.0425 103.154 43.4786 102.835 43.7178 102.622C43.8166 102.535 43.9087 102.599 43.9475 102.618C43.9754 102.659 43.9726 102.563 43.5951 102.685C43.5382 102.886 43.3935 103.273 43.4696 103.956C43.5331 104.633 43.9816 105.337 44.285 105.587C44.6076 105.875 44.7726 105.914 44.8416 105.935C44.9174 105.953 44.9111 105.93 44.8684 105.904C43.7985 105.438 42.1799 105.363 40.3265 105.004C39.7595 105.958 39.1428 105.399 38.1791 105.24C38.0628 105.22 38.1737 105.543 37.8473 105.526C37.8389 105.525 37.8302 105.524 37.821 105.523C37.4842 105.473 37.3197 104.944 36.7044 104.961C36.5462 104.964 35.3011 105.528 34.8219 105.221C34.3533 104.916 33.6529 104.722 33.1493 104.409C33.2115 104.637 33.2922 104.856 33.3647 105.08C33.1041 105.107 32.8313 105.128 32.5564 105.145C32.5369 104.874 32.5188 104.602 32.5039 104.328C32.3294 104.571 32.1433 104.808 31.9488 105.048C31.7366 103.627 32.0933 104.141 31.2076 104.357C30.7385 104.447 30.4438 104.148 29.8122 104.059C29.5825 104.021 29.2598 104.331 28.8945 104.18C28.4602 103.988 28.3943 103.781 28.4195 103.652C28.4427 103.513 28.5295 103.42 28.3236 103.186C28.3198 103.181 28.3151 103.175 28.3096 103.169C28.1566 103.015 27.4897 103.207 27.413 102.717C28.5064 102.288 27.4333 101.635 26.7361 102.121C26.6331 102.002 26.5753 101.877 26.4446 101.754C28.216 100.52 26.5357 100.868 26.0866 100.734C25.6477 100.62 26.1368 100.304 26.0748 100.253C25.8982 100.099 25.7871 100.368 25.6929 100.238C25.1865 99.5206 25.0313 98.7237 24.7966 98.0181C24.7243 97.8192 24.6563 97.6268 24.585 97.4426C24.5302 97.2994 24.2798 97.5507 24.2417 97.3724C24.2038 97.1917 24.449 96.9228 24.3451 96.7025C24.3177 96.6434 24.0399 96.7208 24.0055 96.624C23.663 95.6235 23.4783 94.7141 23.2763 93.9135C23.1786 93.5204 23.0708 93.145 22.9796 92.9061C22.9387 92.7911 22.8928 92.7115 22.9341 92.7477C22.9674 92.7628 23.1768 93.0322 23.7424 93.1265C24.0233 93.1705 24.3853 93.4685 24.7303 93.4447C25.0383 93.3296 25.0973 93.2846 25.1498 93.2458C25.3461 93.0466 24.6965 93.0304 24.5144 93.2561C24.4603 93.3186 24.806 93.5672 24.7393 93.6505C24.5198 93.9249 24.0443 94.072 23.7985 94.4508C23.3831 95.0948 23.3235 95.9599 22.8228 96.6564C22.7277 96.7928 22.4004 96.6504 22.2337 96.8389C21.9455 97.1723 22.4877 97.1791 22.5295 97.2765C22.6685 97.5846 21.9821 97.4772 22.082 97.7653C22.0975 97.81 22.5046 97.8717 22.5011 97.9065C22.4207 98.4435 21.491 98.216 21.8385 98.9124C21.1773 99.2757 21.2103 98.3939 20.9561 98.2232C20.3305 97.8186 19.3672 98.1812 19.0202 98.4668C18.7194 98.7178 19.1509 98.8167 19.1221 98.9352C18.9664 99.5761 18.8487 100.518 18.5457 100.969C18.3643 101.234 18.2888 100.675 18.1166 100.795C17.9447 100.913 18.2515 101.073 17.8654 101.156C17.4793 101.238 16.3681 101.364 15.8788 101.209ZM39.1307 112.13C39.1973 110.56 40.5287 109.562 41.3174 108.546C41.6343 108.168 41.966 107.978 42.2366 107.803C43.2485 107.194 44.8506 107.708 43.5031 106.278C42.6428 106.931 42.0031 107.41 41.1251 108.405C41.0301 108.537 40.9203 108.666 40.7944 108.791C40.7134 108.888 40.0508 109.258 39.8204 109.38C39.6926 109.455 39.4982 109.2 39.3437 109.314C39.3131 109.339 39.3518 109.822 39.2672 109.863C38.985 110.014 37.8685 109.905 37.7654 109.975C37.4756 110.19 37.826 110.57 37.7267 110.723C37.3806 111.235 36.9963 110.586 36.6179 111.038C36.5603 111.107 36.5434 111.654 36.2855 111.869C36.2355 111.908 36.1797 111.94 36.1148 111.963C35.9402 112.01 35.4212 112 35.3071 112.17C35.028 112.558 34.976 113.035 35.0015 113.422C35.0361 113.844 35.088 114.237 35.0114 114.578C34.9002 115.096 34.4126 114.921 34.3279 115.212C34.2476 115.509 34.8333 115.862 34.8725 116.048C34.9316 116.349 34.6279 116.744 34.642 116.843C34.912 118.751 35.7813 120.215 36.4443 121.839C36.3008 120.633 36.1472 119.43 36.1624 118.268C35.5292 117.726 36.0681 117.948 36.1636 117.512C36.2459 117.17 35.3541 117.197 35.4109 116.728C35.4109 116.728 35.411 116.729 35.411 116.729C35.4419 116.482 36.025 115.972 35.7817 115.498C35.7735 115.481 35.3097 115.428 35.3159 115.048C35.3249 114.62 35.3209 114.07 35.3929 113.508C35.44 112.957 35.7957 112.368 36.2741 112.188C36.3324 112.163 36.3864 112.166 36.4363 112.186C36.6179 112.259 36.7686 112.528 37.0252 112.458C37.2639 112.392 37.3258 111.869 37.7114 111.791C38.1917 111.696 38.7667 112.261 38.5542 111.165C38.7593 111.487 38.9239 111.82 39.1307 112.13ZM32.4912 101.969C32.4066 101.926 31.7486 100.634 31.8048 101.924C32.9221 102.648 34.2868 102.389 35.5408 102.72C35.1249 101.456 34.3929 101.945 33.5049 101.996C33.5046 101.996 33.5042 101.996 33.5038 101.996C33.4624 101.998 33.6503 101.679 33.4137 101.726C33.301 101.75 32.8276 102.228 32.4912 101.969Z" fill="#009358"/>
</g>
<g filter="url(#filter1_g_139_1482)">
<path d="M92.6592 20.521C91.9302 25.0805 91.4027 30.618 92.2443 31.9436C91.2627 32.1247 90.1606 32.1798 88.8817 32.5639C85.6935 33.5212 84.2387 34.999 81.6923 37.1431C79.3464 39.1183 78.2971 39.9663 76.2838 41.9488C74.4403 43.764 71.7864 46.8132 71.7864 46.8132C71.7864 46.8132 68.0263 51.0374 68.7495 51.8606C69.4728 52.6839 72.0814 54.1607 74.0998 55.2042C75.8044 56.0855 77.1755 56.323 79.2212 57.0422C81.0355 57.6801 82.564 58.3098 84.061 58.6713C86.4092 59.2383 88.6369 59.402 89.6068 60.2555C89.8439 60.464 90.0425 60.8132 90.1685 61.1475C90.7503 62.6912 91.7299 65.2482 92.5954 68.3727C93.4979 71.6306 94.4168 73.2219 95.1963 75.9986C95.7796 78.0764 95.8055 80.1474 97.9641 81.8024C98.4318 82.161 99.011 82.2539 100.219 80.9641C103.542 77.4148 105.871 73.4887 108.554 70.8134C112.711 66.6685 115.815 64.0699 116.838 64.086C117.584 64.0977 119.921 63.5192 123.115 63.2774C127.672 62.9325 134.245 62.1934 136.114 62.0231C138.769 61.7813 141.564 61.938 142.779 61.4879C143.06 61.3838 143.452 61.1285 143.36 60.8807C142.961 59.8079 141.642 57.4886 140.066 54.3693C139.283 52.8194 138.476 51.3656 137.469 49.4684C135.787 46.299 132.497 43.5041 133.147 40.5688C133.364 39.5867 134.817 36.8301 135.989 33.021C136.766 30.4983 137.746 28.9989 138.809 27.533C140.39 25.3514 141.073 23.8083 142.123 22.0463C142.391 21.5969 142.696 21.0094 141.777 21.1189C138.757 21.4791 135.034 21.8164 130.505 22.5025C127.517 22.9552 123.242 23.8448 120.38 24.1701C116.162 24.6496 113.723 24.8201 112.594 23.8628C112.065 23.4141 111.614 22.4163 110.657 21.7302C109.279 20.7424 108.196 19.8124 106.77 17.9182C105.718 16.5209 105.051 15.5004 103.611 13.7658C100.93 10.5374 99.0699 8.11885 96.8136 7.91855C96.4585 7.88703 96.1209 8.00841 96.0433 8.31443C95.8713 8.99251 93.4066 15.8457 92.6592 20.521Z" fill="#1756B4"/>
<path d="M89.2586 33.7802C88.3782 32.4066 88.3492 31.8456 88.1526 31.2018C88.0015 30.5895 87.9207 30.0557 87.8719 29.5387C87.778 28.5104 87.8226 27.561 87.9786 26.6265C88.0507 26.2001 88.3768 26.2689 88.4433 26.0993C88.5659 25.7891 88.2608 25.2294 88.2684 25.1544C88.3086 24.6929 88.8646 24.9316 88.8927 24.8719C89.1958 24.215 88.5223 24.3416 88.534 23.682C88.5507 22.8239 88.8105 21.759 88.995 20.7573C89.0568 20.4317 89.4108 20.598 89.5297 20.0207C89.54 19.9703 89.549 19.9147 89.5564 19.8529C89.6167 19.2639 89.4911 17.4311 90.2034 16.7996C90.4004 16.843 90.5934 16.9915 90.786 17.0802C90.2359 15.7987 90.3742 15.402 90.9968 13.9543C91.0961 13.7248 90.829 13.4045 91.0749 13.0225C91.3213 12.6426 91.8347 12.7771 92.0825 11.9484C92.1691 11.6561 91.866 11.3661 91.993 10.9108C92.2295 10.0386 93.0381 8.34999 93.4091 7.64634C93.6911 6.46153 94.8202 5.64079 95.4671 5.46485C96.157 5.23994 96.6358 5.26319 97.0461 5.30041C97.1927 5.31823 97.3281 5.33874 97.4518 5.35928C101.005 6.27174 102.075 7.26618 103.403 8.86107C103.496 8.98895 102.96 9.00675 103.145 9.22576C103.33 9.44528 103.934 9.31146 103.99 9.35627C104.601 9.84504 105.003 11.481 105.319 11.7242C105.582 11.9271 105.708 11.959 105.796 11.9513C105.971 11.9429 105.993 11.7601 106.636 12.4462C107.58 13.4501 108.068 15.3744 108.662 16.3949C108.675 16.418 108.689 16.4407 108.703 16.4629C109.399 17.5566 110.35 17.1575 110.237 18.5305C110.758 19.013 111.323 19.443 111.973 19.894C112.605 20.3364 113.1 20.876 113.47 21.3377C113.655 21.5678 113.813 21.7812 113.936 21.9369C114.052 22.0903 114.16 22.1902 114.08 22.1105C113.853 22.0157 114.679 22.2735 115.527 22.2202C116.396 22.2052 117.376 22.1089 118.36 21.9972C118.37 22.2117 118.379 22.4264 118.388 22.6411C118.668 22.4643 118.954 22.2847 119.233 22.1068C119.205 22.2704 119.179 22.434 119.151 22.5959C119.488 22.4049 119.81 22.2328 120.143 22.0805C121.068 21.6302 122.026 21.3328 123.261 21.2536C123.293 21.2514 123.281 21.6872 123.309 21.6937C123.689 21.7114 124.044 21.316 124.38 21.3356C125.192 21.3818 126.696 22.0587 125.906 21.0417C127.261 20.9727 128.733 20.5474 130.174 20.3121C130.719 20.2234 131.251 20.1606 131.758 20.1517C132.544 20.138 132.866 20.778 133.238 20.7681C133.611 20.7581 133.348 20.2068 133.476 20.1677C134.248 19.9361 135.546 19.8048 135.758 20.4349C135.885 20.1585 136.022 19.8778 136.152 19.5997C136.142 20.3243 138.531 19.7563 139.162 19.706C139.278 19.6965 139.329 20.0087 139.416 19.9959C140.381 19.8484 140.563 19.3303 141.364 19.0709C141.552 19.0095 141.444 19.2611 141.565 19.3358C141.62 19.3514 141.691 19.355 141.835 19.3451C141.993 19.3469 142.142 19.2768 142.715 19.3828C142.793 19.4012 142.854 19.3829 142.989 19.3853C143.116 19.397 143.347 19.3777 143.81 19.7274C144.31 20.0404 144.741 21.1768 144.63 21.7848C144.572 22.4166 144.397 22.7749 144.232 23.0794C144.197 23.1394 144.165 23.1952 144.135 23.2455C143.472 24.357 142.331 26.9658 141.068 28.3035C140.966 28.4153 140.78 27.7325 140.492 28.3635C140.423 28.5113 140.561 28.6161 140.568 28.8085C140.578 28.905 140.553 29.0224 140.446 29.1741C139.433 30.5878 138.392 31.8937 138.013 33.6441C137.939 33.9643 137.875 34.2817 137.821 34.6052C137.434 34.3833 137.225 33.4544 137.096 34.7116C137.075 34.9129 137.492 34.8999 137.477 34.9886C137.348 35.7113 136.871 36.2028 136.73 36.9777C136.689 37.2091 136.954 37.3728 136.915 37.6668C136.857 38.1004 136.382 38.1078 136.368 38.626C136.349 39.4328 136.676 39.7122 135.589 40.2125C135.516 40.3956 135.446 40.5761 135.388 40.7366C135.333 40.8875 135.283 41.064 135.293 41.0439C134.851 42.2491 137.665 45.0454 139.484 48.3991C140.106 49.6294 140.725 50.8719 141.301 52.1736C141.585 52.559 141.865 52.9381 142.139 53.322C142.727 54.1341 143.304 54.9356 143.857 55.8577C144.093 56.2524 143.643 56.5866 144.149 57.1562C144.26 57.2786 145.345 58.0796 144.425 58.7521C144.664 59.0158 144.763 59.2103 144.951 59.4738C144.999 59.1853 145.044 58.8974 145.096 58.6276C145.248 59.09 145.453 59.4712 145.713 60.0047C146.1 60.9278 145.774 62.0137 145.502 62.4258C145.223 62.894 144.989 63.1035 144.793 63.2874C144.394 63.6347 144.12 63.8113 143.713 64.0072C143.043 64.3302 142.593 64.4718 142.138 64.5987C141.19 64.8403 141.819 64.291 141.271 64.3871C140.744 64.4712 140.511 64.5895 139.879 64.038C139.428 64.7199 139.096 64.2618 138.261 64.2757C138.17 64.2776 137.668 64.5555 137.252 64.5293C136.953 64.511 136.834 64.1016 136.372 64.2055C136.363 64.2074 136.344 64.2166 136.316 64.2317C136.098 64.3493 135.265 64.8443 134.969 64.9168C134.447 65.045 133.556 64.6039 133.448 64.6086C131.951 64.6703 131.426 65.2515 130.277 64.5005C130.114 65.0324 129.257 65.4204 128.534 65.4407C127.62 65.4682 125.704 64.5912 125.552 65.7157C124.452 65.3157 124.596 65.6112 123.337 65.7192C123.325 65.7202 123.313 65.7212 123.3 65.7221C122.227 65.7756 119.407 65.7691 118.488 65.9962C117.548 66.2051 118.103 66.7421 117.682 66.8834C117.396 66.9716 117.202 66.9508 117.09 66.8952C116.978 66.8388 116.949 66.7523 116.797 66.6922C116.911 66.6579 117.077 66.6187 117.186 66.5952C117.459 66.5247 117.266 66.5836 117.156 66.6736C117.023 66.7654 116.863 66.8915 116.702 67.0331C116.375 67.3207 116.05 67.6625 115.723 68.0569C115.478 67.8447 115.23 67.6328 114.982 67.4233C115.009 67.5394 115.035 67.6557 115.062 67.7722C114.89 67.9114 114.702 68.0797 114.537 68.2092C116.774 68.1385 113.189 69.2241 112.379 69.9762C111.721 70.5542 111.13 71.9915 110.55 72.8152C110.532 72.8413 110.515 72.8667 110.497 72.8915C110.375 73.0657 110.23 72.7214 110.206 72.7578C109.914 73.2017 110.036 73.4133 109.539 73.9311C109.276 74.2061 108.688 74.2376 108.436 74.5365C106.592 76.7335 105.251 79.4498 103.178 81.8799C102.855 82.2586 102.239 82.2847 101.892 82.5305C101.853 82.5597 101.817 82.5905 101.784 82.6233C101.181 83.1545 101.29 83.8917 99.753 84.5371C99.3365 84.6827 98.6551 84.7815 97.9496 84.5993C97.2415 84.4231 96.7319 84.0195 96.4752 83.7444C96.203 83.3929 95.9774 83.0484 95.7659 82.8915C95.3278 82.5487 95.6287 83.6033 95.0166 82.7337C94.7545 82.3259 95.5775 82.7243 95.2157 82.2758C94.0166 80.8928 93.0283 78.5604 93.2187 77.3204C93.123 77.3998 93.0426 77.4966 92.9544 77.5885C92.8882 77.2496 92.8415 76.9484 92.7971 76.6721C92.6378 75.7491 92.4933 74.8529 92.1364 73.8332C91.9727 73.3607 91.3266 72.5945 91.1454 72.0886C90.9649 71.5869 91.2194 71.2375 91.0926 70.8288C91.0411 70.6586 90.7613 70.8249 90.7303 70.7096C90.5549 70.0492 90.535 69.4939 90.521 68.9473C90.5198 68.3471 90.5064 67.7525 90.2425 67.021C89.6273 65.3135 88.9355 63.6312 88.193 61.8921C88.158 61.7996 87.9989 61.661 88.1842 61.8721C88.2567 61.9078 87.3089 61.5936 86.4496 61.481C85.5496 61.3339 84.5452 61.1978 83.5026 60.9841C82.0324 60.6752 80.7556 60.2307 79.5502 59.8473C79.3433 59.7807 79.0646 60.1196 78.7522 60.0721C78.2726 60.0006 78.3751 59.6498 78.3191 59.6161C78.3183 59.6157 78.3176 59.6152 78.3168 59.6148C77.9739 59.4128 78.0169 59.7824 77.5152 59.6176C76.4766 59.2762 74.2836 58.369 72.8947 57.6333C72.8812 57.6267 72.8677 57.62 72.8543 57.6134C71.8046 57.0966 70.8129 56.6276 69.8151 56.1293C69.3161 55.879 68.8157 55.6221 68.291 55.322C67.7422 54.981 67.2914 54.8088 66.3991 53.9255C65.264 52.539 65.5138 51.42 65.5445 50.9326C65.6221 50.3943 65.743 50.0556 65.8414 49.7777C66.0511 49.2159 66.2521 48.8309 66.4549 48.4575C66.5843 48.2237 66.9075 48.6268 67.1475 48.2681C68.2949 46.6494 68.6405 45.969 69.5203 44.7961L69.498 44.8215C69.8964 44.2947 70.3805 43.7144 71.1197 42.9612C71.9312 42.1389 72.9876 41.0739 74.2696 39.9032C76.0907 38.2209 78.3489 36.4875 80.0234 35.1609C80.3626 34.8914 80.6879 34.6263 80.998 34.3711C80.9988 34.3719 80.9995 34.3728 81.0002 34.3737C81.2679 32.9532 82.7468 31.9799 84.4043 31.7751C82.9141 33.3423 81.9249 34.7956 80.7674 36.0445C79.1438 37.8168 77.2836 39.4456 75.5244 41.1776C73.9309 42.7371 72.4012 44.3176 70.8677 46.0137L70.8767 46.0034C70.267 46.68 69.7009 47.3636 69.1509 48.1138C68.7992 48.5969 68.4624 49.0959 68.1497 49.6645C67.9943 49.9513 67.8441 50.2487 67.7126 50.6195C67.6483 50.8076 67.5836 51.0131 67.5502 51.2993C67.5321 51.5608 67.4719 52.0571 67.9213 52.5882C69.9499 54.2812 71.8077 54.8548 73.8241 55.7375C75.6019 56.4826 77.4377 56.6662 79.1881 57.1364C80.8457 57.5606 82.4788 58.1151 84.1155 58.4458C85.554 58.742 87.0181 58.8884 88.4529 59.3673C89.0735 59.5923 89.2403 60.0706 89.5 60.3769C89.5539 60.4438 89.6147 60.5121 89.6939 60.5863C89.7735 60.6675 89.9194 60.1782 90.1647 60.4666C90.2999 60.6387 90.4116 60.8238 90.5052 61.0206C91.6109 63.2723 92.3284 65.7901 92.8724 68.2959C93.2764 70.2212 93.9292 72.0688 94.6845 73.8129C95.119 74.8482 95.553 74.9788 95.9439 75.7887C95.9797 75.8652 96.0141 75.9468 96.0473 76.0356C95.9183 75.9649 95.7911 75.914 95.6643 75.8672C95.5424 75.8229 95.4212 75.7828 95.2993 75.7343C95.3105 75.8089 95.3218 75.8842 95.3331 75.9602C95.5839 78.0952 95.836 80.5942 97.8049 82.01C97.9983 82.1665 98.2809 82.3093 98.5791 82.303C98.8755 82.3001 99.1274 82.1902 99.3422 82.0667C99.7707 81.8117 100.101 81.484 100.417 81.1496C101.618 79.8609 102.713 78.4784 103.813 77.1001C103.954 76.9253 104.316 77.1662 104.471 76.9889C104.784 76.6345 104.675 75.987 104.91 75.6508C105.216 75.2124 105.547 75.3464 105.827 74.9428C105.964 74.7448 105.656 74.6004 106.02 74.2209C106.051 74.1896 106.343 74.3797 106.52 74.0805C106.995 73.2549 108.019 71.5928 108.526 70.9822C108.555 70.9453 108.585 70.9097 108.616 70.8756C109.249 70.1711 110.121 69.9904 110.403 69.7634C111.205 69.12 110.822 68.7445 111.458 68.1497C113.125 66.672 114.962 64.8809 116.834 64.3739C119.049 64.2374 121.044 63.9113 123.16 63.8626C124.928 63.7984 126.707 63.6816 128.515 63.5036C128.913 63.4649 130.326 62.7226 131.062 62.6708C131.31 62.6553 132.615 62.6792 132.808 62.6721C133.601 62.64 134.308 62.9298 134.75 62.9606C135.247 62.9963 135.752 62.7892 136.166 62.5948C136.466 62.4548 136.732 62.3232 136.92 62.2873C137.709 62.132 139.14 62.1648 139.479 62.1668C140.298 62.1723 140.056 62.8813 140.647 62.689C140.823 62.6291 140.607 62.1109 141.224 62.0654C141.74 62.0226 142.001 62.3959 142.407 62.3934C142.579 62.3901 142.795 62.2453 142.987 62.0491C143.291 61.7615 143.409 61.4072 143.519 61.2535C143.599 61.1553 143.671 60.9624 143.612 60.787C143.349 59.8109 143.401 59.1991 142.894 58.1679C142.582 57.5431 141.357 55.5034 140.526 54.1368C140.119 53.4688 139.786 52.9744 139.683 52.8824C138.276 51.6266 139.914 54.0895 139.961 54.2524C139.979 54.3041 139.994 54.3527 140.008 54.3986C140.223 55.1126 140.02 55.1444 140.807 55.6848C139.855 57.0795 143.217 58.492 141.961 59.9225C142.928 60.0067 143.099 60.467 143.097 60.9786C143.023 60.8752 142.929 60.9085 142.75 60.921C142.676 60.9278 142.614 60.9307 142.573 60.9309C142.02 60.9534 142.663 61.3742 141.996 61.5084C141.69 61.5669 140.779 61.1056 140.329 61.1968C139.875 61.2921 139.694 61.7061 139.072 61.7496C137.96 61.8284 137.07 61.6719 136.072 61.2702C136.064 61.2818 136.057 61.2934 136.049 61.3049C135.911 61.5237 135.773 61.7434 135.635 61.9632C134.968 61.7957 134.301 61.6332 133.636 61.4702C133.759 61.6472 133.876 61.8265 134.002 62.0032C133.816 62.05 133.629 62.0954 133.446 62.1404C132.794 61.9228 132.17 61.7234 131.499 61.4974C129.868 62.7622 130.278 61.77 129.297 61.7261C128.315 61.6814 127.818 62.3646 127.07 62.439C126.063 62.5385 125.608 62.6595 124.587 62.7019C123.995 62.727 122.953 62.1967 123.846 63.0951C123.611 63.1241 123.361 63.157 123.109 63.1906C121.371 63.4098 119.324 63.9026 117.847 63.8019C117.353 63.7624 117.94 63.3639 117.854 63.3386C117.454 63.2283 117.171 63.7182 116.844 63.7102C116.81 63.7089 116.775 63.708 116.74 63.7071C115.736 63.7356 114.43 64.3509 113.895 64.6243C113.141 65.0354 112.583 66.3678 112.522 66.4855C112.147 67.1612 111.65 66.8993 111.502 67.0833C110.661 68.1421 110.614 68.5051 109.533 67.9863C109.613 68.5761 109.154 70.1595 108.335 69.8275C108.555 70.0555 108.509 70.3223 108.35 70.6091C108.139 70.9878 107.754 71.4073 107.556 71.7904C107.306 71.7513 107.055 71.7168 106.801 71.6827C106.784 73.6882 104.247 75.5282 102.889 77.0228C102.856 77.0601 103.236 77.4702 102.952 77.6318C102.932 77.6406 102.756 77.4634 102.606 77.6024C102.119 78.0796 100.026 79.5998 99.8245 79.7868C99.6626 79.9584 99.5457 80.1096 99.4554 80.2493C99.1773 80.6871 99.1945 81.0216 98.8838 81.2573C98.6836 81.3996 98.5695 81.3538 98.5601 81.2942C98.5456 81.2303 98.588 81.1799 98.5159 81.0827C98.4378 80.9965 98.3455 80.9108 98.2216 80.8168C97.9725 80.6237 97.3846 80.7391 97.1114 80.2343C96.9604 79.937 97.2789 79.7134 97.1937 79.4918C96.9101 78.6976 96.5246 78.0909 96.812 77.1197C95.569 77.1638 96.3563 76.5477 96.3279 76.0635C96.3209 75.9415 96.3086 75.8176 96.2907 75.6913C96.0513 73.8448 94.8022 72.0386 94.4305 70.6801C94.1804 69.7841 93.9885 68.9056 93.8416 68.0275C93.3899 65.408 92.8403 62.8714 92.1363 60.4059C91.9326 59.8371 91.7664 59.3215 91.0526 58.6125C89.7739 57.5159 88.821 57.3824 87.9513 57.1132C87.1251 56.9011 86.83 57.4771 86.0519 57.284C85.7057 57.1973 85.4375 56.6934 84.9078 56.5675C84.809 56.5435 84.6988 56.5292 84.5807 56.5189C84.2193 56.4929 83.7475 56.4947 83.3461 56.3632C83.2067 56.3178 83.3254 55.919 83.123 55.8475C82.1513 55.5018 81.0784 55.2072 79.9544 54.9569C79.2738 54.8013 78.592 54.6805 77.9408 54.5601C77.2851 54.4396 77.1051 53.8002 76.9074 54.7451C76.7515 54.4473 76.6039 54.1809 76.4877 53.8922C75.844 54.0924 75.468 53.7686 75.0178 53.4286C74.7635 53.2447 74.4794 53.0581 74.1127 52.9186C73.9932 52.8767 72.8767 53.0242 72.6739 52.3535C72.4725 52.6322 72.3968 52.9234 72.2301 53.1848C71.7188 53.0447 71.2543 52.3029 71.0004 52.0898C70.7431 51.8777 70.3152 52.1225 70.2288 52.0681C69.9117 51.8598 70.3314 51.4377 70.3139 51.414C70.0887 51.0919 69.9551 50.853 69.9619 50.7955C70.2682 51.1294 70.2892 51.4318 70.2988 51.5335C70.304 51.6575 70.2877 51.6833 70.275 51.6938C70.2472 51.708 70.2126 51.6394 70.1642 51.5569C70.0717 51.3801 69.92 51.0976 69.8354 50.5806C69.7593 50.2214 71.3647 49.1021 71.0752 48.3843C71.3064 48.547 71.4351 48.7839 71.6275 48.9748C72.029 48.5855 72.4505 48.1954 72.8638 47.8339C72.585 47.7404 72.2854 47.6722 72.0083 47.5768C72.1245 47.4867 72.2364 47.3816 72.3232 47.2911C72.9972 46.5722 73.2097 45.6074 73.7891 44.9959C74.17 44.5965 74.5666 45.0508 74.6883 44.7251C74.7121 44.661 74.3417 44.4659 74.4455 44.3054C75.1384 43.2415 75.7879 42.9126 76.6178 42.2879C76.8079 42.1453 77.0054 41.9891 77.217 41.8054C77.7566 41.3394 77.7146 40.3645 78.8092 40.0389C78.9109 40.0068 80.0908 39.8436 79.9638 38.7276C80.3071 38.8236 80.5402 38.8298 80.8149 38.9232C80.8741 37.4243 81.2746 37.9288 82.2083 37.7558C82.4474 37.7097 82.7173 37.622 83.0255 37.4446C83.8259 36.9617 85.857 34.9537 86.5977 34.454C87.0198 34.1182 86.7765 33.6404 86.8563 33.5742C87.3502 33.1992 87.5644 33.686 88.0345 33.4068C88.3134 33.2456 88.5921 32.9117 88.9053 32.6427C89.1261 32.4517 89.3661 32.2974 89.6103 32.2664C90.0607 32.2153 89.8416 32.9247 90.4338 32.5868C90.5597 32.517 90.0834 32.0245 90.8074 32.1354C90.9217 32.1506 92.0996 32.6038 92.3796 32.6771C91.7863 33.1449 90.2162 33.7872 89.7749 34.0757C89.6485 34.145 89.5237 34.2167 89.4003 34.291C87.3743 35.3789 86.0493 36.953 83.643 39.4598C81.9844 41.1435 80.3796 42.6961 78.7838 44.4876C77.4741 45.9574 76.0398 47.6882 74.6832 49.3344C74.6773 49.3407 74.6607 49.3603 74.6548 49.3666C74.127 50.0144 73.5209 50.8001 73.0608 51.4759C72.8303 51.8134 72.6204 52.1515 72.5121 52.3666C72.4605 52.4638 72.4358 52.5525 72.4891 52.4177C72.5132 52.3381 72.5711 52.2254 72.6112 51.8096C72.623 51.4486 72.7235 50.4341 71.7306 49.2417C71.5455 49.0396 71.6603 49.1643 71.7684 49.2362C71.8871 49.3233 72.0507 49.4354 72.2258 49.5494C72.5792 49.7795 72.9834 50.0233 73.3952 50.2624C74.2219 50.7417 75.0896 51.2112 75.9361 51.6525C76.9974 52.2438 78.6546 52.6258 80.5308 53.3175C81.9751 53.8505 83.2088 54.3657 84.1748 54.695C84.4854 54.8011 84.719 54.9509 84.9217 55.1069C85.3317 55.391 85.6885 55.7123 86.105 55.8277C86.772 56.01 86.2929 55.3797 86.917 55.5459C87.5589 55.7188 87.9891 56.1771 88.7129 56.3983C89.4772 56.6694 90.377 56.8461 91.6506 57.9329C92.5595 58.8191 92.7486 59.408 93.01 60.0766C93.7965 62.5151 94.5687 65.0919 95.1878 67.6545C95.3049 68.1438 95.4319 68.6207 95.574 69.0998C95.8522 70.0333 96.5293 70.6075 96.869 71.4963C97.0019 71.8449 96.4913 72.0535 96.5912 72.3042C96.9746 73.2716 97.4028 74.2672 97.7774 75.274C98.4699 77.3533 98.8601 78.4526 99.3291 78.9795C99.4428 79.129 99.5458 79.3203 99.6979 79.541C99.6146 79.5168 99.215 79.3054 98.7355 79.3102C98.2593 79.3125 97.9978 79.4806 97.9345 79.5481C97.8131 79.7009 98.0677 79.6141 98.2365 79.4569C98.2962 79.405 98.3544 79.3439 98.4133 79.2734C98.9239 78.6753 99.264 77.9132 99.7139 77.3638C99.9918 77.022 100.466 77.1031 100.594 76.9969C101.034 76.6239 100.509 76.4575 100.689 76.2318C101.184 75.6056 101.92 75.6623 102.348 75.0219C102.515 74.7698 102.177 74.5626 102.394 74.174C102.671 73.6806 102.836 74.0654 103.09 73.7524C103.106 73.734 102.833 73.6266 102.954 73.4488C103.727 72.3065 104.647 70.7517 105.657 69.6717C105.936 69.3716 106.232 69.0799 106.545 68.7982C108.346 67.1991 110.336 65.8677 112.168 64.4472C112.707 64.0325 112.342 63.8604 112.499 63.7093C113.319 62.9696 113.79 63.1025 114.931 62.2687C115.006 62.2206 115.115 62.091 115.345 61.9123C115.607 61.7499 115.823 61.4578 116.881 61.3672C116.721 61.3117 116.943 61.2703 117.112 61.2875C117.409 61.316 117.863 61.5622 118.171 61.587C118.483 61.6111 118.457 61.1409 118.827 61.0815C119.504 60.9749 119.354 61.3214 120.328 61.1275C120.695 61.0544 121.869 60.5071 122.899 60.4186C122.951 60.4139 123.003 60.4104 123.054 60.4082C124.626 60.3429 126.63 60.5647 128.505 60.3861C129.148 60.3259 129.926 59.7646 130.924 59.6574C132.146 59.5269 134.393 59.3966 135.69 59.2784C135.756 59.2724 135.813 59.2718 135.864 59.2754C136.408 59.3078 136.481 59.7232 136.558 59.736C137.09 59.8409 136.844 59.2934 137.196 59.2954C137.679 59.3002 138.133 59.6982 138.551 59.7109C138.818 59.7192 138.845 59.3035 138.902 59.2983C139.568 59.2325 140.192 59.1874 140.749 59.1339C141.025 59.1071 141.285 59.0777 141.499 59.0435C141.704 59.0135 141.894 58.9583 141.846 58.9684C141.705 59.0253 141.68 59.0272 141.487 59.172C141.391 59.2549 141.247 59.354 141.022 59.7107C140.804 60.0107 140.494 60.9922 140.834 61.8211C140.758 61.6286 140.57 61.2405 140.377 60.877C139.495 59.2235 138.467 57.4436 137.51 55.6606C136.668 54.107 135.726 52.5194 134.802 50.8837C134.164 49.7707 133.132 48.5523 132.039 47.0242C131.064 45.5427 129.332 43.3253 129.968 39.8651C130.162 39.0554 130.301 38.7812 130.44 38.3992C130.578 38.0435 130.709 37.7231 130.837 37.4091C131.093 36.7828 131.337 36.1864 131.571 35.5899C132.038 34.4031 132.462 33.2291 132.834 32.0495C133.301 30.5455 133.98 28.9929 134.851 27.6107C135.453 26.6707 135.918 26.9385 136.364 26.1595C136.42 26.0648 136.462 25.9624 136.495 25.8557C136.68 25.1721 136.387 24.2888 137.596 24.4174C137.393 24.2673 137.24 24.174 137.055 24.0364C138.003 23.1038 138.434 21.7328 139.176 20.2896C139.209 20.2189 139.212 20.1896 139.171 20.2617C139.141 20.3636 138.992 20.4349 138.929 21.3142C138.893 21.773 139.088 22.8618 139.807 23.5908C140.509 24.3095 141.111 24.4375 141.415 24.5171C142.04 24.6341 142.109 24.5694 142.189 24.574C141.242 24.6914 140.368 24.7574 139.473 24.8343C138.466 24.9191 138.504 24.4735 137.704 25.1392C135.441 25.205 133.208 25.4183 130.982 25.6499C129.012 25.8554 126.933 26.1239 124.831 26.1992C123.975 27.2968 122.896 26.8875 121.406 26.9485C121.221 26.9544 121.465 27.2701 120.907 27.3088C120.848 27.3128 120.792 27.3129 120.737 27.31C120.171 27.2724 119.758 26.8821 118.741 27.0105C118.462 27.0516 116.259 27.8302 115.238 27.494C114.328 27.1614 112.644 26.9873 111.326 25.6465C111.381 25.9743 111.538 26.3304 111.686 26.6542C111.371 26.5084 111.041 26.3153 110.725 26.0666C110.178 25.6183 109.953 25.3199 109.744 25.0944C109.916 24.8747 110.093 24.6612 110.274 24.4517C109.923 24.4091 109.601 24.4034 109.307 24.4542C110.173 23.3475 109.958 23.7391 109.335 23.6582C109.314 23.658 109.295 23.657 109.277 23.6549C108.763 23.4185 108.496 22.9738 107.93 22.6736C107.709 22.5567 107.321 22.7607 107.075 22.61C106.479 22.233 107.158 22.0974 106.855 21.8107C106.558 21.5273 105.678 21.5022 105.406 20.7554C106.599 20.6256 105.361 19.4668 104.593 19.5566C104.514 19.5676 104.439 19.5921 104.37 19.6325C104.224 19.4401 104.132 19.257 103.957 19.0599C105.834 17.9762 103.877 17.8886 103.369 17.6947C102.858 17.4985 103.335 17.1709 103.252 17.0978C103.017 16.8893 102.96 17.213 102.824 17.047C102.39 16.5129 102.035 15.9517 101.668 15.3794C101.255 14.7448 100.865 14.1105 100.404 13.536C100.274 13.3742 100.142 13.7247 100.012 13.5217C99.8829 13.319 99.9825 12.9331 99.7375 12.6868C99.6717 12.6203 99.4375 12.7891 99.3429 12.6828C98.2258 11.3673 97.0604 10.3405 96.6017 10.3055C96.7433 10.3059 96.9165 10.3159 97.2649 10.172C97.5937 10.0634 98.2129 9.50429 98.3284 8.894C97.9018 10.1682 97.6008 10.895 97.2665 11.9132C97.1754 12.1869 97.5912 12.5629 97.4072 13.091C97.2229 13.6194 96.5329 14.2991 96.3044 14.9565C96.2437 15.13 96.6386 15.2964 96.5606 15.5272C96.2969 16.3089 95.7751 16.9036 95.5122 17.7166C95.1816 18.7439 95.064 19.8509 94.8631 20.8733C94.7917 21.242 94.7039 21.6109 94.587 21.9697C94.5002 22.2413 94.155 22.1446 93.9992 22.5341C93.7326 23.2062 94.2825 23.0134 94.3322 23.1627C94.4945 23.6487 93.7936 23.707 93.9159 24.1736C93.9351 24.2445 94.3518 24.196 94.351 24.2573C94.3145 25.2006 93.3556 25.1569 93.7761 26.2055C93.1535 27.0506 93.0912 25.5446 92.8212 25.3559C92.1535 24.9023 91.2197 25.8332 90.9075 26.4295C90.6378 26.9412 91.081 26.9663 91.0677 27.1767C90.9953 28.2899 91.0511 29.9373 90.9788 30.8845C90.9343 31.4779 90.6124 30.4649 90.5069 30.7745C90.3985 31.0885 90.7519 31.2277 90.4736 31.6423C90.3398 31.8639 90.0626 32.2341 89.8654 32.7297C89.6497 33.1997 89.5858 33.8196 89.2586 33.7802ZM137.072 33.3349C136.144 31.8721 137.061 29.1244 138.512 27.3177C139.015 26.6395 139.484 26.0059 139.856 25.482C140.98 23.873 142.945 23.014 141.061 22.4209C140.085 24.1476 139.498 25.6046 138.324 27.1815C138.216 27.3279 138.105 27.4769 137.991 27.6296C137.844 27.8108 136.895 28.9209 136.629 29.3682C136.475 29.6122 136.185 29.4685 136.007 29.8285C135.966 29.9092 136.139 30.5203 136.062 30.6707C135.835 31.0795 135.01 32.0815 134.691 32.6212C134.613 32.7411 134.561 32.8297 134.551 32.8737C134.413 33.4877 134.96 33.4136 134.96 33.703C134.947 34.6787 134.205 34.5226 134.114 35.4614C134.098 35.6262 134.512 36.3769 134.173 36.9821C134.035 37.2279 133.542 37.5371 133.473 37.7412C133.202 38.5911 133.029 39.5501 132.865 40.5064C132.829 40.8109 132.815 41.1 132.8 41.3772C132.796 42.3104 132.306 42.1577 132.359 42.7061C132.445 43.2717 133.239 43.604 133.414 43.869C133.694 44.3119 133.751 45.0229 133.845 45.1586C134.994 46.8143 136.289 48.0632 137.27 49.5743C137.859 50.4887 138.452 51.4013 139.024 52.3628C138.617 51.3373 138.199 50.3174 137.794 49.2962C137.431 48.3933 136.972 47.5382 136.515 46.705C135.419 46.0703 136.149 46.2516 135.845 45.5452C135.612 44.99 134.797 45.3831 134.452 44.6683C134.452 44.6689 134.453 44.6694 134.453 44.6699C134.275 44.2908 134.365 43.2792 133.877 42.6559C133.865 42.6314 133.377 42.7308 133.22 42.1034C133.122 41.6657 133.059 41.1347 133.151 40.5696C133.431 39.3576 133.977 38.0614 134.443 37.0447C134.65 36.6103 135.062 36.8818 135.326 36.3697C135.518 35.9941 135.271 35.3879 135.582 34.8084C135.971 34.087 136.826 33.9328 135.976 33.0781C136.298 33.1363 136.599 33.2409 136.911 33.3048C136.965 33.316 137.018 33.3262 137.072 33.3349ZM111.939 22.7568C111.921 22.6994 111.913 22.1758 111.747 21.7949C111.58 21.411 111.318 21.2309 111.092 21.8731C111.589 22.5812 111.836 23.3312 112.47 24.0088C113.627 24.9726 115.128 24.7949 116.447 24.9589C115.656 23.7031 114.433 24.3926 113.094 23.9066C113.094 23.9064 113.093 23.9061 113.093 23.9058C113.042 23.882 113.398 23.7066 113.095 23.6021C113.054 23.5859 112.965 23.5834 112.85 23.5606C112.564 23.5186 112.074 23.2009 111.939 22.7568Z" fill="#1756B4"/>
</g>
<defs>
<filter id="filter0_g_139_1482" x="0.249878" y="85.832" width="50.8013" height="45.9141" filterUnits="userSpaceOnUse" color-interpolation-filters="sRGB">
<feFlood flood-opacity="0" result="BackgroundImageFix"/>
<feBlend mode="normal" in="SourceGraphic" in2="BackgroundImageFix" result="shape"/>
<feTurbulence type="fractalNoise" baseFrequency="0.3333333432674408 0.3333333432674408" numOctaves="3" seed="2274" />
<feDisplacementMap in="shape" scale="4" xChannelSelector="R" yChannelSelector="G" result="displacedImage" width="100%" height="100%" />
<feMerge result="effect1_texture_139_1482">
<feMergeNode in="displacedImage"/>
</feMerge>
</filter>
<filter id="filter1_g_139_1482" x="63.5001" y="3.27637" width="84.3907" height="83.4219" filterUnits="userSpaceOnUse" color-interpolation-filters="sRGB">
<feFlood flood-opacity="0" result="BackgroundImageFix"/>
<feBlend mode="normal" in="SourceGraphic" in2="BackgroundImageFix" result="shape"/>
<feTurbulence type="fractalNoise" baseFrequency="0.3333333432674408 0.3333333432674408" numOctaves="3" seed="2274" />
<feDisplacementMap in="shape" scale="4" xChannelSelector="R" yChannelSelector="G" result="displacedImage" width="100%" height="100%" />
<feMerge result="effect1_texture_139_1482">
<feMergeNode in="displacedImage"/>
</feMerge>
</filter>
</defs>
</svg>
