<svg width="32" height="29" viewBox="0 0 32 29" fill="none" xmlns="http://www.w3.org/2000/svg">
<g filter="url(#filter0_g_260_842)">
<path d="M14.1276 2.21384C13.8691 2.36208 12.582 3.85515 12.1134 9.40526C11.5275 9.17765 10.4947 9.09652 10.4947 9.09652C10.4947 9.09652 9.25607 8.83818 8.44404 8.6839C6.37568 8.29093 3.03162 7.61095 3.05578 8.50711C3.10374 10.2867 5.36116 13.3428 5.36116 13.3428C5.36116 13.3428 7.60111 17.1523 7.09059 18.5841C6.55054 20.0987 4.65237 23.6342 5.15657 25.5493C5.21772 25.7816 5.31847 26.0783 5.65868 26.1217C6.49901 26.2289 7.87965 25.8277 9.21452 25.363C11.3628 24.615 13.9859 22.2366 16.4825 21.9694C17.058 21.9079 17.5574 22.2418 19.2004 22.6472C22.5949 23.4849 24.9324 24.1691 25.1866 24.0344C25.3016 23.9734 25.3953 23.7895 25.3254 23.6266C25.1773 23.2813 24.8612 22.8385 24.7335 22.2401C24.4615 20.9647 22.7598 18.5727 23.0856 15.7376C23.1421 15.2463 23.3614 15.0024 23.6303 14.8388C24.6968 14.19 26.0465 13.4007 26.6761 12.3203C27.2195 11.3876 31.451 8.66107 28.9223 8.21643C27.2339 7.91956 25.402 8.41525 23.9693 8.49674C22.1411 8.60073 19.5908 9.01568 18.9309 8.45117C17.79 7.4753 17.3368 6.97428 16.6063 5.81086C15.732 4.41845 15.1346 1.63633 14.1276 2.21384Z" fill="#FF60AD"/>
<path d="M10.804 9.28976C10.6997 8.62935 10.7019 7.96717 10.865 7.3061C10.9027 7.15208 11.0229 7.18515 11.0519 7.12499C11.1052 7.01519 11.0034 6.80462 11.0083 6.77483C11.0341 6.60396 11.2366 6.70609 11.2485 6.68454C11.3766 6.45062 11.1218 6.47976 11.1421 6.23216C11.1686 5.91225 11.2935 5.51291 11.3958 5.13296C11.4326 5.00085 11.5764 5.0994 11.6362 4.8071C11.6752 4.60369 11.6786 3.91413 11.974 3.68572C12.046 3.70878 12.1125 3.77213 12.1812 3.81245C12.0297 3.2989 12.0886 3.14454 12.4462 2.5764C12.506 2.48458 12.437 2.33315 12.579 2.18276C12.7297 2.03118 12.877 2.13717 13.1501 1.77976C13.1959 1.72329 13.2153 1.65989 13.2543 1.57563C13.3027 1.49149 13.2901 1.41841 13.5621 1.22776C13.6047 1.19767 13.6538 1.16822 13.7113 1.14121C13.9924 0.980641 14.6606 0.918955 15.0819 1.16265C15.5029 1.38501 15.6886 1.65622 15.8315 1.86871C16.1027 2.30397 16.2052 2.64892 16.3036 2.85121C16.6557 3.62804 17.0183 3.93293 17.2162 4.55701C17.2316 4.60434 17.0458 4.57089 17.0816 4.65466C17.1186 4.74098 17.3427 4.73364 17.3566 4.75076C17.4428 4.85709 17.4711 5.08027 17.5008 5.24922C17.5397 5.40112 17.5755 5.53118 17.6189 5.572C17.8707 5.80387 17.7644 5.48936 18.0498 5.83268C18.3148 6.15 18.4644 6.7272 18.7513 7.06888C19.0668 7.4478 19.4388 7.28935 19.4966 7.78979C19.484 7.79439 19.472 7.80077 19.4607 7.80896C19.398 7.78616 19.7526 7.88559 20.0411 7.88348C20.3484 7.89488 20.6873 7.88156 21.0288 7.85937C21.7158 7.81394 22.4253 7.73219 23.152 7.66176C23.1545 7.74227 23.1563 7.82286 23.1581 7.90343C23.2682 7.83844 23.3788 7.7737 23.4913 7.71011C23.4782 7.77113 23.4661 7.83215 23.4531 7.89258C23.6091 7.81139 23.7658 7.74129 23.9231 7.68505C24.2415 7.55593 24.5725 7.47127 25.0043 7.45848C25.0163 7.45809 25.0064 7.62122 25.0167 7.624C25.1579 7.63568 25.2966 7.49207 25.4234 7.5041C25.7297 7.53136 26.289 7.81475 26.0093 7.41844C26.725 7.41598 27.5949 7.19952 28.3376 7.33721C28.6575 7.39679 28.7207 7.66451 28.8648 7.6997C29.0098 7.73716 28.9704 7.51062 29.0256 7.51129C29.0323 7.51146 29.0392 7.51168 29.0461 7.51196C29.2425 7.52459 29.4835 7.57026 29.7227 7.72091C29.9548 7.85785 30.1279 8.1491 30.0494 8.2571C30.1986 8.29536 30.3637 8.40486 30.4934 8.54443C30.4207 8.53415 30.4182 8.68585 30.384 8.86096C30.3514 9.04786 30.2869 9.23757 30.2093 9.4048C30.0543 9.73652 29.8675 10.0014 29.7827 10.1046C29.7504 10.1426 29.6545 10.0725 29.6319 10.1016C29.3861 10.4122 29.4533 10.6036 29.2612 10.8843C29.1938 10.9808 29.1751 10.7083 29.0271 10.9769C29.0143 10.9995 29.1536 11.1289 28.8976 11.3657C28.5115 11.7283 27.6882 12.5281 27.4231 12.7445C27.4098 12.7523 27.287 12.6228 27.27 12.6664C27.262 12.6819 27.2536 12.7004 27.2448 12.7223C27.203 12.8204 27.357 12.8581 27.2079 13.0748C26.6086 13.9087 25.7296 14.3299 25.083 14.9209C25.0209 14.7654 25.1755 14.4456 24.8465 14.7819C24.7939 14.8357 24.9188 14.9296 24.894 14.9519C24.6903 15.1318 24.4395 15.1625 24.2289 15.3563C24.1666 15.414 24.209 15.5227 24.1354 15.5993C24.1264 15.6088 24.1171 15.6167 24.1076 15.6234C24.0735 15.6539 23.9744 15.5658 24.0014 15.63C24.0639 15.7464 24.2367 15.694 23.9041 15.7909C23.9024 15.8038 23.9008 15.817 23.8995 15.8311C23.7185 17.5172 24.4445 19.1212 25.1121 20.9404C25.3076 21.2689 25.5083 21.5667 25.6628 22.042C25.7132 22.1587 25.7726 22.2755 25.8453 22.4127C25.9074 22.5272 25.7273 22.6363 25.9086 22.8333C25.9357 22.8648 26.1506 23.0098 26.1718 23.2634C26.2466 23.5254 26.1689 23.7358 26.0442 23.785C26.0405 24.1755 25.9442 24.3665 25.6535 24.6316C25.9395 24.495 26.1232 24.3051 26.2551 24.0453C26.147 24.3741 26.0075 24.6228 25.6199 24.852C25.4035 24.9598 25.3022 24.9584 25.2274 24.9717C25.1441 24.9811 25.1093 24.9821 25.0585 24.9839C24.9756 24.9866 24.9097 24.9857 24.8539 24.9859C24.7386 24.9855 24.648 24.9866 24.5539 24.9877C24.3733 24.9907 24.2073 24.9965 24.0418 24.9885C23.7352 24.9723 23.9823 24.8433 23.8008 24.8201C23.6166 24.795 23.5303 24.8161 23.3613 24.5523C23.1336 24.7528 23.0582 24.5542 22.7489 24.469C22.717 24.4604 22.498 24.5044 22.3421 24.4446C22.2277 24.401 22.2348 24.2425 22.0435 24.2182C22.0138 24.2144 21.5755 24.3005 21.4487 24.286C21.2482 24.2632 20.9927 23.9921 20.957 23.9805C20.4257 23.8084 20.1701 23.9465 19.8657 23.5361C19.7416 23.7032 19.3939 23.732 19.141 23.6501C19.0902 23.6337 19.0331 23.6061 18.972 23.5728C18.6308 23.394 18.204 23.0396 18.0271 23.3508C17.6915 23.0564 17.6939 23.1752 17.2538 23.0382C17.0342 22.9685 16.6689 22.8101 16.5714 22.8003C16.2956 22.7966 16.0232 22.8343 15.8956 22.8794C15.6122 22.9819 15.8203 23.1643 15.7186 23.2272C15.5543 23.3347 15.5984 23.1405 15.4731 23.1865C15.1187 23.3208 14.8187 23.4901 14.5116 23.724C14.4404 23.6257 14.3669 23.5278 14.2939 23.4305C14.2936 23.4752 14.2936 23.5199 14.2936 23.5646C14.2184 23.6012 14.1364 23.6464 14.0655 23.6796C14.8852 23.8449 13.4924 23.9335 13.1328 24.1401C12.8359 24.2997 12.4781 24.8059 12.177 25.0476C12.1044 25.1063 12.0929 24.9626 12.0781 24.9748C11.9039 25.1209 11.92 25.2147 11.6495 25.3576C11.5048 25.4335 11.28 25.3748 11.1395 25.4489C10.6234 25.7201 10.1184 26.0186 9.52955 26.2678C9.00548 26.4927 8.4725 26.7163 7.89141 26.8815C7.69448 26.9373 7.47487 26.7874 7.30588 26.8204C7.06244 26.8673 6.93644 27.0565 6.68698 27.0955C6.43874 27.1359 6.04823 26.9684 5.85828 26.9889C5.66028 27.0089 6.00047 27.2172 5.62233 27.14C5.44566 27.0974 5.77209 26.9922 5.55753 26.9643C5.55546 26.964 5.55338 26.9637 5.5513 26.9634C5.28063 26.9378 4.87297 26.7589 4.65039 26.4796C4.42304 26.2096 4.34022 25.95 4.28259 25.7794C4.16215 25.398 4.14449 25.0229 4.23246 24.7292C4.19019 24.7541 4.15214 24.7921 4.11224 24.8259C4.13506 24.1605 4.33707 23.6605 4.49413 23.0889C4.54959 22.8884 4.53562 22.4992 4.59861 22.3073C4.66071 22.116 4.81598 22.073 4.87112 21.925C4.89425 21.8643 4.77335 21.8488 4.79016 21.8084C5.00404 21.3031 5.30929 21.1082 5.49764 20.584C5.77311 19.8138 6.10455 19.0225 6.33149 18.3134C6.43758 17.8098 5.91717 16.4619 5.41109 15.5003C5.37577 15.4315 5.21261 15.449 5.14356 15.3573C5.03656 15.2162 5.15529 15.1477 5.14964 15.1249C5.10958 14.9751 5.02296 15.0857 4.93124 14.9034C4.79305 14.6294 4.62545 14.1993 4.46789 13.868L4.52765 13.9585C4.41407 13.78 4.32006 13.6282 4.22924 13.5009C3.57392 12.5679 2.9747 11.8231 2.42724 10.7616C2.3883 10.6846 2.57962 10.6646 2.52365 10.5273C2.23531 9.74356 1.99718 9.49965 1.90408 8.53815C1.86223 8.16862 2.12631 7.58046 2.44773 7.3588C2.75781 7.11809 3.00671 7.05655 3.22399 7.00652C5.01136 6.77109 6.97032 7.43742 8.36278 7.6906C8.3627 7.69102 8.36262 7.69144 8.36254 7.69186C8.45605 7.64175 8.55689 7.60971 8.65165 7.59115C9.06046 7.5192 9.47136 7.69868 9.79655 7.97546C9.38069 8.01836 8.97228 8.03628 8.56697 8.03689C7.62322 8.04128 6.69773 7.92118 5.75642 7.79885C5.28507 7.73896 4.8088 7.67493 4.30581 7.64921C4.05267 7.63825 3.79657 7.63268 3.50653 7.67456C3.3606 7.69853 3.2032 7.72775 3.01568 7.82911C2.83313 7.90879 2.57711 8.22552 2.60367 8.5193C2.61296 9.01248 2.7377 9.45656 2.89227 9.87726C3.41565 11.2268 4.28916 12.366 5.21997 13.4471L5.20985 13.4318C6.14668 14.8132 7.16073 16.2954 7.26767 18.0286C7.26192 18.2971 7.09042 18.4007 7.02991 18.5625C7.02127 18.5841 7.01425 18.6081 7.00917 18.6353C7.00129 18.6762 7.17883 18.627 7.14809 18.7528C6.69713 20.4353 5.56575 21.951 5.2892 23.6284C5.22324 24.0757 5.37694 24.1739 5.38675 24.5496C5.31298 24.4791 5.23514 24.4274 5.16269 24.3583C5.06825 24.7474 5.02749 25.1577 5.10671 25.5625C5.14427 25.8199 5.30809 26.1741 5.64759 26.2086C6.85432 26.3217 7.96398 25.8588 9.07735 25.5235C9.157 25.4981 9.2203 25.6484 9.30555 25.6252C9.30562 25.6251 9.3057 25.6251 9.30578 25.6251C9.48352 25.5764 9.57863 25.345 9.71666 25.2786C9.89831 25.1901 9.98345 25.2928 10.1504 25.2029C10.2301 25.1588 10.1509 25.0602 10.336 24.9894C10.3514 24.9834 10.4206 25.0952 10.5302 25.0185C10.8306 24.8104 11.4051 24.3488 11.6405 24.1694C11.9424 23.9411 12.3021 23.9546 12.4306 23.8933C12.7778 23.7277 12.6685 23.5581 12.9502 23.3953C14.0688 22.7571 15.2613 22.218 16.5007 22.1402C17.2893 22.1795 18.2027 22.7096 19.1372 22.9031C19.2172 22.9233 19.2967 22.9432 19.3759 22.9628C19.5207 22.9985 20.1077 22.9142 20.3734 22.991C20.4627 23.0172 20.9163 23.1938 20.9841 23.2163C21.2646 23.3073 21.4753 23.5014 21.6261 23.5695C21.9163 23.7015 22.3096 23.584 22.4791 23.6055C22.7788 23.6438 23.2908 23.8018 23.4117 23.8369C23.7044 23.9228 23.5423 24.1526 23.7731 24.1453C23.8396 24.1423 23.8213 23.9322 24.0421 23.9836C24.2305 24.0276 24.2691 24.1907 24.3973 24.2454C24.524 24.3002 24.8067 24.1135 24.8874 24.128C25.0084 24.1436 25.0669 24.1981 25.2504 24.1549C25.4766 24.0556 25.641 23.8485 25.559 23.5264C25.5334 23.4239 25.4943 23.322 25.4395 23.2139C25.3548 23.0404 25.0824 22.6288 24.9605 22.1917C24.7966 21.6432 24.5362 21.2192 24.4856 21.1551C23.9992 20.6459 24.5351 21.6107 24.5414 21.6746C24.6085 21.9989 24.5111 21.9789 24.7455 22.2376C24.7502 22.2432 24.755 22.2489 24.76 22.2547C24.3096 22.6764 25.3225 23.2558 25.1766 23.6905C25.1484 23.7253 25.0942 23.7449 25.0225 23.745C25.2321 23.7444 25.2358 23.9458 25.1571 23.9787C25.0756 24.005 24.9188 23.8916 24.7834 23.8207C24.4249 23.6304 24.6663 23.9371 24.3816 23.8805C24.27 23.8578 23.9886 23.5882 23.8165 23.5748C23.6441 23.5618 23.5355 23.6927 23.3085 23.6448C22.9022 23.5594 22.5963 23.407 22.3051 23.1431C22.2238 23.2059 22.1458 23.2696 22.0638 23.3322C21.8549 23.1886 21.6387 23.0436 21.4296 22.9007C21.4494 22.9788 21.4689 23.0575 21.4883 23.1356C21.4181 23.1282 21.347 23.12 21.2757 23.1117C21.0775 22.951 20.883 22.7996 20.678 22.6339C19.9433 22.8701 20.2151 22.5736 19.8742 22.4331C19.6422 22.3376 19.4471 22.3915 19.258 22.4137C19.1704 22.4239 19.0878 22.4278 19.0018 22.4059C18.6396 22.3125 18.4659 22.2935 18.11 22.1666C17.9025 22.0923 17.6177 21.7596 17.7989 22.1985C17.4145 22.1043 16.9375 21.9338 16.4839 21.9834C16.155 22.0206 15.8434 22.0735 15.5749 22.0855C15.385 22.0957 15.5913 21.9172 15.5578 21.9124C15.3836 21.8915 15.3098 22.1089 15.1501 22.1363C14.881 22.1789 14.3365 22.2536 14.1275 22.3172C13.8232 22.4035 13.5081 22.8408 13.4759 22.8789C13.2831 23.0934 13.1247 22.9554 13.0545 23.0102C12.6606 23.3247 12.6126 23.4532 12.2639 23.1708C12.2442 23.3926 11.9417 23.9291 11.6744 23.7331C11.813 23.9715 11.4086 24.1594 11.2074 24.356C11.1234 24.3125 11.0397 24.2692 10.9555 24.2249C10.7527 24.8242 9.86039 25.1045 9.16815 25.2298C9.0395 25.2545 8.91711 25.2793 8.80558 25.3073C8.78758 25.3121 8.82141 25.519 8.69962 25.5102C8.69165 25.5088 8.67344 25.417 8.59812 25.4291C8.34836 25.4765 7.38441 25.5145 7.2845 25.5292C6.90612 25.6123 6.8706 25.7737 6.63901 25.8288C6.33442 25.8943 6.2732 25.7623 6.00033 25.792C5.90518 25.7999 5.81343 25.9037 5.68325 25.9291C5.64996 25.9387 5.61329 25.9368 5.58351 25.9167C5.51118 25.8619 5.61165 25.7481 5.59697 25.7139C5.57351 25.6565 5.53659 25.568 5.50841 25.4567C5.46822 25.3008 5.45836 25.1357 5.56432 24.9558C5.10319 24.896 5.43923 24.7308 5.48367 24.5879C5.65682 23.995 5.67849 23.1731 5.89582 22.6446C6.45041 21.2865 7.2202 20.2335 7.86072 18.8587C8.05552 18.3497 8.03273 17.9307 7.99771 17.5508C7.95482 17.2027 7.71118 17.1767 7.64352 16.8556C7.61134 16.7114 7.72877 16.5179 7.65502 16.2884C7.59651 16.1044 7.42378 15.8778 7.33808 15.6615C7.31514 15.6039 7.45804 15.5406 7.4243 15.4546C7.16694 14.804 6.7775 14.2519 6.39028 13.6805C6.24655 13.4693 6.35215 13.2342 6.05736 13.4447C6.08644 13.314 6.10996 13.1982 6.13887 13.0725C6.08555 13.0483 6.03408 13.0061 5.99482 12.9702C5.9874 12.9566 5.96122 12.9188 5.95243 12.9061C5.73655 12.7584 5.72048 12.4507 5.47452 12.1663C5.44424 12.1337 5.0505 11.9829 5.10344 11.7254C4.98733 11.7814 4.91013 11.8636 4.80848 11.92C4.66505 11.7822 4.64389 11.4562 4.59369 11.3375C4.5437 11.2204 4.35649 11.2264 4.33636 11.1936C4.26133 11.0668 4.47042 10.9916 4.46815 10.9801C4.33674 10.2868 4.27699 10.4142 3.8055 10.1774C3.67884 10.1131 3.6566 9.39296 3.37987 9.33604C3.47952 9.29997 3.57982 9.31032 3.6793 9.29018C3.64762 9.09356 3.62937 8.89873 3.63172 8.7199C3.53635 8.77191 3.44373 8.83555 3.35032 8.89236C3.35481 8.74838 3.3313 8.62004 3.3038 8.50043C3.20399 8.47295 3.37685 8.22615 3.60589 8.20853C3.80224 8.1848 3.79527 8.41552 3.90393 8.35843C3.92513 8.34766 3.87912 8.19784 3.94582 8.18266C4.50823 8.07294 4.75656 8.26458 5.31149 8.35762C5.57194 8.40445 5.84544 8.164 6.1982 8.40391C6.2314 8.42605 6.55996 8.72829 6.85058 8.42391C6.90441 8.54585 6.95864 8.61465 6.99663 8.71617C7.55474 8.28859 7.33501 8.76686 7.93928 9.00472C8.02843 9.03986 8.18267 9.07493 8.36372 9.10666C8.81923 9.18626 9.46246 9.25751 9.72318 9.27007C9.94004 9.27977 9.97737 9.07852 10.0168 9.07823C10.2504 9.07812 10.2107 9.27254 10.4238 9.28347C10.4355 9.28426 10.4463 9.28442 10.4556 9.28385C10.4603 9.285 10.4748 9.28675 10.4797 9.28729C10.6794 9.25592 10.9576 9.08606 11.1611 9.13757C11.3237 9.18004 11.1542 9.40027 11.4067 9.35887C11.4597 9.35067 11.357 9.11539 11.5959 9.24863C11.6382 9.26656 11.9754 9.5903 12.0121 9.66596C11.796 9.71071 11.1931 9.76393 10.9633 9.79009C10.7936 9.80646 10.6029 9.82276 10.4358 9.84561C10.4167 9.84349 10.36 9.83661 10.3412 9.83208C9.70688 9.82207 8.99246 9.7783 8.24659 9.7232C7.39147 9.65892 6.48909 9.55968 5.5865 9.49094C5.13882 9.45775 4.68263 9.4311 4.28523 9.44081C4.09175 9.44511 3.89861 9.46426 3.82368 9.48782C3.79133 9.49408 3.78415 9.52251 3.9368 9.44897C4.01028 9.40863 4.1454 9.3294 4.28515 9.13091C4.42403 8.93967 4.49533 8.65371 4.48681 8.46854C4.61209 9.43652 5.73314 11.2825 6.56529 12.4534C6.58319 12.4793 6.63652 12.5564 6.65162 12.584C7.25441 13.6514 7.69674 14.6173 8.02904 15.5332C8.1822 15.9605 8.07159 16.3176 8.137 16.6153C8.20058 16.9214 8.3237 16.6118 8.37871 16.8994C8.42938 17.1918 8.33409 17.438 8.35002 17.7444C8.36111 18.0882 8.36418 18.477 8.18126 18.973C7.61377 20.2662 7.02628 21.3047 6.59817 22.4367C6.4659 22.7832 6.5305 23.1087 6.44599 23.4154C6.41355 23.5346 6.21261 23.4868 6.19255 23.5734C6.03377 24.2396 6.07614 24.9233 6.22547 25.2679C6.25483 25.3572 6.2842 25.355 6.21891 25.2524C6.16297 25.1437 5.90863 24.9979 5.80151 25.0021C5.80684 25.003 5.8125 25.004 5.81849 25.0049C6.01125 25.041 6.45779 25.1656 6.83864 25.0992C7.15628 25.0465 7.46021 24.8407 7.74863 24.7524C7.90538 24.7039 8.03598 24.8277 8.09766 24.8214C8.31159 24.7968 8.1823 24.6358 8.28476 24.6027C8.53153 24.5227 8.72808 24.6429 8.94914 24.6008C8.97681 24.5961 9.00507 24.5878 9.03395 24.5747C9.12466 24.5329 9.05927 24.4002 9.18197 24.3253C9.33895 24.2275 9.32987 24.3796 9.45569 24.3287C9.46314 24.326 9.39618 24.2404 9.45805 24.2072C9.86245 23.9911 10.3479 23.623 10.7658 23.3856C11.6296 22.8955 12.6102 22.5205 13.5168 22.1054C13.7472 22.0002 13.6266 21.9072 13.6964 21.8654C14.0392 21.6667 14.234 21.7584 14.6012 21.5487C14.6614 21.5147 14.8638 21.2326 15.1518 21.1955C15.3052 21.1754 15.5043 21.2449 15.6363 21.2422C15.7689 21.2398 15.75 21.0637 15.9104 21.0324C16.1549 20.9884 16.1484 21.0763 16.3854 21.0627C16.4496 21.0586 16.5272 21.053 16.6223 21.0496C16.8887 21.0173 17.5832 21.0273 17.905 21.1531C18.3776 21.3249 18.872 21.5898 19.4189 21.7617C19.5348 21.7979 19.6487 21.8309 19.7636 21.8599C20 21.92 20.3465 21.8209 20.7121 21.9117C21.1614 22.0228 21.9689 22.2726 22.4248 22.3923C22.655 22.4527 22.6275 22.6406 22.6524 22.6551C22.8153 22.751 22.7983 22.5289 22.9145 22.5671C23.0742 22.6198 23.1892 22.8096 23.3339 22.8566C23.4259 22.8865 23.4802 22.7398 23.5006 22.7436C23.8331 22.8037 24.1489 22.8709 24.4461 22.9319C24.5967 22.9627 24.7443 22.9923 24.878 23.0145C24.944 23.0255 25.0088 23.0347 25.0521 23.0385C25.0728 23.0404 25.0899 23.0406 25.0808 23.0398C25.0735 23.0397 25.0661 23.0384 25.0248 23.042C24.9834 23.0507 24.9204 23.0378 24.7121 23.1392C24.4162 23.3215 24.389 23.4373 24.3386 23.6426C24.3196 23.7549 24.3314 23.9014 24.3862 24.0296C24.2596 23.7706 23.847 23.1452 23.6977 22.4611C23.1081 20.8646 21.5301 18.3216 21.8671 15.5976C21.8746 15.0399 22.3724 14.0881 22.987 13.7816C23.8573 13.2482 24.6647 12.7594 25.2252 12.2159C25.4087 12.0318 25.5655 12.1483 25.6727 11.9508C25.7026 11.8923 25.6988 11.8154 25.6878 11.7444C25.8471 11.2911 25.9425 11.0732 26.322 11.1466C26.2616 11.0735 26.2134 11.0266 26.1593 10.9592C26.7716 10.5439 27.1492 10.0483 27.564 9.63025C27.8662 9.32704 28.1365 9.07229 28.325 8.84563C28.4061 8.74734 28.4614 8.73732 28.4932 8.71517C28.5214 8.70071 28.5337 8.63944 28.4198 8.63627C28.4206 8.66932 28.3889 8.7743 28.4345 8.98072C28.4759 9.18648 28.6427 9.39185 28.7304 9.44548C28.914 9.55601 28.8275 9.46599 28.7063 9.44453C27.806 9.22764 26.7068 9.3312 25.5258 9.33285C25.1971 9.73095 24.7982 9.56861 24.2185 9.5636C24.149 9.56214 24.2279 9.67713 24.037 9.6874C24.0314 9.68766 24.0256 9.68779 24.0194 9.68777C23.7932 9.68802 23.6604 9.50036 23.266 9.54372C23.1632 9.5544 22.3955 9.84176 22.0847 9.75552C21.778 9.66965 21.3349 9.63713 21.0097 9.54498C21.0598 9.62684 21.1204 9.70433 21.1759 9.78429C21.0177 9.80744 20.8532 9.82855 20.6893 9.84716C20.6624 9.74677 20.6361 9.64621 20.6113 9.54503C20.5195 9.64302 20.4222 9.73886 20.3228 9.83556C20.1097 9.31161 20.3436 9.49434 19.846 9.59982C19.5869 9.64455 19.3955 9.53667 19.0688 9.50421C18.951 9.49018 18.8224 9.61182 18.6472 9.55462C18.2181 9.37675 18.5279 9.3283 18.3239 9.16072C18.321 9.15753 18.3176 9.15433 18.3138 9.15112C18.2092 9.06384 17.9083 9.11015 17.7874 8.86437C18.2551 8.73138 17.6098 8.33019 17.3595 8.52719C17.291 8.46231 17.2435 8.39734 17.1627 8.3289C17.8012 7.82635 17.0584 7.88908 16.8388 7.79972C16.6229 7.71872 16.7956 7.58405 16.7595 7.55416C16.6565 7.46529 16.6481 7.59794 16.5863 7.52588C16.2533 7.13132 16.0666 6.69131 15.8549 6.28263C15.7988 6.177 15.7452 6.07194 15.6915 5.96932C15.65 5.88935 15.58 6.0182 15.5411 5.91974C15.5021 5.81988 15.5669 5.67802 15.4953 5.54927C15.4762 5.51471 15.3735 5.54999 15.3469 5.49383C15.0762 4.91131 14.8851 4.35551 14.6787 3.84559C14.5768 3.59364 14.4691 3.3487 14.3598 3.16017C14.3069 3.06782 14.2503 2.99045 14.2224 2.95959C14.1911 2.92167 14.2237 2.97767 14.3751 2.98817C14.4451 2.99283 14.5592 3.09473 14.6363 3.10076C14.7364 3.05198 14.7442 3.04312 14.7513 3.03688C14.7521 3.01512 14.436 3.14614 14.325 3.33338C14.2932 3.38468 14.4287 3.46966 14.3891 3.53873C14.2603 3.76519 14.0454 3.94296 13.922 4.22094C13.7141 4.69211 13.6615 5.24813 13.4497 5.75438C13.4095 5.85283 13.2838 5.80367 13.2154 5.94268C13.0976 6.18724 13.3092 6.12682 13.3239 6.18348C13.3735 6.36275 13.1084 6.375 13.1443 6.54534C13.1499 6.57188 13.3069 6.5644 13.3052 6.58689C13.2691 6.93857 12.9126 6.8951 13.0444 7.29892C12.7908 7.5983 12.804 7.03722 12.7074 6.9581C12.4681 6.77254 12.097 7.09982 11.9656 7.31019C11.8515 7.49535 12.0167 7.5138 12.0062 7.59027C11.9492 8.00312 11.9144 8.60204 11.8066 8.91076C11.7418 9.09186 11.7054 8.75011 11.642 8.84013C11.5787 8.92918 11.6969 9.00151 11.5525 9.08723C11.4079 9.17198 10.9912 9.34473 10.804 9.28976ZM25.1598 14.3738C25.2863 13.6751 26.1227 12.9822 26.5596 12.2524C26.7182 12.0113 26.9097 11.8578 27.0611 11.7249C27.634 11.2502 28.4486 11.209 27.8439 10.7683C27.346 11.2345 26.9323 11.5792 26.4825 12.2075C26.4277 12.3022 26.3641 12.3963 26.2911 12.4893C26.246 12.5594 25.8714 12.8846 25.7336 12.988C25.6582 13.0496 25.575 12.963 25.479 13.0495C25.4593 13.0682 25.4397 13.2915 25.39 13.3257C25.225 13.4493 24.5949 13.6005 24.5285 13.6493C24.3459 13.7957 24.5229 13.9026 24.4558 13.9871C24.225 14.2694 24.0431 14.05 23.7975 14.3079C23.7601 14.3472 23.7185 14.5859 23.558 14.72C23.5289 14.7438 23.497 14.7658 23.4615 14.7857C23.3621 14.8339 23.1168 14.9032 23.0633 14.9991C22.9263 15.2229 22.8999 15.4889 22.9146 15.718C22.9322 15.9742 22.9615 16.2168 22.9457 16.4357C22.925 16.7682 22.7368 16.685 22.7195 16.8681C22.7048 17.0534 22.9456 17.2481 22.9737 17.3642C23.0168 17.5517 22.9353 17.8041 22.9491 17.8643C23.2133 19.0346 23.7622 19.9403 24.2555 20.9419C24.031 20.2116 23.8037 19.481 23.6743 18.7503C23.3674 18.4038 23.6013 18.5497 23.5905 18.2717C23.5861 18.0519 23.2487 18.0746 23.2291 17.7788C23.2291 17.7791 23.2292 17.7793 23.2292 17.7795C23.2197 17.6255 23.3957 17.2793 23.2769 16.9798C23.2731 16.9691 23.0957 16.9553 23.0792 16.7145C23.0618 16.4418 23.0416 16.0929 23.064 15.7351C23.0726 15.3852 23.2575 15.0122 23.535 14.8596C23.5687 14.8389 23.5989 14.832 23.6264 14.8325C23.7266 14.8348 23.7978 14.9266 23.9493 14.8551C24.0901 14.7884 24.156 14.5528 24.3812 14.4559C24.6622 14.3357 24.9484 14.4917 24.898 14.0427C24.9927 14.1509 25.0639 14.2709 25.1598 14.3738ZM20.4611 8.66622C20.4106 8.6556 19.881 8.19047 20.021 8.67227C20.7804 8.91324 21.6205 8.73267 22.4312 8.7798C22.1148 8.33378 21.6697 8.56252 21.108 8.62847C21.1078 8.62848 21.1075 8.62849 21.1073 8.62851C21.081 8.6315 21.1846 8.50271 21.0359 8.53286C20.9644 8.54758 20.6905 8.74923 20.4611 8.66622Z" fill="#FF60AD"/>
</g>
<defs>
<filter id="filter0_g_260_842" x="0.899902" y="0" width="30.5938" height="28.1572" filterUnits="userSpaceOnUse" color-interpolation-filters="sRGB">
<feFlood flood-opacity="0" result="BackgroundImageFix"/>
<feBlend mode="normal" in="SourceGraphic" in2="BackgroundImageFix" result="shape"/>
<feTurbulence type="fractalNoise" baseFrequency="1 1" numOctaves="3" seed="2274" />
<feDisplacementMap in="shape" scale="2" xChannelSelector="R" yChannelSelector="G" result="displacedImage" width="100%" height="100%" />
<feMerge result="effect1_texture_260_842">
<feMergeNode in="displacedImage"/>
</feMerge>
</filter>
</defs>
</svg>
